<svg width="361" height="361" viewBox="0 0 361 361" fill="none" xmlns="http://www.w3.org/2000/svg">
<path d="M196.794 73.574L194.084 72.7043C192.563 72.2161 191.39 70.9945 190.964 69.4548L188.972 62.2467C188.431 60.292 188.169 58.2461 188.438 56.236C188.47 55.9908 188.443 55.7324 188.345 55.4808C188.06 54.7545 187.244 54.3874 186.492 54.5953L181.351 56.0165C180.599 56.2245 180.087 56.9591 180.217 57.7286C180.261 57.9914 180.368 58.2242 180.519 58.4161C181.774 60.0134 182.613 61.8972 183.154 63.8551L185.147 71.0631C185.573 72.6028 185.194 74.2534 184.14 75.4536L182.261 77.5919C181.515 78.441 181.247 79.6087 181.548 80.698L189.876 110.82C190.37 112.605 192.217 113.652 194.001 113.158L204.991 110.12C206.776 109.626 207.822 107.78 207.329 105.995L199.001 75.8729C198.7 74.7836 197.87 73.9193 196.794 73.574Z" fill="#EAB308"/>
<path d="M45.4733 174.646L115.124 261.921L140.538 246.205L171.803 162.943L45.4733 174.646Z" fill="#C4F03B"/>
<path d="M9.02502 174.479L38.6847 261.921H115.058L144.718 174.479H9.02502Z" fill="#EAB308"/>
<path d="M144.049 175.148H9.95963L37.6302 163.026H171.719L144.049 175.148Z" fill="#2D5DDC"/>
<path d="M141.327 184.421L155.876 149.016C156.821 147.046 158.813 145.792 160.998 145.792H187.414C189.629 145.792 191.424 147.587 191.424 149.802C191.424 152.027 189.611 153.827 187.386 153.811L166.804 153.665C164.53 153.649 162.466 154.99 161.557 157.075L148.167 189.853" fill="#C4F03B"/>
<path d="M158.428 173.556L172.978 138.152C173.922 136.181 175.914 134.927 178.099 134.927H204.515C206.73 134.927 208.525 136.722 208.525 138.937C208.525 141.162 206.712 142.962 204.487 142.946L183.905 142.8C181.632 142.784 179.567 144.126 178.659 146.21L165.269 178.988" fill="#C4F03B"/>
<path d="M164.245 141.38C162.293 142.367 161.504 138.958 161.383 137.592C161.261 136.216 161.485 134.746 161.746 133.397C162.043 131.867 162.53 130.383 163.352 129.052C165.124 126.182 168.428 124.293 171.474 123.039C174.606 121.75 177.97 121.119 181.346 120.984C188.303 120.707 195.193 122.327 201.835 124.231C207.683 125.907 213.47 127.785 219.331 129.42C230.03 132.405 240.942 134.973 252.049 135.77C262.654 136.53 273.933 135.628 283.348 130.272C288.072 127.585 292.08 123.812 295.131 119.322C296.562 117.216 297.827 114.951 298.823 112.606C299.745 110.437 300.739 107.63 299.634 105.346C299.108 104.261 298.108 103.594 296.986 103.235C295.89 102.884 295.421 104.606 296.512 104.955C298.919 105.725 298.409 108.42 297.795 110.316C297.039 112.648 295.818 114.874 294.538 116.956C291.697 121.577 287.839 125.502 283.184 128.302C278.715 130.989 273.695 132.591 268.569 133.439C263.122 134.34 257.544 134.38 252.049 133.986C246.387 133.58 240.771 132.681 235.218 131.521C229.859 130.402 224.555 129.032 219.284 127.554C213.361 125.893 207.516 123.977 201.596 122.308C194.846 120.405 187.79 118.829 180.733 119.23C177.336 119.423 173.958 120.088 170.81 121.398C167.653 122.711 164.41 124.579 162.343 127.368C160.373 130.027 159.754 133.407 159.585 136.644C159.478 138.7 160.127 141.47 161.845 142.773C162.854 143.539 164.053 143.472 165.145 142.92C166.17 142.402 165.268 140.862 164.245 141.38Z" fill="#1A1A1A"/>
<path d="M164.565 135.531C164.365 138.137 164.164 140.743 163.964 143.349C163.837 144.994 163.711 146.639 163.584 148.284C163.499 149.392 163.298 150.527 163.847 151.561C165.333 154.352 169.656 153.579 170.08 150.451C169.496 150.372 168.912 150.293 168.328 150.214C168.261 151.902 169.402 153.405 171.084 153.701C172.844 154.011 174.456 152.855 174.897 151.163C174.313 151.084 173.729 151.004 173.145 150.925C173.267 153.076 175.246 154.724 177.409 154.098C179 153.636 179.694 152.245 179.834 150.713C180.04 148.444 180.247 146.175 180.454 143.906H178.671C178.57 145.218 178.469 146.53 178.369 147.843C178.307 148.652 178.244 149.462 178.182 150.271C178.142 150.798 178.07 151.297 178.227 151.816C178.952 154.204 182.518 155.311 184.417 153.706C185.332 152.933 185.584 151.898 185.616 150.749C185.637 150.018 185.694 149.294 186.055 148.641C186.772 147.344 188.389 147.049 189.746 147.021C191.634 146.983 193.511 147.388 195.32 147.892C199.839 149.153 204.034 151.314 208.277 153.271C214.398 156.096 220.597 158.823 227.14 160.521C233.677 162.218 240.482 163.096 247.226 163.347C260.716 163.848 274.369 161.6 286.878 156.484C289.02 155.608 291.085 154.619 293.332 154.032C295.157 153.556 297.032 153.272 298.921 153.271C302.053 153.27 305.705 154.146 307.053 157.317C307.884 159.272 307.7 161.573 307.239 163.593C306.601 166.394 305.115 168.907 303.426 171.198C301.632 173.632 299.55 175.84 297.523 178.079C295.344 180.486 293.299 183.008 291.163 185.453C281.65 196.338 271.309 206.453 261.216 216.789C251.403 226.839 241.825 237.157 233.453 248.457C225.411 259.311 218.487 271.181 214.483 284.145C213.424 287.573 212.572 291.065 211.948 294.599C211.415 297.612 211.272 300.694 210.685 303.693C210.166 306.342 208.975 308.393 206.443 309.531C204.104 310.582 201.184 311.04 198.705 310.237C197.443 309.827 196.219 308.935 195.714 307.669C195.479 307.081 195.437 306.391 195.837 305.868C196.172 305.431 196.771 305.096 197.303 305.377L197.122 303.976C191.024 310.449 181.28 307.784 174.131 304.951C172.203 304.187 170.262 303.436 168.36 302.61C166.788 301.928 165.18 301.142 163.927 299.95C160.972 297.141 161.906 292.997 164.656 290.403C168.663 286.625 175.557 287.993 179.02 283.388C180.03 282.044 180.246 280.494 180.644 278.923C180.896 277.924 181.205 276.94 181.53 275.963C183.839 269.017 186.916 262.302 190.145 255.744C194.989 245.903 200.456 236.357 206.532 227.225C213.375 216.941 221.024 207.144 229.751 198.385C238.338 189.767 248.053 182.09 259.065 176.811C264.119 174.388 269.468 172.436 274.903 171.065C279.78 169.836 285.109 168.949 290.103 169.996C294.565 170.932 298.09 173.69 299.65 178.038C300.734 181.062 300.911 184.273 300.838 187.457C300.741 191.666 300.287 195.858 299.628 200.013C297.072 216.124 291.459 232.281 294.52 248.739C295.325 253.072 296.73 257.272 298.624 261.249C300.289 264.744 302.356 268.326 305.802 270.327C308.29 271.771 311.07 272.794 313.378 274.535C315.508 276.142 316.331 278.36 315.854 280.988C315.548 282.672 315.035 284.494 313.792 285.73C312.672 286.843 310.944 287.607 309.413 286.889L309.822 287.896C309.948 287.368 310.074 286.84 310.2 286.312L308.57 286.525C310.254 289.015 309.395 292.567 308.55 295.204C307.609 298.141 306.203 301.12 304.271 303.543C301.778 306.668 297.662 308.774 293.618 308.396C291.74 308.22 290.081 307.335 289.269 305.584C288.584 304.105 288.537 302.388 288.462 300.789C288.382 299.092 288.34 297.354 287.884 295.705C287.368 293.836 286.192 292.295 284.863 290.916C283.344 289.342 281.632 287.965 280.061 286.446C278.548 284.982 277.105 283.448 275.734 281.851C270.268 275.484 265.962 268.086 263.092 260.202C259.877 251.37 258.453 241.933 259.177 232.55C259.265 231.405 257.481 231.411 257.393 232.55C256.027 250.262 262.219 268.165 273.413 281.848C274.804 283.549 276.276 285.184 277.824 286.744C279.442 288.374 281.198 289.848 282.855 291.436C284.382 292.9 285.785 294.491 286.269 296.596C286.669 298.334 286.62 300.14 286.738 301.909C286.852 303.598 287.074 305.344 287.915 306.844C288.905 308.612 290.688 309.73 292.667 310.058C297.102 310.793 301.66 308.853 304.742 305.695C307.274 303.101 308.977 299.505 310.127 296.112C311.206 292.927 312.151 288.641 310.11 285.625C309.703 285.023 308.668 285.047 308.48 285.838C308.354 286.366 308.228 286.894 308.102 287.422C308.017 287.778 308.152 288.26 308.512 288.429C311.933 290.033 315.549 287.512 316.772 284.276C317.835 281.462 318.4 278.063 316.647 275.397C315.129 273.089 312.51 271.801 310.123 270.586C308.663 269.843 307.106 269.157 305.776 268.192C304.103 266.978 302.852 265.266 301.816 263.502C297.336 255.881 295.339 246.98 295.391 238.193C295.441 229.739 297.202 221.43 298.917 213.19C300.685 204.703 302.422 196.153 302.622 187.457C302.751 181.859 301.95 175.576 297.517 171.638C293.877 168.404 288.833 167.605 284.119 167.814C278.462 168.065 272.883 169.567 267.563 171.427C255.815 175.534 245.304 182.067 235.914 190.191C226.2 198.594 217.759 208.407 210.228 218.786C203.287 228.352 197.103 238.472 191.61 248.935C187.595 256.582 183.866 264.434 180.855 272.535C180.06 274.671 179.26 276.848 178.773 279.08C178.602 279.867 178.495 280.662 178.148 281.4C177.593 282.582 176.639 283.439 175.507 284.058C173.064 285.395 170.201 285.731 167.604 286.669C164.413 287.82 161.725 290.114 160.648 293.419C159.44 297.123 161.257 300.5 164.362 302.535C165.888 303.535 167.595 304.23 169.283 304.907C171.433 305.77 173.57 306.672 175.744 307.474C179.792 308.967 184.099 310.107 188.449 309.704C192.164 309.359 195.787 307.993 198.383 305.238C198.762 304.836 198.726 304.114 198.203 303.837C197.053 303.229 195.738 303.485 194.796 304.368C193.752 305.346 193.527 306.822 193.994 308.143C194.945 310.838 197.756 312.141 200.422 312.37C203.066 312.596 205.922 311.932 208.227 310.623C210.606 309.271 211.854 306.896 212.382 304.284C213.017 301.143 213.155 297.909 213.725 294.751C214.372 291.167 215.254 287.626 216.348 284.152C218.473 277.41 221.417 270.953 224.884 264.8C231.824 252.485 240.776 241.387 250.257 230.95C260.227 219.975 270.908 209.68 281.156 198.971C286.298 193.597 291.333 188.118 296.102 182.41C299.95 177.805 304.621 173.662 307.387 168.255C309.349 164.418 310.616 158.836 307.796 155.068C305.567 152.089 301.57 151.351 298.06 151.507C296.073 151.596 294.087 151.946 292.178 152.499C289.69 153.22 287.371 154.402 284.962 155.338C278.461 157.865 271.669 159.629 264.769 160.64C257.845 161.654 250.797 161.878 243.819 161.377C236.855 160.877 229.876 159.696 223.236 157.51C216.526 155.301 210.186 152.162 203.771 149.237C200.173 147.596 196.461 146.043 192.522 145.455C189.185 144.957 184.675 145.233 183.952 149.341C183.811 150.147 184.028 151.251 183.595 151.966C182.854 153.19 181.114 152.698 180.287 151.834C179.831 151.357 179.913 150.969 179.958 150.383C180.022 149.536 180.087 148.689 180.152 147.843C180.253 146.53 180.354 145.218 180.454 143.906C180.543 142.756 178.774 142.774 178.671 143.906C178.508 145.685 178.346 147.464 178.184 149.243C178.128 149.855 178.125 150.502 178.014 151.107C177.677 152.934 175.034 152.788 174.928 150.925C174.873 149.954 173.44 149.675 173.176 150.688C172.677 152.608 170.034 152.173 170.112 150.214C170.151 149.232 168.497 148.969 168.36 149.977C168.066 152.149 165.154 151.895 165.259 149.706C165.299 148.857 165.389 148.008 165.454 147.161C165.69 144.092 165.926 141.024 166.162 137.956C166.225 137.148 166.287 136.339 166.349 135.531C166.437 134.386 164.653 134.392 164.565 135.531Z" fill="#1A1A1A"/>
<path d="M174.984 150.897C175.211 148.637 175.438 146.377 175.665 144.117C175.698 143.791 175.731 143.466 175.763 143.14C175.812 142.66 175.319 142.249 174.871 142.249C174.349 142.249 174.028 142.659 173.98 143.14C173.752 145.401 173.525 147.661 173.298 149.921C173.265 150.247 173.233 150.572 173.2 150.897C173.152 151.377 173.645 151.789 174.092 151.789C174.614 151.789 174.935 151.379 174.984 150.897Z" fill="#1A1A1A"/>
<path d="M170.105 150.539C170.332 148.278 170.559 146.018 170.786 143.758C170.819 143.432 170.852 143.107 170.884 142.782C170.933 142.302 170.44 141.89 169.993 141.89C169.47 141.89 169.149 142.3 169.101 142.782C168.874 145.042 168.646 147.302 168.419 149.562C168.387 149.888 168.354 150.213 168.321 150.539C168.273 151.019 168.766 151.43 169.213 151.43C169.735 151.43 170.057 151.02 170.105 150.539Z" fill="#1A1A1A"/>
<path d="M200.554 79.573C199.938 79.2226 199.664 78.7798 199.832 78.1052C200.024 77.334 200.521 76.6436 201.043 76.0591C202.411 74.5283 204.363 73.5695 206.257 72.851C208.662 71.9391 211.172 71.702 213.656 72.4491C215.857 73.1112 217.952 74.2216 219.842 75.5191C227.311 80.6485 231.15 89.1413 234.238 97.3397C237.034 104.762 240.398 112.807 247.428 117.176C251.524 119.722 256.891 121.003 261.634 119.85C266.268 118.723 269.746 115.223 272.561 111.563C275.662 107.532 278.123 102.928 282.059 99.6062C284.061 97.9163 286.449 97.359 288.906 96.6641C290.072 96.3346 291.368 95.9761 292.398 95.3212C293.273 94.7647 293.862 93.9023 294.519 93.1244C294.65 92.9697 294.783 92.8165 294.925 92.672C295.035 92.5609 295.285 92.4206 295.371 92.2952C295.426 92.2142 295.889 92.0997 295.189 92.0587C295.063 92.0513 294.719 92.2384 294.577 92.264C293.665 92.4288 292.618 92.3888 291.699 92.271C290.1 92.066 288.66 91.3014 287.656 90.0326C285.602 87.4378 285.378 83.6421 285.54 80.4747C285.565 79.9927 285.668 79.4712 285.54 78.9987C285.469 78.7334 285.328 78.4886 285.133 78.2931C284.952 78.1114 284.641 78.016 284.484 77.8289C284.374 77.6991 284.365 77.7583 284.448 77.548C284.533 77.3334 284.779 77.1642 284.951 77.0304C285.431 76.6567 285.888 76.3237 286.267 75.8404C287.027 74.8694 287.536 73.687 288.166 72.628C288.849 71.4792 289.546 70.3532 290.394 69.3167C291.827 67.5656 293.666 65.6596 295.927 65.0742C297.982 64.5419 300.259 64.7093 302.329 65.071C305.837 65.6838 310.921 67.3661 311.329 71.534C311.74 75.7418 309.542 79.7163 309.145 83.8432C308.945 85.9241 309.251 88.0276 310.253 89.8779C311.154 91.5393 312.532 92.8897 313.924 94.1402C315.639 95.6796 317.47 97.0501 318.622 99.0906C319.912 101.374 320.656 104 321.141 106.564C323.223 117.573 319.429 128.644 314.247 138.234C312.956 140.622 311.571 142.957 310.142 145.264C309.536 146.242 311.078 147.139 311.682 146.164C317.803 136.281 323.258 125.432 323.48 113.56C323.535 110.664 323.262 107.75 322.618 104.925C322.017 102.284 321.129 99.531 319.595 97.2733C317.232 93.7934 312.608 91.9411 311.261 87.7352C310.612 85.7111 310.865 83.5895 311.353 81.562C311.891 79.3306 312.59 77.1339 312.935 74.8597C313.251 72.7717 313.353 70.4676 312.235 68.583C311.039 66.5675 308.88 65.3222 306.767 64.4698C304.733 63.6493 302.558 63.2116 300.376 63.0412C298.154 62.8678 295.658 62.9362 293.67 64.0625C291.321 65.3939 289.399 67.4991 287.883 69.705C287.098 70.8462 286.369 72.0634 285.727 73.2899C285.458 73.8034 285.203 74.3496 284.83 74.7976C284.41 75.3013 283.813 75.5885 283.361 76.0547C282.446 76.9977 282.307 78.4844 283.462 79.2891C283.542 79.3446 283.625 79.3954 283.708 79.4455C283.874 79.5455 283.844 79.5824 283.819 79.5057C283.873 79.6691 283.786 79.973 283.775 80.1447C283.746 80.6139 283.728 81.0839 283.723 81.5541C283.703 83.43 283.869 85.3417 284.36 87.1569C284.827 88.8882 285.626 90.5889 286.912 91.8658C288.304 93.2498 290.151 93.9539 292.09 94.0913C293.151 94.1664 294.324 94.2066 295.356 93.9149C296.512 93.5881 297.492 92.3397 296.714 91.1696C295.933 89.9957 294.586 90.5231 293.766 91.3088C293.012 92.0326 292.495 93.0027 291.671 93.656C290.75 94.3866 289.358 94.6871 288.246 94.996C287.017 95.3374 285.771 95.6271 284.579 96.0905C281.95 97.1137 279.876 98.9817 278.049 101.092C274.634 105.039 272.21 109.749 268.57 113.514C266.936 115.204 265.044 116.724 262.84 117.597C260.137 118.667 257.182 118.676 254.369 118.059C250.122 117.127 246.468 114.837 243.645 111.548C240.917 108.368 239.032 104.511 237.445 100.662C235.697 96.4194 234.281 92.0558 232.214 87.9473C230.096 83.7394 227.417 79.7261 223.933 76.5227C222.192 74.9217 220.254 73.5188 218.157 72.4206C215.828 71.2002 213.286 70.2098 210.623 70.1983C207.903 70.1866 205.316 71.166 202.95 72.4342C201.206 73.3691 199.639 74.5824 198.65 76.3389C197.67 78.0782 197.795 80.056 199.654 81.1133C200.653 81.6819 201.552 80.1412 200.554 79.573Z" fill="#1A1A1A"/>
<path d="M221.85 124.254C218.182 119.164 215.147 113.674 213.175 107.707C212.059 104.331 210.127 98.9881 205.551 100.135C204.15 100.486 202.799 101.401 201.536 102.08C200.825 102.462 200.115 102.844 199.404 103.226C198.921 103.486 198.45 103.81 197.886 103.759C196.89 103.671 196.434 102.719 196.337 101.887C196.282 101.412 196.316 100.89 196.49 100.544C196.581 100.363 196.651 100.278 196.783 100.2C197.671 99.678 198.598 99.213 199.502 98.7209C202.047 97.3365 204.591 95.952 207.136 94.5676L207.305 94.4754C208.314 93.9263 207.416 92.39 206.405 92.9351C204.589 93.9141 202.773 94.893 200.958 95.872C200.335 96.2076 199.718 96.5526 199.094 96.887C198.532 97.1889 197.852 97.5287 197.34 97.7404C196.99 97.885 196.633 98.0154 196.271 98.1258C196.078 98.1846 195.883 98.2378 195.687 98.2829C195.591 98.3047 195.495 98.3249 195.399 98.3427C195.401 98.3423 195.111 98.3862 195.259 98.368C195.05 98.3937 194.838 98.4046 194.627 98.3968C194.57 98.3947 194.513 98.3913 194.455 98.3863C194.347 98.3752 194.343 98.3748 194.443 98.3853C194.389 98.3758 194.336 98.3645 194.283 98.3514C194.206 98.3281 194.129 98.3097 194.054 98.2815C194.232 98.3482 193.986 98.2389 193.949 98.2205C193.91 98.2008 193.773 98.0968 193.906 98.2027C193.823 98.1366 193.745 98.0584 193.679 97.976C193.803 98.1308 193.599 97.8278 193.607 97.8436C193.544 97.7215 193.55 97.736 193.513 97.6052C193.459 97.4206 193.451 97.2076 193.482 97.0217C193.551 96.615 193.789 96.2281 194.124 95.9888C194.485 95.7312 194.678 95.3054 194.489 94.8751C194.323 94.4985 193.86 94.2019 193.437 94.3587C192.626 94.6593 191.701 94.407 191.341 93.5578C191.021 92.8028 191.358 91.984 192.056 91.5816C193.056 91.0044 192.173 89.5208 191.155 90.0414C190.189 90.5355 188.983 89.8927 188.895 88.7902C188.838 88.0717 189.268 87.5564 189.866 87.2155C191.004 86.5672 192.143 85.9206 193.281 85.2731C194.92 84.3403 196.56 83.4075 198.2 82.4747C198.98 82.0309 199.75 81.5283 200.559 81.1372C201.94 80.4691 203.393 79.9227 204.803 79.3183C204.366 79.1406 203.93 78.9629 203.493 78.7852C203.912 80.0399 204.454 81.2648 205.031 82.4531C206.126 84.7057 207.473 86.9283 209.268 88.6943C210.3 89.7091 211.497 90.5464 212.873 91.0168C213.962 91.3888 214.429 89.6664 213.347 89.2967C212.406 88.9749 211.447 88.3081 210.675 87.5734C209.79 86.7312 209.102 85.8519 208.439 84.8542C207.797 83.8869 207.227 82.8726 206.709 81.8333C206.484 81.3807 206.269 80.9229 206.064 80.4608C206.023 80.3687 205.983 80.2765 205.943 80.1841C205.922 80.1365 205.806 79.8648 205.848 79.9629C205.893 80.0699 205.789 79.8213 205.777 79.7921C205.738 79.6972 205.699 79.602 205.661 79.5067C205.503 79.112 205.348 78.7145 205.213 78.311C205.014 77.7143 204.447 77.5447 203.903 77.778C202.515 78.3725 201.11 78.9361 199.737 79.5632C198.874 79.9576 198.058 80.503 197.233 80.972C194.433 82.565 191.613 84.1277 188.831 85.7519C187.329 86.6289 186.703 88.4603 187.419 90.0592C188.218 91.8437 190.369 92.4445 192.056 91.5816C191.755 91.0682 191.455 90.5548 191.155 90.0414C189.653 90.9085 189.038 92.7581 189.75 94.3449C190.448 95.9007 192.316 96.6699 193.911 96.0788C193.682 95.5355 193.453 94.9921 193.224 94.4487C192.284 95.1195 191.622 96.184 191.684 97.3731C191.737 98.3752 192.264 99.377 193.186 99.8348C194.81 100.642 196.769 99.9182 198.311 99.251C200.399 98.347 202.395 97.1227 204.396 96.0437C205.366 95.521 206.335 94.9981 207.305 94.4754C207.005 93.962 206.705 93.4486 206.405 92.9351C204.097 94.1906 201.79 95.4463 199.482 96.7017C198.357 97.3139 197.232 97.926 196.107 98.5382C194.447 99.4417 194.219 101.609 194.851 103.252C195.358 104.571 196.504 105.498 197.945 105.547C198.77 105.575 199.459 105.221 200.159 104.845C201.539 104.103 202.92 103.361 204.3 102.619C204.874 102.31 205.434 101.995 206.075 101.843C206.875 101.653 207.528 101.783 208.231 102.237C208.34 102.308 208.355 102.324 208.359 102.328C208.438 102.392 208.514 102.459 208.589 102.528C208.764 102.691 208.927 102.866 209.081 103.05C209.193 103.184 209.251 103.263 209.389 103.467C209.534 103.68 209.669 103.901 209.797 104.125C210.303 105.016 210.626 105.815 210.97 106.765C211.361 107.848 211.694 108.951 212.087 110.033C212.651 111.584 213.294 113.107 213.999 114.598C215.408 117.58 217.078 120.437 218.923 123.17C219.375 123.839 219.838 124.5 220.309 125.154C220.591 125.545 221.086 125.734 221.53 125.474C221.915 125.249 222.133 124.647 221.85 124.254Z" fill="#1A1A1A"/>
<path d="M194.213 96.0181C197.469 94.3003 200.725 92.5825 203.982 90.8647C204.438 90.624 204.895 90.3832 205.351 90.1425C206.367 89.6066 205.466 88.0665 204.451 88.6022C201.194 90.32 197.938 92.0378 194.682 93.7556C194.225 93.9964 193.769 94.2371 193.312 94.4779C192.297 95.0137 193.197 96.5539 194.213 96.0181Z" fill="#1A1A1A"/>
<path d="M191.973 91.5375C195.185 89.8816 198.398 88.2257 201.611 86.5698C202.059 86.339 202.507 86.1083 202.954 85.8775C203.975 85.3514 203.074 83.8117 202.054 84.3373C198.841 85.9932 195.628 87.6491 192.415 89.305C191.968 89.5358 191.52 89.7665 191.072 89.9973C190.052 90.5233 190.953 92.0631 191.973 91.5375Z" fill="#1A1A1A"/>
<path d="M326.623 81.4748C326.853 80.1857 326.946 78.9199 326.892 77.7536C326.732 74.2619 325.474 70.8909 323.746 67.8525C322.087 64.9342 319.948 62.2373 317.209 60.297C313.517 57.6826 310.027 57.8366 305.81 57.4546C301.431 57.058 297.155 58.822 293.256 60.8551C290.429 62.3293 288.872 65.7343 291.776 68.0908C293.488 69.4793 296.244 69.3375 297.804 67.7807C297.251 67.5971 296.619 67.9294 296.324 68.432C296.029 68.9346 296.015 69.5585 296.125 70.1309C296.318 71.137 296.932 72.0138 297.737 72.6316C298.682 73.3573 299.401 73.2695 300.479 73.4288C302.488 73.7254 301.797 78.3076 301.772 79.8897C301.728 78.0635 302.562 76.2359 303.971 75.0726C304.827 74.3655 305.965 73.8917 307.047 74.1417C308.34 74.4405 309.239 75.7536 309.318 77.0783C309.398 78.4029 308.781 79.6946 307.907 80.6932C303.323 85.929 308.859 92.1958 314.427 93.2269C321.169 94.4757 325.51 87.7026 326.623 81.4748Z" fill="#1A1A1A"/>
<path d="M327.483 81.7123C327.932 79.1322 327.861 76.5672 327.237 74.0211C326.643 71.6038 325.615 69.2892 324.367 67.142C322.075 63.2015 318.788 59.4332 314.404 57.8313C312.388 57.0948 310.227 56.9014 308.102 56.7426C306.964 56.6575 305.818 56.5179 304.677 56.5074C303.418 56.4959 302.152 56.6514 300.922 56.913C298.445 57.4394 296.084 58.4407 293.825 59.5655C291.984 60.4823 290.319 61.6218 289.592 63.6409C288.803 65.833 289.951 68.1899 291.944 69.2742C294.023 70.4051 296.732 70.0582 298.434 68.4118C298.916 67.9466 298.684 67.0908 298.041 66.9211C297.243 66.7102 296.388 66.9785 295.84 67.5977C295.28 68.2286 295.104 69.0936 295.199 69.9144C295.379 71.48 296.376 72.9838 297.783 73.7236C298.44 74.0691 299.13 74.166 299.858 74.2452C299.986 74.2591 300.116 74.2673 300.242 74.2891C300.314 74.3016 300.54 74.3789 300.36 74.2962C300.426 74.3264 300.613 74.4723 300.457 74.3356C300.509 74.3816 300.657 74.5569 300.546 74.4067C300.604 74.4853 300.648 74.5699 300.697 74.654C300.714 74.6829 300.77 74.8072 300.703 74.6503C300.718 74.6866 300.733 74.7247 300.745 74.7622C300.822 74.9942 300.883 75.2273 300.926 75.4683C300.934 75.5134 300.941 75.5587 300.948 75.604C300.971 75.7574 300.935 75.4882 300.953 75.6457C300.965 75.7575 300.976 75.8694 300.984 75.9816C301.005 76.2628 301.013 76.5448 301.015 76.8266C301.02 77.8506 300.901 78.8676 300.88 79.8901H302.664C302.643 78.0909 303.545 76.2478 305.142 75.346C305.862 74.9397 306.75 74.7857 307.459 75.2936C308.063 75.7259 308.417 76.4929 308.432 77.2257C308.473 79.2357 306.671 80.4255 305.922 82.1274C305.229 83.7015 305.128 85.4539 305.681 87.0898C306.801 90.41 309.941 92.9019 313.237 93.8605C314.869 94.3351 316.622 94.412 318.273 93.9807C319.826 93.5747 321.229 92.7273 322.411 91.6518C325.191 89.1207 326.82 85.3574 327.483 81.7123C327.569 81.2389 327.354 80.7507 326.86 80.6151C326.427 80.4962 325.85 80.7617 325.763 81.2381C325.19 84.3874 323.908 87.5851 321.647 89.9083C320.617 90.9667 319.375 91.8145 317.962 92.2163C316.449 92.6466 314.86 92.5255 313.357 92.0303C310.519 91.0957 307.522 88.6055 307.133 85.515C306.916 83.7891 307.672 82.4074 308.727 81.0976C310.049 79.4578 310.725 77.2389 309.713 75.2675C309.228 74.322 308.333 73.5258 307.284 73.282C306.101 73.0072 304.853 73.3605 303.869 74.0391C301.971 75.3483 300.853 77.5929 300.88 79.8901C300.894 81.0385 302.641 81.0388 302.664 79.8901C302.699 78.1466 303.004 76.3691 302.573 74.6474C302.352 73.7664 301.839 72.8955 300.922 72.617C300.399 72.4582 299.829 72.4936 299.295 72.3829C298.693 72.2582 298.221 71.9357 297.803 71.491C297.363 71.0224 297.039 70.4133 296.967 69.7683C296.926 69.4068 297.002 68.4919 297.567 68.6411L297.173 67.1504C296.055 68.2314 294.214 68.4789 292.845 67.7339C291.46 66.9809 290.788 65.526 291.312 64.1151C291.919 62.4829 293.542 61.6841 295.019 60.9604C297.055 59.9632 299.172 59.1056 301.396 58.633C302.423 58.4146 303.464 58.2935 304.516 58.2907C305.592 58.2879 306.669 58.4205 307.742 58.4996C309.604 58.6369 311.473 58.7792 313.269 59.3298C317.175 60.528 320.165 63.7718 322.281 67.1403C324.923 71.3468 326.633 76.2352 325.763 81.2381C325.68 81.7121 325.89 82.1989 326.386 82.3352C326.816 82.4533 327.4 82.1894 327.483 81.7123Z" fill="#1A1A1A"/>
<path d="M287.647 84.0235C288.216 84.0518 288.775 83.9022 289.31 83.7209C289.568 83.6334 289.826 83.5428 290.084 83.4535C290.218 83.4068 290.353 83.3602 290.488 83.3135C290.547 83.2931 290.605 83.2709 290.665 83.2526L290.72 83.2361C290.791 83.2201 290.794 83.2182 290.728 83.2305C290.644 83.1871 290.562 83.1813 290.497 83.0989C290.474 83.0341 290.47 83.0225 290.484 83.0642C290.492 83.0865 290.499 83.1093 290.504 83.1324C290.516 83.1805 290.525 83.2297 290.533 83.2788C290.511 83.1414 290.531 83.2924 290.533 83.3239C290.539 83.4357 290.531 83.5442 290.524 83.6555C290.519 83.6998 290.52 83.6894 290.528 83.6241C290.524 83.6493 290.519 83.6745 290.514 83.6995C290.502 83.7581 290.488 83.8161 290.472 83.8735C290.458 83.9228 290.44 83.9707 290.425 84.0196C290.388 84.1393 290.467 83.9443 290.406 84.0667C290.361 84.1586 290.313 84.2486 290.257 84.3347C290.236 84.3668 290.167 84.4617 290.231 84.3801C290.199 84.4203 290.165 84.4589 290.131 84.4965C290.05 84.5845 289.961 84.6633 289.866 84.7367C289.619 84.9285 289.65 85.3789 289.866 85.5776C290.128 85.8179 290.444 85.7822 290.707 85.5776C291.161 85.2254 291.488 84.694 291.632 84.1403C291.775 83.5902 291.813 82.7933 291.406 82.3401C290.875 81.7505 290.031 82.2155 289.426 82.4251C289.119 82.5313 288.813 82.643 288.5 82.7283C288.356 82.7675 288.209 82.8028 288.061 82.8247C288.114 82.8185 288.103 82.8194 288.029 82.8275C287.987 82.8315 287.945 82.8344 287.902 82.8363C287.817 82.8401 287.732 82.8384 287.647 82.8342C287.335 82.8187 287.038 83.1187 287.052 83.4288C287.067 83.7642 287.313 84.0069 287.647 84.0235Z" fill="#1A1A1A"/>
<path d="M289.439 83.8839C289.505 83.9262 289.569 83.9712 289.631 84.0188L289.51 83.9258C289.691 84.0662 289.853 84.2279 289.994 84.4083L289.901 84.288C289.992 84.4071 290.074 84.5329 290.145 84.6654C290.243 84.8479 290.455 84.9599 290.659 84.9599C290.766 84.9595 290.866 84.9325 290.959 84.8787C291.048 84.8258 291.119 84.7547 291.172 84.6654C291.308 84.4746 291.408 84.2498 291.47 84.0241C291.532 83.7968 291.56 83.5505 291.539 83.3152C291.524 83.1546 291.482 83.0123 291.365 82.8948C291.262 82.7916 291.092 82.714 290.944 82.7206C290.79 82.7275 290.631 82.778 290.524 82.8948C290.423 83.005 290.336 83.16 290.35 83.3152C290.36 83.4297 290.358 83.544 290.344 83.6581L290.365 83.5C290.345 83.6408 290.308 83.7773 290.254 83.9085L290.314 83.7664C290.268 83.872 290.212 83.9716 290.145 84.0651H291.172C290.907 83.5722 290.508 83.1586 290.039 82.8571C289.912 82.7757 289.723 82.7579 289.581 82.7971C289.443 82.8351 289.293 82.9418 289.225 83.0704C289.069 83.3654 289.159 83.7042 289.439 83.8839Z" fill="#1A1A1A"/>
<path d="M323.834 66.7191C328.455 65.4093 333.656 66.3274 337.549 69.1406C342.874 72.9877 344.383 78.7178 343.773 84.9052C343.13 91.4223 350.754 93.0646 351.847 99.2794C352.245 101.547 351.651 103.863 350.97 106.063C350.024 109.119 348.003 112.717 344.467 113.307C341.497 113.802 336.392 110.131 338.559 106.825C339.256 105.761 340.937 105.391 341.857 106.27C343.025 107.384 342.226 109.492 340.85 110.336C337.906 112.141 333.855 109.981 332.319 106.888C330.784 103.796 330.995 100.17 331.021 96.717C331.047 93.2644 330.744 89.523 328.479 86.9169C327.038 85.2589 324.922 84.2623 322.745 83.9692" fill="#1A1A1A"/>
<path d="M324.071 67.5793C328.305 66.4014 332.961 67.1434 336.621 69.5791C339.97 71.8081 342.088 75.2603 342.761 79.2024C343.099 81.1801 343 83.1486 342.861 85.1373C342.747 86.7714 343.173 88.3906 344.019 89.7877C345.616 92.4265 348.38 94.1967 349.941 96.7683C350.934 98.4034 351.251 100.261 350.991 102.21C350.822 103.475 350.461 104.721 350.076 105.935C349.806 106.783 349.475 107.605 349.058 108.392C348.243 109.928 347.082 111.43 345.429 112.114C345.24 112.193 345.043 112.255 344.845 112.31C344.725 112.344 344.603 112.374 344.48 112.4C344.483 112.399 344.075 112.465 344.295 112.439C343.972 112.478 343.508 112.45 343.328 112.417C342.537 112.274 341.88 112.005 341.206 111.596C340.585 111.22 339.954 110.692 339.557 110.145C339.116 109.537 338.937 109.04 338.932 108.393C338.93 108.208 339.022 107.829 339.136 107.607C339.308 107.273 339.497 107.027 339.835 106.851C340.384 106.565 341.12 106.564 341.423 107.156C341.534 107.374 341.555 107.672 341.503 107.946C341.429 108.332 341.253 108.702 341.011 109.011C340.525 109.632 339.717 109.98 338.98 110.076C337.25 110.299 335.506 109.37 334.316 108.158C332.822 106.637 332.228 104.479 332.018 102.407C331.778 100.039 331.965 97.6595 331.901 95.2856C331.84 93.0429 331.559 90.7761 330.648 88.7074C329.752 86.6741 328.155 85.0199 326.145 84.0671C325.139 83.5903 324.084 83.2654 322.982 83.1093C322.505 83.0418 322.024 83.226 321.884 83.7322C321.77 84.1502 322.027 84.7614 322.507 84.8294C324.778 85.1512 326.993 86.2053 328.308 88.147C329.611 90.07 329.992 92.4323 330.096 94.7089C330.316 99.5191 329.29 105.22 332.799 109.146C334.18 110.692 336.192 111.807 338.289 111.882C340.443 111.96 342.649 110.715 343.198 108.531C343.462 107.477 343.249 106.304 342.405 105.565C341.603 104.863 340.442 104.721 339.455 105.08C337.498 105.793 336.684 108.096 337.439 109.969C338.164 111.768 339.817 113.051 341.577 113.76C343.396 114.493 345.294 114.317 346.986 113.318C348.812 112.241 350.112 110.417 350.979 108.517C352 106.283 352.744 103.737 352.856 101.279C352.953 99.155 352.349 97.1006 351.148 95.353C350.178 93.9422 348.946 92.7574 347.754 91.5391C347.225 90.9977 346.58 90.3108 346.185 89.8003C345.95 89.4959 345.732 89.1766 345.534 88.8464C345.332 88.5079 345.137 88.1232 345.035 87.854C344.36 86.0808 344.797 84.2601 344.792 82.3427C344.781 77.9118 343.416 73.5503 340.287 70.3249C336.898 66.8316 331.975 64.9746 327.125 65.271C325.933 65.3439 324.747 65.5392 323.597 65.8592C322.492 66.1664 322.961 67.8879 324.071 67.5793Z" fill="#1A1A1A"/>
<path d="M114.498 261.822C113.72 264.423 112.943 267.025 112.165 269.626C110.812 274.154 109.459 278.681 108.106 283.209C107.657 284.712 107.208 286.215 106.759 287.718C106.283 289.31 105.702 290.829 104.665 292.16C102.593 294.82 99.3746 296.376 96.011 296.393C95.5362 296.395 95.0612 296.393 94.5864 296.393H46.7001C45.9725 296.393 45.2448 296.392 44.5171 296.393C44.1647 296.393 43.7997 296.255 43.8203 295.822C43.8402 295.405 44.5085 295.136 44.8097 294.947C48.1341 292.867 51.4522 290.776 54.7829 288.706C55.827 288.057 56.9412 287.824 58.1437 287.824H117.737C119.587 287.824 121.379 287.491 123.072 286.73C126.315 285.272 128.569 282.48 129.675 279.15C130.407 276.947 131.202 274.764 131.965 272.572C133.531 268.074 135.097 263.576 136.663 259.078C137.94 255.409 139.217 251.741 140.494 248.073C140.694 247.497 140.895 246.921 141.095 246.344C141.348 245.62 140.199 245.309 139.949 246.028C139.177 248.246 138.405 250.464 137.632 252.682C136.055 257.214 134.477 261.747 132.899 266.279C131.625 269.938 130.351 273.597 129.078 277.255C128.804 278.04 128.557 278.843 128.262 279.62C127.032 282.871 124.203 285.377 120.853 286.269C118.861 286.799 116.686 286.635 114.639 286.635H63.4192C61.548 286.635 59.6767 286.628 57.8055 286.635C56.867 286.638 55.9566 286.814 55.095 287.19C54.5313 287.437 54.0209 287.78 53.501 288.106C51.6481 289.265 49.7952 290.425 47.9424 291.584C46.4748 292.503 44.9947 293.404 43.5383 294.34C42.5499 294.976 42.2798 296.371 43.2498 297.182C43.6284 297.498 44.082 297.582 44.5556 297.582H91.3148C93.1672 297.582 95.0596 297.69 96.9095 297.547C100.445 297.273 103.692 295.462 105.801 292.616C106.827 291.231 107.418 289.664 107.906 288.034C109.023 284.295 110.14 280.556 111.258 276.816C112.509 272.631 113.76 268.445 115.01 264.26C115.222 263.553 115.433 262.845 115.645 262.138C115.864 261.403 114.717 261.089 114.498 261.822Z" fill="#2D5DDC"/>
<path d="M97.9699 309.562C100.692 309.562 102.899 307.355 102.899 304.633C102.899 301.91 100.692 299.704 97.9699 299.704C95.2476 299.704 93.0407 301.91 93.0407 304.633C93.0407 307.355 95.2476 309.562 97.9699 309.562Z" fill="#2D5DDC"/>
<path d="M54.5125 309.562C57.2348 309.562 59.4417 307.355 59.4417 304.633C59.4417 301.91 57.2348 299.704 54.5125 299.704C51.7901 299.704 49.5833 301.91 49.5833 304.633C49.5833 307.355 51.7901 309.562 54.5125 309.562Z" fill="#2D5DDC"/>
<path d="M116.882 299.704C119.604 299.704 121.811 297.497 121.811 294.774C121.811 292.052 119.604 289.845 116.882 289.845C114.16 289.845 111.953 292.052 111.953 294.774C111.953 297.497 114.16 299.704 116.882 299.704Z" fill="#2D5DDC"/>
<path d="M73.4246 299.704C76.1469 299.704 78.3538 297.497 78.3538 294.774C78.3538 292.052 76.1469 289.845 73.4246 289.845C70.7022 289.845 68.4954 292.052 68.4954 294.774C68.4954 297.497 70.7022 299.704 73.4246 299.704Z" fill="#2D5DDC"/>
<path d="M39.3087 198.987C43.4389 205.35 47.6754 211.645 52.0182 217.865C56.3611 224.085 60.8095 230.232 65.3607 236.302C67.9328 239.732 70.5386 243.137 73.1745 246.518C73.4709 246.899 74.1248 246.829 74.4358 246.518C74.8112 246.143 74.733 245.638 74.4358 245.257C69.8009 239.311 65.268 233.285 60.8373 227.185C56.4127 221.094 52.0908 214.928 47.8738 208.691C45.4987 205.179 43.1574 201.643 40.8489 198.086C40.2261 197.127 38.6812 198.02 39.3087 198.987Z" fill="white"/>
<path d="M56.5431 198.786C61.0523 204.499 65.451 210.299 69.7368 216.182C74.0505 222.103 78.2502 228.107 82.3327 234.19C84.6221 237.601 86.8741 241.037 89.0898 244.496C89.7071 245.46 91.2517 244.567 90.6301 243.596C86.6635 237.403 82.579 231.286 78.3769 225.25C74.1747 219.214 69.8559 213.26 65.4237 207.391C62.9194 204.075 60.3789 200.786 57.8044 197.524C57.5058 197.146 56.8556 197.212 56.5431 197.524C56.1694 197.898 56.2436 198.406 56.5431 198.786Z" fill="white"/>
<path d="M49.8987 228.992C52.68 227.048 55.5143 225.179 58.3448 223.308C62.5219 220.547 66.7154 217.811 70.9155 215.085C75.6045 212.042 80.303 209.014 85.0105 205.999C89.3472 203.222 93.691 200.456 98.05 197.714C101.126 195.779 104.204 193.844 107.322 191.977C107.574 191.827 107.825 191.677 108.077 191.528C109.065 190.946 108.169 189.403 107.177 189.988C104.255 191.712 101.38 193.52 98.506 195.322C94.2642 197.982 90.0387 200.669 85.8201 203.365C81.1102 206.376 76.4098 209.401 71.7184 212.441C67.3964 215.241 63.0813 218.052 58.7813 220.886C55.7468 222.885 52.7118 224.887 49.7201 226.95C49.479 227.117 49.2384 227.284 48.9984 227.451C48.6041 227.727 48.4212 228.232 48.6784 228.672C48.9067 229.062 49.5019 229.269 49.8987 228.992Z" fill="white"/>
<path d="M56.3533 239.749C59.387 237.828 62.4109 235.891 65.4331 233.952C69.3964 231.41 73.3549 228.859 77.311 226.306C81.5865 223.546 85.8589 220.781 90.1283 218.011C94.1363 215.411 98.1417 212.808 102.143 210.197C105.299 208.137 108.454 206.074 111.599 203.997C111.9 203.798 112.202 203.598 112.504 203.398C113.456 202.767 112.564 201.222 111.603 201.858C108.609 203.841 105.605 205.807 102.599 207.771C98.6564 210.346 94.7092 212.914 90.7595 215.477C86.4909 218.248 82.2191 221.014 77.9444 223.775C73.9313 226.367 69.9158 228.955 65.896 231.537C62.7246 233.574 59.5514 235.608 56.3693 237.628C56.064 237.822 55.7585 238.015 55.4529 238.209C54.4856 238.821 55.3796 240.365 56.3533 239.749Z" fill="white"/>
<path d="M131.858 184.458C133.29 184.465 134.723 184.472 136.156 184.478L135.264 183.587C135.011 185.957 134.295 188.28 133.195 190.393C132.972 190.82 133.085 191.362 133.515 191.614C133.916 191.848 134.512 191.722 134.735 191.294C135.99 188.883 136.759 186.287 137.048 183.587C137.099 183.105 136.597 182.697 136.156 182.695C134.723 182.688 133.29 182.681 131.858 182.674C130.71 182.669 130.708 184.453 131.858 184.458Z" fill="white"/>
<path d="M19.0561 192.557C18.9704 192.408 18.8894 192.257 18.8154 192.102C18.8045 192.079 18.6955 191.833 18.7403 191.94C18.7852 192.048 18.6858 191.797 18.6772 191.773C18.5632 191.463 18.4736 191.143 18.4089 190.819C18.3921 190.735 18.3782 190.65 18.3636 190.566C18.3216 190.324 18.3798 190.756 18.3562 190.511C18.3397 190.34 18.3251 190.17 18.3199 189.998C18.3148 189.827 18.3164 189.655 18.3254 189.484C18.3292 189.41 18.3343 189.337 18.3407 189.264C18.3444 189.221 18.385 188.902 18.3517 189.136C17.986 189.344 17.6203 189.551 17.2546 189.759C18.4289 190.244 19.8254 190.104 20.918 189.476C21.3227 189.244 21.4977 188.659 21.238 188.256C20.9746 187.847 20.4507 187.687 20.0177 187.936C19.9238 187.99 19.811 188.07 19.7058 188.097C19.9102 188.045 19.6967 188.097 19.6579 188.111C19.6137 188.126 19.5691 188.141 19.5243 188.154C19.4122 188.188 19.2983 188.216 19.1833 188.238C19.1488 188.244 19.1142 188.25 19.0795 188.256C19.0122 188.266 19.0332 188.263 19.1424 188.247C19.094 188.266 19.0182 188.258 18.9673 188.261C18.8502 188.267 18.7331 188.267 18.616 188.262C18.5575 188.259 18.4993 188.254 18.4408 188.249C18.2666 188.235 18.5433 188.274 18.4345 188.247C18.1928 188.187 17.9603 188.134 17.7288 188.039C17.3211 187.87 16.6936 188.225 16.6316 188.662C16.3954 190.326 16.6713 191.992 17.5159 193.457C17.749 193.861 18.3329 194.037 18.7361 193.777C19.1441 193.514 19.3056 192.989 19.0561 192.557Z" fill="white"/>
<path d="M103.198 203.753C106.728 208.367 110.258 212.982 113.788 217.597C114.08 217.979 114.556 218.181 115.009 217.917C115.385 217.697 115.623 217.081 115.329 216.696C111.798 212.082 108.268 207.467 104.738 202.853C104.446 202.471 103.97 202.268 103.518 202.533C103.142 202.752 102.903 203.368 103.198 203.753Z" fill="white"/>
<path d="M109.737 215.533C111.883 213.529 114.03 211.526 116.176 209.523C116.528 209.194 116.508 208.594 116.176 208.262C115.825 207.911 115.268 207.932 114.914 208.262C112.768 210.265 110.622 212.268 108.476 214.271C108.123 214.6 108.143 215.2 108.476 215.533C108.827 215.884 109.384 215.862 109.737 215.533Z" fill="white"/>
<path d="M290.132 73.4031C290.159 73.3905 290.186 73.3784 290.213 73.3666C290.138 73.3978 290.132 73.4013 290.193 73.377C290.249 73.3586 290.304 73.3375 290.36 73.3204C290.473 73.2862 290.588 73.2636 290.703 73.2399C290.77 73.2295 290.761 73.2302 290.676 73.242C290.705 73.2385 290.735 73.2354 290.764 73.2327C290.822 73.2273 290.881 73.2237 290.94 73.2219C291.05 73.2185 291.161 73.2215 291.271 73.2305C291.314 73.234 291.467 73.2236 291.31 73.232C291.364 73.2291 291.431 73.2524 291.484 73.2635C291.599 73.288 291.712 73.3194 291.824 73.3577C291.853 73.3678 292.042 73.4291 291.887 73.3775C291.941 73.3957 291.995 73.4267 292.046 73.4529C292.151 73.5067 292.251 73.5678 292.349 73.6341C292.607 73.8097 293.019 73.6913 293.162 73.4208C293.322 73.1194 293.224 72.7947 292.949 72.6073C291.942 71.9212 290.623 71.8705 289.532 72.3763C289.249 72.5075 289.156 72.9375 289.319 73.1898C289.507 73.4814 289.83 73.5435 290.132 73.4031Z" fill="#1A1A1A"/>
<path d="M290.367 75.2133C290.275 75.2862 290.202 75.3841 290.138 75.481C290.075 75.5762 290.03 75.687 289.997 75.7953C289.928 76.0212 289.932 76.2667 289.984 76.4953C290.009 76.6059 290.056 76.7154 290.109 76.8146C290.161 76.9136 290.234 77.0072 290.312 77.0863C290.494 77.2688 290.731 77.3834 290.984 77.4174C291.122 77.436 291.235 77.4333 291.376 77.4019C291.4 77.3964 291.424 77.3881 291.447 77.3788C291.515 77.3517 291.588 77.3266 291.65 77.2862C291.817 77.1769 291.967 77.025 292.054 76.8424C292.151 76.6387 292.202 76.4502 292.214 76.2236C292.222 76.0618 292.201 75.8878 292.144 75.7357C292.081 75.5689 292.02 75.4606 291.908 75.3247C291.883 75.2946 291.856 75.2668 291.826 75.2416C291.753 75.1803 291.676 75.1145 291.589 75.0722C291.508 75.0329 291.418 74.9901 291.328 74.9712C291.235 74.9519 291.134 74.9341 291.039 74.941C290.845 74.9549 290.646 75.0022 290.487 75.1203C290.418 75.1577 290.362 75.2088 290.32 75.2735C290.268 75.3309 290.232 75.3983 290.214 75.4757C290.175 75.618 290.192 75.8075 290.274 75.9339C290.356 76.0608 290.478 76.1726 290.629 76.2071C290.775 76.2403 290.962 76.2409 291.087 76.1472C291.121 76.1222 291.156 76.1015 291.194 76.0844L291.052 76.1443C291.088 76.1294 291.125 76.1189 291.164 76.1125L291.006 76.1337C291.05 76.128 291.093 76.128 291.137 76.1334L290.979 76.1122C291.023 76.1192 291.066 76.1312 291.107 76.1483L290.965 76.0883C291.008 76.1074 291.047 76.1307 291.085 76.1585L290.964 76.0656C291.002 76.0953 291.037 76.128 291.067 76.1655L290.974 76.0452C291.004 76.0849 291.029 76.1278 291.049 76.1737L290.989 76.0316C291.014 76.0931 291.031 76.1572 291.04 76.2232L291.019 76.0651C291.028 76.1405 291.028 76.2161 291.018 76.2915L291.04 76.1334C291.029 76.2076 291.011 76.2799 290.983 76.3493L291.043 76.2073C291.019 76.263 290.99 76.3154 290.953 76.3634L291.046 76.2431C291.021 76.2749 290.993 76.3036 290.961 76.3291L291.081 76.2361C291.053 76.2584 291.022 76.277 290.989 76.2919L291.131 76.232C291.096 76.2464 291.061 76.2561 291.024 76.2613L291.183 76.2401C291.143 76.2448 291.103 76.244 291.063 76.2388L291.221 76.26C291.171 76.2522 291.124 76.2378 291.077 76.2185L291.219 76.2784C291.174 76.2585 291.132 76.234 291.092 76.2042L291.212 76.2971C291.171 76.2646 291.135 76.228 291.102 76.1867L291.195 76.307C291.161 76.2618 291.133 76.2133 291.111 76.1614L291.171 76.3034C291.145 76.2425 291.128 76.1797 291.119 76.1144L291.14 76.2725C291.132 76.2067 291.131 76.1413 291.139 76.0754L291.118 76.2335C291.127 76.1679 291.143 76.1047 291.169 76.0435L291.109 76.1855C291.132 76.1328 291.16 76.0838 291.196 76.0382L291.103 76.1586C291.134 76.1197 291.169 76.0852 291.208 76.0542C291.319 75.966 291.382 75.7688 291.382 75.6338C291.382 75.4879 291.317 75.3137 291.208 75.2133C291.095 75.1093 290.946 75.032 290.787 75.0392L290.629 75.0604C290.529 75.0887 290.441 75.1397 290.367 75.2133Z" fill="#1A1A1A"/>
<path d="M44.8556 148.526C45.2651 149.448 45.6747 150.369 46.0842 151.291C46.1692 151.482 46.4246 151.647 46.6172 151.7C46.8307 151.759 47.115 151.733 47.3045 151.61C47.4949 151.488 47.6626 151.305 47.7144 151.077C47.7709 150.829 47.7271 150.621 47.6245 150.39C47.2149 149.469 46.8054 148.547 46.3959 147.626C46.3109 147.435 46.0555 147.269 45.8628 147.216C45.6494 147.157 45.3651 147.184 45.1756 147.306C44.9851 147.429 44.8175 147.612 44.7657 147.839C44.7092 148.087 44.753 148.295 44.8556 148.526Z" fill="#C4F03B"/>
<path d="M61.3515 145.382C61.0486 146.768 60.9251 148.195 61.0125 149.612C61.0411 150.077 61.4022 150.526 61.9044 150.504C62.363 150.483 62.827 150.111 62.7962 149.612C62.7558 148.956 62.7575 148.298 62.8062 147.643C62.8185 147.476 62.8338 147.309 62.8521 147.143C62.8605 147.067 62.8652 146.988 62.8792 146.913C62.8496 147.072 62.8789 146.914 62.8894 146.844C62.9386 146.512 63.0001 146.183 63.0716 145.856C63.1709 145.401 62.9355 144.87 62.4486 144.759C61.9983 144.656 61.458 144.894 61.3515 145.382Z" fill="#C4F03B"/>
<path d="M27.5743 156.307L29.4171 156.614C29.5357 156.652 29.6542 156.657 29.7728 156.63C29.8915 156.625 30.002 156.59 30.1044 156.525C30.2894 156.416 30.4659 156.204 30.5143 155.992C30.5663 155.763 30.555 155.507 30.4244 155.304C30.306 155.121 30.1161 154.932 29.8913 154.894L28.0485 154.587C27.9299 154.55 27.8114 154.545 27.6928 154.571C27.5741 154.577 27.4636 154.612 27.3612 154.677C27.1762 154.785 26.9997 154.998 26.9513 155.21C26.8993 155.438 26.9106 155.695 27.0413 155.897C27.1596 156.081 27.3495 156.27 27.5743 156.307Z" fill="#C4F03B"/>
<path d="M120.204 154.817C122.396 153.99 124.705 153.548 127.05 153.555C128.09 153.558 129.15 153.614 130.165 153.851C131.001 154.047 131.928 154.386 132.461 155.102C132.85 155.625 133.013 156.382 132.794 156.966C132.747 157.089 132.506 157.559 132.273 157.531C132.103 157.51 132.062 157.154 132.076 157.013C132.165 156.094 133.272 155.689 134.019 155.492C135.127 155.2 136.276 155.021 137.415 154.905C140.125 154.63 142.867 154.752 145.538 155.285C146.01 155.38 146.501 155.15 146.635 154.662C146.756 154.223 146.487 153.66 146.012 153.565C143.044 152.972 139.997 152.816 136.989 153.168C135.562 153.335 134.03 153.51 132.69 154.057C131.427 154.572 130.301 155.648 130.292 157.101C130.283 158.508 131.606 159.747 133.01 159.155C134.15 158.674 134.749 157.39 134.663 156.195C134.573 154.957 133.966 153.902 132.979 153.162C131.934 152.379 130.638 152.079 129.366 151.917C126.135 151.505 122.772 151.949 119.73 153.097C119.279 153.267 118.971 153.699 119.107 154.194C119.226 154.626 119.751 154.988 120.204 154.817Z" fill="#C4F03B"/>
<path d="M169.388 53.1847C169.695 53.4918 170.003 53.799 170.31 54.1061C170.391 54.1931 170.486 54.2546 170.597 54.2905C170.703 54.3464 170.818 54.372 170.94 54.3673C171.063 54.372 171.178 54.3464 171.284 54.2905C171.395 54.2546 171.49 54.1931 171.571 54.1061C171.727 53.9362 171.843 53.713 171.832 53.4755L171.8 53.2384C171.758 53.0873 171.682 52.9561 171.571 52.8448C171.264 52.5376 170.957 52.2305 170.65 51.9234C170.569 51.8364 170.473 51.7749 170.363 51.739C170.256 51.6831 170.142 51.6575 170.019 51.6622C169.896 51.6575 169.782 51.6831 169.675 51.739C169.565 51.7749 169.469 51.8364 169.388 51.9234C169.232 52.0933 169.116 52.3165 169.127 52.554L169.159 52.7911C169.201 52.9422 169.278 53.0734 169.388 53.1847Z" fill="#2D5DDC"/>
<path d="M167.869 64.196C169.513 64.0465 171.138 63.7373 172.713 63.2427C173.158 63.1033 173.488 62.6153 173.336 62.1456C173.192 61.699 172.716 61.3731 172.239 61.5227C171.504 61.7533 170.758 61.9474 170.003 62.1C169.633 62.1748 169.261 62.24 168.887 62.2953C168.853 62.3004 168.56 62.3403 168.736 62.3175C168.649 62.3287 168.563 62.3394 168.476 62.3496C168.274 62.3733 168.072 62.3938 167.869 62.4122C167.406 62.4544 166.954 62.7923 166.977 63.3041C166.997 63.7511 167.371 64.2413 167.869 64.196Z" fill="#2D5DDC"/>
<path d="M178.341 49.483V52.2473C178.341 52.7138 178.752 53.1607 179.233 53.1391C179.717 53.1175 180.125 52.7472 180.125 52.2473V49.483C180.125 49.0164 179.715 48.5695 179.233 48.5911C178.75 48.6127 178.341 48.983 178.341 49.483Z" fill="#2D5DDC"/>
</svg>
