<svg width="361" height="361" viewBox="0 0 361 361" fill="none" xmlns="http://www.w3.org/2000/svg">
<path d="M140.708 137.386C166.12 137.386 186.721 116.785 186.721 91.373C186.721 65.9606 166.12 45.3599 140.708 45.3599C115.295 45.3599 94.6946 65.9606 94.6946 91.373C94.6946 116.785 115.295 137.386 140.708 137.386Z" fill="#C4F03B"/>
<path d="M148.584 134.532C173.996 134.532 194.597 113.931 194.597 88.5185C194.597 63.1062 173.996 42.5054 148.584 42.5054C123.172 42.5054 102.571 63.1062 102.571 88.5185C102.571 113.931 123.172 134.532 148.584 134.532Z" fill="#EAB308"/>
<path d="M148.584 127.571C170.152 127.571 187.636 110.086 187.636 88.5185C187.636 66.9506 170.152 49.4663 148.584 49.4663C127.016 49.4663 109.532 66.9506 109.532 88.5185C109.532 110.086 127.016 127.571 148.584 127.571Z" fill="white"/>
<path d="M289.497 48.2841C289.498 48.2853 289.54 48.3916 289.519 48.3308C289.497 48.2688 289.532 48.381 289.532 48.3808C289.533 48.3853 289.555 48.4978 289.546 48.4259C289.537 48.3541 289.544 48.4683 289.544 48.473C289.544 48.4523 289.576 48.3697 289.546 48.4373C289.537 48.4565 289.487 48.5712 289.529 48.4966C289.569 48.4242 289.402 48.6374 289.506 48.5297C289.462 48.5757 289.418 48.6213 289.371 48.6649C289.278 48.7512 289.423 48.6397 289.309 48.7101C289.184 48.7875 289.059 48.8584 288.925 48.9198C288.851 48.9539 288.926 48.9199 288.939 48.9147C288.897 48.9315 288.855 48.9476 288.812 48.9632C288.749 48.9867 288.684 49.0089 288.62 49.0305C288.479 49.0774 288.337 49.1201 288.196 49.1636C287.875 49.2621 287.56 49.371 287.253 49.5068C286.614 49.7892 286.015 50.358 286.059 51.113C286.108 51.962 286.872 52.3407 287.585 52.5757C288.348 52.8272 289.15 52.8535 289.938 52.727C290.304 52.6681 290.541 52.1923 290.432 51.8562C290.303 51.4585 289.954 51.2986 289.561 51.3618C289.475 51.3752 289.465 51.377 289.533 51.3672C289.485 51.3727 289.437 51.3773 289.388 51.3811C289.292 51.3887 289.195 51.3927 289.097 51.3934C289 51.394 288.903 51.3913 288.807 51.385C288.781 51.3834 288.512 51.3535 288.633 51.3713C288.465 51.3467 288.298 51.3097 288.135 51.2638C288.042 51.2375 287.949 51.2079 287.858 51.1751C287.812 51.1587 287.767 51.1414 287.722 51.1234C287.779 51.1479 287.769 51.1429 287.691 51.1081C287.622 51.0743 287.552 51.0421 287.486 51.0028C287.459 50.9873 287.432 50.9705 287.406 50.9524C287.467 50.9999 287.468 50.9962 287.409 50.9416C287.444 50.9899 287.488 51.1851 287.472 51.0523C287.454 51.1389 287.455 51.141 287.473 51.0588C287.498 50.981 287.498 50.9801 287.471 51.0563C287.513 50.9914 287.514 50.9864 287.472 51.0412C287.502 51.0079 287.533 50.9765 287.566 50.9469C287.478 51.0303 287.62 50.9099 287.638 50.8987C287.714 50.851 287.795 50.813 287.875 50.7714C287.951 50.7373 287.957 50.7337 287.893 50.7607C287.935 50.7435 287.977 50.727 288.02 50.7111C288.688 50.4602 289.419 50.3334 290.024 49.9325C290.394 49.6871 290.697 49.3754 290.86 48.9582C291.047 48.4823 290.929 48.0138 290.72 47.5695C290.561 47.2337 290.053 47.1209 289.751 47.3155C289.406 47.5382 289.328 47.9249 289.497 48.2841Z" fill="#1A1A1A"/>
<path d="M171.214 120.186C174.114 118.827 177.014 117.469 179.914 116.11C180.329 115.916 180.744 115.721 181.159 115.527C181.679 115.284 181.811 114.537 181.54 114.074C181.229 113.542 180.609 113.449 180.088 113.693C177.188 115.052 174.288 116.41 171.388 117.769C170.973 117.963 170.557 118.158 170.142 118.352C169.623 118.596 169.49 119.342 169.761 119.805C170.072 120.337 170.693 120.43 171.214 120.186Z" fill="#1A1A1A"/>
<path d="M173.238 125.107C176.138 123.748 179.038 122.39 181.938 121.031C182.353 120.837 182.769 120.642 183.184 120.448C183.703 120.204 183.836 119.458 183.565 118.995C183.254 118.463 182.633 118.37 182.112 118.614C179.212 119.972 176.312 121.331 173.412 122.689C172.997 122.884 172.582 123.079 172.166 123.273C171.647 123.516 171.515 124.263 171.785 124.726C172.097 125.258 172.717 125.351 173.238 125.107Z" fill="#1A1A1A"/>
<path d="M175.339 129.807C178.239 128.448 181.139 127.09 184.039 125.731C184.454 125.537 184.87 125.342 185.285 125.147C185.804 124.904 185.937 124.158 185.666 123.695C185.355 123.162 184.734 123.07 184.213 123.314C181.313 124.672 178.413 126.031 175.513 127.389C175.098 127.584 174.683 127.778 174.267 127.973C173.748 128.216 173.616 128.963 173.887 129.426C174.198 129.958 174.818 130.051 175.339 129.807Z" fill="#1A1A1A"/>
<path d="M291.054 63.8525C291.054 63.8525 294.961 64.6741 298.602 63.3623C296.687 65.6939 292.864 67.2921 291.654 67.1269C293.635 64.1895 291.094 63.9297 291.054 63.8525Z" fill="#1A1A1A"/>
<path d="M290.772 64.8761C293.401 65.4233 296.357 65.2779 298.884 64.386C298.54 63.7944 298.195 63.2028 297.851 62.6112C297.606 62.9049 297.343 63.181 297.062 63.4402C296.931 63.5609 296.797 63.678 296.659 63.7916C296.577 63.8602 296.493 63.9286 296.408 63.9942C296.517 63.9099 296.359 64.0284 296.321 64.0562C295.707 64.5053 295.052 64.8995 294.373 65.2411C294.224 65.3159 294.074 65.3881 293.922 65.4575C293.834 65.4978 293.746 65.537 293.657 65.5756C293.795 65.5156 293.685 65.5641 293.608 65.5946C293.327 65.7053 293.044 65.8088 292.755 65.8953C292.592 65.9443 292.158 66.1355 291.993 66.0759C292.033 66.0906 292.262 66.0542 292.069 66.0646C292.023 66.0671 291.978 66.0727 291.933 66.0745C291.84 66.0781 291.747 66.0757 291.654 66.0648L292.571 67.6626C293.303 66.5576 293.916 65.0299 293.004 63.8443C292.756 63.5212 292.435 63.2682 292.063 63.1003C291.89 63.022 291.714 62.9506 291.532 62.8937C291.492 62.8812 291.452 62.8675 291.411 62.8579C291.399 62.855 291.386 62.8476 291.373 62.8461C291.455 62.8559 291.724 63.0111 291.805 63.1014C291.421 62.6751 290.694 62.7108 290.303 63.1014C289.879 63.5253 289.918 64.1757 290.303 64.6031C290.501 64.8224 290.787 64.8791 291.051 64.9683C291.099 64.9842 291.146 65.0075 291.194 65.0203C291.088 64.992 290.964 64.9016 291.132 64.9996C291.188 65.0327 291.251 65.0778 291.31 65.1043C291.425 65.1557 291.207 65.0396 291.2 65.0148C291.207 65.0388 291.265 65.0686 291.283 65.0872C291.302 65.1083 291.324 65.1325 291.346 65.1511C291.485 65.2693 291.206 65.0833 291.281 65.0613C291.299 65.0558 291.448 65.3779 291.343 65.1465C291.237 64.9145 291.387 65.274 291.364 65.2717C291.334 65.2686 291.359 64.9971 291.345 65.1627C291.341 65.214 291.344 65.2689 291.344 65.3205C291.344 65.3585 291.317 65.5076 291.345 65.3501C291.378 65.1707 291.331 65.3922 291.321 65.4291C291.308 65.4822 291.293 65.535 291.276 65.5873C291.277 65.5856 291.19 65.8341 291.236 65.7157C291.278 65.6078 291.198 65.7975 291.189 65.8158C291.15 65.8977 291.108 65.9786 291.064 66.0582C290.964 66.241 290.853 66.417 290.737 66.5908C290.531 66.9023 290.554 67.349 290.737 67.6627C290.943 68.0146 291.27 68.1434 291.654 68.1886C292.177 68.25 292.744 68.1099 293.244 67.9655C293.971 67.7556 294.677 67.4542 295.354 67.1201C296.84 66.387 298.286 65.3926 299.352 64.113C299.658 63.7462 299.772 63.2596 299.518 62.8262C299.293 62.4408 298.758 62.1833 298.319 62.3382C296.716 62.904 295.158 63.0864 293.463 63.0373C292.9 63.021 292.344 62.9672 291.785 62.9067C291.644 62.8914 292.039 62.9451 291.857 62.9159C291.814 62.909 291.77 62.9032 291.727 62.8965C291.658 62.8858 291.589 62.8747 291.52 62.8626C291.459 62.8519 291.397 62.8411 291.336 62.8284C290.775 62.7116 290.189 62.9924 290.03 63.57C289.885 64.0965 290.208 64.7587 290.772 64.8761Z" fill="#1A1A1A"/>
<path d="M310.376 60.7583C309.539 63.8906 308.118 66.8761 306.512 69.6707C303.065 75.6685 298.069 81.4296 295.419 87.8207C292.952 93.769 298.613 99.2626 304.549 97.501C307.354 96.6683 309.656 94.6324 311.504 92.3633C316.194 86.6053 318.354 79.337 319.748 72.1633C321.16 64.899 323.374 57.5983 323.586 50.1567C323.773 43.6428 322.417 36.9394 318.785 31.529C315.153 26.1186 309.043 22.1821 302.527 22.0948C299.218 22.0505 295.957 22.9663 292.91 24.2586C290.273 25.3771 287.694 26.8338 285.878 29.0485C281.722 34.1139 283.766 41.5628 290.786 41.8152C294.156 41.9363 298.69 41.0341 301.881 42.5385C304.744 43.8884 304.559 47.2449 303.984 49.9012C303.421 46.0796 308.076 41.5845 311.203 45.5196C313.748 48.7236 311.439 53.7623 311.028 57.3631C310.896 58.5121 310.673 59.6444 310.376 60.7583Z" fill="#1A1A1A"/>
<path d="M309.352 60.4761C307.416 67.6377 302.715 73.4901 298.733 79.5949C297.739 81.1181 296.784 82.6689 295.931 84.2758C295.147 85.7524 294.283 87.3406 293.947 88.9913C293.365 91.8566 294.343 94.8594 296.58 96.7689C298.871 98.7241 302.014 99.3822 304.901 98.5037C308.289 97.4725 310.899 94.9238 312.994 92.1718C317.277 86.5469 319.363 79.5906 320.714 72.7446C322.23 65.0637 324.554 57.4258 324.661 49.5408C324.758 42.4817 323.038 35.1852 318.641 29.5401C314.672 24.4436 308.431 20.8784 301.866 21.0368C298.094 21.1279 294.396 22.3287 291.019 23.9526C288.13 25.3419 285.294 27.354 283.804 30.2763C282.698 32.4452 282.317 35.0386 283.073 37.3856C283.843 39.7783 285.67 41.597 288.044 42.4048C289.391 42.8633 290.826 42.9144 292.236 42.8779C293.868 42.8357 295.498 42.6967 297.132 42.7205C298.6 42.7419 300.215 42.8614 301.515 43.5401C301.787 43.6824 302.021 43.8375 302.172 43.9776C302.293 44.0909 302.41 44.2078 302.517 44.335C302.531 44.3509 302.635 44.4947 302.55 44.3767C302.603 44.4494 302.651 44.5246 302.698 44.6009C302.895 44.9241 302.916 44.9745 303.013 45.2716C303.11 45.5657 303.18 45.8698 303.224 46.1761C303.255 46.3819 303.205 45.9257 303.234 46.2813C303.24 46.3561 303.247 46.4307 303.252 46.5057C303.262 46.6567 303.267 46.8081 303.268 46.9594C303.271 47.2657 303.259 47.5722 303.234 47.8775C303.187 48.4717 303.104 48.9446 302.96 49.6189H305.008C305.029 49.7758 304.999 49.3398 304.999 49.2596C304.999 49.0805 305.008 48.9001 305.029 48.7222C305.008 48.9029 305.038 48.6733 305.047 48.6299C305.066 48.5412 305.083 48.4524 305.104 48.3643C305.15 48.1698 305.208 47.9781 305.275 47.7897C305.454 47.2853 305.873 46.5983 306.261 46.1828C306.381 46.0542 306.507 45.9311 306.639 45.8146C306.691 45.7686 306.744 45.7233 306.798 45.6798C306.664 45.7876 306.835 45.6522 306.871 45.6286C306.997 45.5437 307.123 45.4604 307.256 45.3862C307.343 45.3376 307.432 45.2921 307.522 45.2498C307.725 45.1548 307.401 45.2824 307.632 45.2087C307.788 45.1593 307.941 45.1217 308.099 45.0814C308.295 45.0312 308.151 45.0707 308.101 45.0758C308.196 45.0659 308.292 45.0598 308.388 45.0585C308.452 45.0577 308.516 45.0589 308.58 45.0621C308.575 45.0619 308.883 45.0992 308.728 45.0737C308.57 45.0476 308.886 45.1136 308.877 45.1113C308.974 45.1359 309.07 45.1656 309.165 45.1999C309.465 45.3087 309.004 45.1056 309.294 45.2603C309.358 45.2945 309.421 45.3288 309.483 45.366C309.655 45.4693 309.74 45.5332 309.826 45.6091C310.144 45.8893 310.41 46.1932 310.618 46.5281C311.015 47.1656 311.238 47.9608 311.293 48.6571C311.432 50.4245 311.029 52.1115 310.638 53.8322C310.419 54.7935 310.189 55.755 310.049 56.7318C309.867 57.9958 309.678 59.2383 309.352 60.4761C309.003 61.7989 311.051 62.3632 311.4 61.0406C311.561 60.4274 311.704 59.8099 311.82 59.1863C311.883 58.8459 311.938 58.5041 311.986 58.1613C312.016 57.953 312.043 57.7442 312.069 57.5354C312.062 57.5948 312.12 57.1297 312.096 57.2964C312.232 56.3195 312.467 55.3573 312.686 54.3968C313.161 52.3063 313.643 50.1464 313.339 47.9959C313.05 45.9501 311.812 43.9522 309.826 43.1886C308.111 42.5293 306.252 43.2422 304.982 44.4551C303.436 45.9326 302.676 48.0735 302.96 50.1835C303.102 51.2346 304.8 51.1571 305.008 50.1835C305.545 47.6684 305.787 44.5681 303.795 42.5911C302.7 41.5039 301.119 41.0129 299.627 40.794C297.997 40.555 296.359 40.5755 294.718 40.6483C293.234 40.7142 291.725 40.8557 290.242 40.7185C289.944 40.691 289.858 40.6781 289.499 40.6016C289.198 40.5372 288.9 40.4563 288.608 40.357C288.476 40.312 288.345 40.264 288.215 40.2108C288.389 40.282 288.033 40.1241 288.002 40.1087C287.749 39.9843 287.504 39.8444 287.269 39.6895C287.161 39.6182 287.055 39.5439 286.951 39.4663C286.817 39.3663 287.066 39.561 286.938 39.4546C286.89 39.4137 286.841 39.3732 286.792 39.3314C286.59 39.1557 286.399 38.9675 286.221 38.768C286.138 38.675 286.057 38.5796 285.979 38.4819C286.104 38.6391 285.905 38.3754 285.869 38.3217C285.72 38.1041 285.584 37.8775 285.462 37.6437C285.405 37.5334 285.353 37.4208 285.299 37.3087C285.228 37.1607 285.357 37.4577 285.296 37.3051C285.273 37.2472 285.25 37.1892 285.228 37.1308C285.135 36.8814 285.056 36.6266 284.991 36.3683C284.929 36.1226 284.88 35.8736 284.844 35.6228C284.876 35.8414 284.834 35.4963 284.828 35.4282C284.815 35.2673 284.807 35.1059 284.803 34.9445C284.799 34.6994 284.805 34.4541 284.822 34.2095C284.832 34.0774 284.845 33.9459 284.86 33.8143C284.879 33.6422 284.834 33.9709 284.862 33.7993C284.876 33.7166 284.889 33.6337 284.904 33.5512C285.011 32.9766 285.176 32.4137 285.392 31.8709C285.401 31.848 285.472 31.6855 285.408 31.8317C285.436 31.7666 285.466 31.7019 285.496 31.6376C285.557 31.5077 285.62 31.3792 285.687 31.2522C285.823 30.9935 285.97 30.741 286.129 30.4958C286.506 29.9126 286.879 29.4686 287.422 28.9252C289.725 26.62 292.928 25.2195 295.988 24.237C299.168 23.2164 302.539 22.8063 305.795 23.5449C308.672 24.1973 311.379 25.5746 313.653 27.4488C318.699 31.6084 321.436 37.8239 322.248 44.2218C323.185 51.5938 321.595 58.8464 319.985 66.0039C318.47 72.7357 317.462 79.6532 314.365 85.8993C312.915 88.8243 311.067 91.6531 308.644 93.8678C307.532 94.8842 306.247 95.7812 304.821 96.2949C304.142 96.5396 303.419 96.7151 302.784 96.7569C302.152 96.7985 301.519 96.7581 301.014 96.654C299.82 96.4082 298.753 95.881 297.911 95.1169C297.015 94.3041 296.395 93.329 296.089 92.2012C295.766 91.0127 295.842 89.7854 296.273 88.5482C296.811 87.0048 297.638 85.5268 298.446 84.1115C301.948 77.9778 306.623 72.5738 309.548 66.1037C310.29 64.4636 310.93 62.7792 311.4 61.0406C311.757 59.7197 309.709 59.1561 309.352 60.4761Z" fill="#1A1A1A"/>
<path d="M327.989 104.261C337.359 119.797 347.641 136.27 350.335 154.553C352.858 171.67 346.659 188.163 337.63 202.439C329.112 215.905 318.8 228.351 313.451 243.581C310.78 251.185 309.865 259.042 311.74 266.949C313.785 275.573 317.819 283.478 322.751 290.781C325.367 294.656 328.138 298.427 330.651 302.372C332.801 305.748 335.929 309.877 335.462 314.109C335.124 317.173 332.937 319.862 330.063 320.934C326.612 322.22 323.212 320.899 320.813 318.279L321.086 319.312C321.253 318.152 321.734 317.24 322.73 316.58C322.198 316.274 321.665 315.969 321.132 315.663C321.122 322.958 317.474 330.025 311.233 333.91C305.65 337.386 298.754 338.332 292.3 337.637C289.229 337.306 285.409 336.73 283.035 334.575C280.17 331.976 281.524 328.262 282.791 325.22C284.048 322.204 285.127 319.325 285.118 316.009C285.109 312.709 284.3 309.439 283.186 306.352C280.956 300.172 277.506 294.564 274.501 288.752C271.065 282.104 268.598 274.94 267.234 267.58C265.826 259.978 265.648 252.097 266.906 244.461C268.007 237.778 270.239 231.23 273.071 225.086C275.562 219.682 278.677 214.047 283.926 210.9C284.274 210.692 284.813 210.554 285.12 210.316C284.699 210.643 284.999 209.55 284.747 210.582C284.401 211.997 284.132 213.38 283.436 214.681C281.91 217.535 279.541 219.893 277.363 222.25C272.173 227.867 267.69 234.219 263.15 240.364C258.172 247.104 253.334 253.946 248.597 260.857C240.877 272.122 232.922 283.403 226.37 295.4C221.466 304.378 216.699 313.789 209.652 321.32C206.472 324.719 202.684 327.82 198.168 329.205C196.059 329.852 193.869 330.086 191.67 329.898C188.864 329.658 184.886 328.316 184.353 325.075C184.103 323.553 185.037 321.573 186.554 321.04C188.581 320.328 187.15 323.18 185.992 323.576C184.729 324.008 183.106 323.546 181.89 323.168C177.995 321.96 174.4 319.552 171.241 317.028C167.677 314.179 164.349 310.867 161.822 307.051C159.942 304.212 157.949 300.431 158.883 296.916C160.271 291.694 166.633 291.5 171.017 291.209C173.838 291.021 176.79 290.763 179.306 289.356C182.428 287.611 184.033 284.156 185.854 281.239C203.222 253.405 223.418 227.461 244.187 202.11C249.355 195.801 254.564 189.526 259.785 183.262C264.431 177.688 269.215 172.209 273.732 166.53C277.194 162.178 280.381 157.489 281.768 152.03C283.357 145.773 282.422 139.315 280.73 133.184C278.698 125.826 275.562 118.698 274.584 111.078C274.361 109.336 274.259 107.575 274.303 105.819C274.349 104.006 274.254 101.469 275.167 99.8459C275.865 98.6052 277.641 98.568 278.619 99.5404C279.954 100.868 279.119 103.227 277.79 104.203C275.925 105.573 273.026 105.371 270.858 105.196C268.059 104.972 265.294 104.386 262.568 103.732C256.644 102.311 250.702 100.78 245.022 98.5624C237.432 95.5996 230.399 91.5049 223.873 86.6473C217.293 81.7503 211.107 76.3491 204.54 71.4331C198.388 66.8282 191.882 62.793 185.598 58.3881C180.782 55.0119 175.391 50.7024 169.275 50.3164C166.302 50.1288 163.617 51.4086 161.192 53.0085C159.772 53.9451 158.443 55.0404 156.985 55.9167C156.292 56.3332 155.532 56.6975 154.759 56.2077C153.766 55.5792 153.873 54.2269 154.762 53.5763C155.849 52.7802 154.927 51.1023 153.69 51.7425C151.897 52.6702 150.297 50.3235 151.961 49.0885C153.04 48.2874 152.129 46.6129 150.889 47.2548C149.096 48.1824 147.496 45.8357 149.16 44.6008C150.237 43.801 149.325 42.1165 148.088 42.7671C146.984 43.3473 145.587 42.6902 145.693 41.3463C145.799 39.9924 147.835 39.1843 148.854 38.5218C151.038 37.1027 153.195 35.6416 155.369 34.2078C159.311 31.608 163.263 28.7177 167.993 27.8379C176.553 26.2459 185.882 29.1067 193.443 33.0035C202.594 37.7194 210.5 44.4542 218.712 50.5756C227.032 56.7767 235.735 62.7787 245.547 66.361C250.324 68.105 255.26 68.9266 260.29 69.5477C265.745 70.2212 271.233 70.5909 276.724 70.7876C281.3 70.9516 286.218 70.4859 290.202 73.1504C290.796 73.5481 291.794 74.1728 291.979 74.9287C292.174 75.723 291.245 77.2494 290.977 75.4821C290.873 74.795 291.235 73.6958 291.422 72.8057C291.957 70.2434 292.668 67.6095 292.817 64.9871C292.859 64.2538 292.836 63.4741 292.146 63.0467C291.622 62.7223 290.834 62.7136 290.249 62.4825C289.608 62.2294 288.992 61.8824 288.441 61.4671C283.726 57.9098 283.617 50.3906 285.141 45.2481C286.023 42.2741 287.618 39.5899 290.175 37.7714C293.802 35.1932 298.531 34.1819 302.888 35.1248C307.657 36.1567 311.333 39.272 311.886 44.281C312.36 48.5686 311.613 53.1312 311.298 57.4195C311.002 61.4288 311.052 65.6206 313.869 68.7893C316.689 71.9624 320.574 73.9202 324.146 76.0969C328.296 78.6264 331.49 81.7419 334.13 85.8361C336.57 89.6189 338.631 93.7418 340.102 97.9987C345.25 112.894 343.367 130.066 335.23 143.549C326.141 158.607 309.726 166.525 292.501 167.502C273.448 168.582 254.959 162.28 238.136 153.864C228.539 149.062 219.34 143.515 210.268 137.797C206.09 135.163 202.008 132.163 197.587 129.946C193.717 128.006 189.353 127.003 185.155 128.51C182.969 129.295 180.983 130.517 178.954 131.627C178.049 132.122 176.884 132.988 175.836 132.405C174.624 131.73 174.942 130.209 175.995 129.596C176.999 129.012 176.329 127.206 175.177 127.656C173.192 128.431 171.751 125.979 173.681 124.839C174.679 124.25 174.018 122.448 172.863 122.898C170.878 123.673 169.437 121.221 171.367 120.082C172.364 119.493 171.701 117.683 170.549 118.141C168.321 119.028 167.277 116.309 169.299 115.205C169.847 114.906 170.429 114.656 170.991 114.382C173.438 113.192 175.885 112.002 178.333 110.811C182.317 108.874 186.301 106.936 190.285 104.998C191.038 104.632 190.91 103.563 190.285 103.164C189.331 102.557 188.377 101.949 187.423 101.342C187.048 101.103 186.642 100.884 186.286 100.618C185.856 100.296 185.536 99.9272 185.363 99.409C185.023 98.3926 185.32 98.2476 186.214 97.9025C190.662 96.1857 196.009 98.3603 200.049 100.257C204.985 102.574 209.368 105.835 213.733 109.064C218.391 112.51 223.201 115.721 228.145 118.744C238.059 124.805 248.645 130.019 260.028 132.629C270.88 135.117 282.952 135.337 293.457 131.23C298.41 129.293 303.061 126.225 305.918 121.634C308.831 116.952 309.392 110.953 306.749 106.032C306.102 104.828 304.268 105.899 304.915 107.104C307.564 112.036 306.304 118.062 302.864 122.274C299.417 126.493 294.358 128.964 289.201 130.41C277.761 133.619 265.509 132.415 254.307 128.862C242.937 125.255 232.542 119.233 222.619 112.716C213.841 106.951 205.907 99.4404 195.688 96.2573C193.205 95.4836 190.535 94.9845 187.932 95.3198C186.768 95.4699 185.639 95.7826 184.587 96.3125C183.416 96.9024 183.047 97.6587 183.116 98.9806C183.277 102.072 186.954 103.559 189.213 104.998V103.164C185.733 104.857 182.254 106.549 178.775 108.241C175.228 109.966 171.495 111.507 168.063 113.451C164.047 115.726 166.75 121.925 171.114 120.189C170.841 119.542 170.568 118.895 170.295 118.248C166.347 120.579 169.086 126.641 173.427 124.946C173.155 124.299 172.882 123.652 172.609 123.005C168.661 125.336 171.4 131.398 175.741 129.703C175.468 129.056 175.196 128.41 174.923 127.763C171.401 129.811 173.094 135.346 177.261 134.674C179.549 134.305 181.752 132.422 183.799 131.401C186.453 130.079 189.194 129.526 192.124 130.166C197.193 131.273 201.59 134.804 205.885 137.534C211.053 140.819 216.244 144.07 221.52 147.18C239.831 157.972 259.733 167.583 281.196 169.435C299.907 171.049 319.831 166.048 332.33 151.222C343.347 138.154 347.438 119.803 343.77 103.188C342.818 98.8737 341.287 94.7477 339.336 90.7889C337.091 86.2309 334.37 81.5954 330.582 78.1369C327.073 74.9331 322.67 73.0315 318.821 70.3081C316.854 68.9162 314.761 67.1969 313.92 64.8627C313.121 62.6433 313.23 60.1985 313.388 57.8831C313.709 53.1585 314.594 48.1259 313.901 43.4154C313.197 38.6202 309.947 35.26 305.466 33.6504C297.809 30.8999 288.075 33.9796 284.365 41.4439C281.613 46.9793 281.124 54.5989 284.4 60.0345C285.143 61.2668 286.101 62.3644 287.259 63.2213C287.847 63.6565 288.47 64.0146 289.141 64.3074C289.459 64.4464 289.782 64.5751 290.113 64.6824C290.236 64.7224 290.555 64.8571 290.708 64.8531C291.48 64.833 290.255 65.0796 290.714 64.4363C290.622 64.5649 290.66 65.3749 290.63 65.6263C290.542 66.363 290.403 67.0956 290.268 67.8249C289.977 69.3909 289.643 70.9483 289.318 72.5075C289.116 73.4779 288.836 74.4831 288.854 75.482C288.882 77.0677 290.024 78.9349 291.852 78.4556C293.266 78.0849 294.264 76.3213 294.131 74.9228C293.965 73.185 292.301 71.9464 290.936 71.1018C286.732 68.5 281.779 68.8386 277.023 68.6741C270.83 68.46 264.634 68.0358 258.492 67.1901C252.731 66.3967 247.263 65.0185 241.951 62.6111C236.677 60.221 231.738 57.1724 226.969 53.9035C217.511 47.4199 208.882 39.7122 199.077 33.7395C190.839 28.7214 181.165 24.9402 171.363 25.3491C166.483 25.5527 162.523 27.1768 158.42 29.723C155.965 31.2467 153.565 32.8572 151.16 34.4584C149.957 35.2593 148.753 36.0588 147.541 36.8446C146.505 37.5151 145.226 38.0947 144.429 39.0586C141.728 42.3244 145.616 46.4633 149.16 44.6008C148.802 43.9895 148.445 43.3783 148.088 42.7671C144.267 45.6031 147.691 51.2974 151.961 49.0885C151.603 48.4773 151.246 47.866 150.889 47.2548C147.068 50.0909 150.492 55.7851 154.762 53.5763C154.404 52.965 154.047 52.3538 153.69 51.7425C151.362 53.4468 151.287 57.2013 154.273 58.3166C155.629 58.8227 156.875 58.4877 158.057 57.7504C159.792 56.6684 161.376 55.3607 163.122 54.2927C166.514 52.2176 169.645 52.0086 173.32 53.4385C176.59 54.7108 179.549 56.7434 182.413 58.7381C189.174 63.4473 196.147 67.8241 202.766 72.7433C210.046 78.1543 216.846 84.186 224.194 89.5047C236.476 98.3944 250.669 103.646 265.477 106.543C269.909 107.41 277.681 109.01 280.563 104.241C282.095 101.707 281.474 98.0921 278.479 97.0252C275.538 95.9775 273.298 97.8558 272.73 100.67C271.092 108.788 273.323 116.924 275.818 124.612C278.244 132.087 281.115 139.813 280.36 147.807C279.754 154.23 276.405 159.733 272.494 164.695C267.62 170.879 262.405 176.812 257.365 182.861C234.29 210.561 211.396 238.546 191.45 268.624C189.027 272.279 186.648 275.965 184.322 279.683C182.186 283.098 180.447 287.091 176.286 288.32C170.585 290.004 163.365 287.979 158.841 292.798C152.436 299.621 160.484 309.746 165.439 314.689C168.907 318.148 172.892 321.27 177.262 323.511C180.14 324.987 184.992 327.222 187.981 324.861C189.59 323.59 190.99 319.436 188.004 318.85C185.112 318.281 182.693 321.03 182.274 323.653C181.213 330.296 189.864 332.475 194.833 332.011C205.569 331.01 213.151 321.451 218.628 313.08C221.76 308.292 224.504 303.267 227.237 298.245C229.973 293.218 232.875 288.383 235.998 283.585C246 268.22 256.287 253.03 267.278 238.351C270.176 234.48 273.096 230.614 276.133 226.85C278.27 224.201 280.766 221.866 282.892 219.207C284.845 216.764 286.369 214.137 286.817 210.991C287.086 209.099 286.116 207.7 284.125 208.421C281.598 209.336 279.28 211.542 277.581 213.551C275.331 216.212 273.557 219.248 272.022 222.365C268.855 228.798 266.334 235.766 265.044 242.825C262.127 258.797 265.255 275.474 272.667 289.824C276.077 296.424 280.204 302.819 282.132 310.067C283.065 313.571 283.4 317.277 282.272 320.778C281.183 324.157 278.931 327.478 279.179 331.164C279.669 338.435 289.093 339.722 294.778 339.943C301.644 340.209 308.869 338.593 314.359 334.301C320.035 329.864 323.246 322.825 323.256 315.663C323.257 314.892 322.341 314.294 321.658 314.746C320.381 315.592 318.821 317.33 319 319.03C319.143 320.39 321.38 321.737 322.467 322.328C325.066 323.739 328.175 323.955 330.93 322.865C336.848 320.524 339.068 313.858 336.433 308.236C332.543 299.94 326.371 292.91 321.622 285.123C316.683 277.025 312.546 267.114 312.798 257.478C313.022 248.873 316.47 240.575 320.447 233.075C324.473 225.483 329.334 218.378 334.213 211.318C344.233 196.818 352.972 180.932 353.036 162.819C353.103 143.53 343.142 125.551 333.565 109.427C332.327 107.342 331.075 105.265 329.823 103.189C329.118 102.02 327.281 103.086 327.989 104.261Z" fill="#1A1A1A"/>
<path d="M149.018 44.7205C151.759 43.0648 154.5 41.4091 157.241 39.7534C157.634 39.5163 158.026 39.2791 158.419 39.042C159.587 38.3363 158.521 36.4991 157.347 37.2083C154.606 38.864 151.865 40.5197 149.124 42.1754C148.731 42.4125 148.339 42.6497 147.946 42.8868C146.778 43.5925 147.844 45.4297 149.018 44.7205Z" fill="#1A1A1A"/>
<path d="M151.548 49.4012C154.289 47.7455 157.031 46.0897 159.772 44.434C160.164 44.1969 160.557 43.9598 160.949 43.7227C162.118 43.0169 161.051 41.1798 159.877 41.889C157.136 43.5447 154.395 45.2004 151.654 46.8561C151.262 47.0932 150.869 47.3303 150.477 47.5674C149.308 48.2732 150.374 50.1103 151.548 49.4012Z" fill="#1A1A1A"/>
<path d="M154.132 53.8538C156.873 52.1981 159.614 50.5424 162.355 48.8867C162.747 48.6496 163.14 48.4124 163.533 48.1753C164.701 47.4696 163.635 45.6324 162.461 46.3416C159.72 47.9973 156.979 49.653 154.237 51.3087C153.845 51.5458 153.452 51.783 153.06 52.0201C151.891 52.7258 152.958 54.563 154.132 53.8538Z" fill="#1A1A1A"/>
<path d="M292.952 56.8122C294.61 56.6507 296.076 55.8118 297.059 54.4676C297.278 54.1676 297.119 53.6652 296.805 53.4991C296.437 53.3046 296.07 53.4328 295.836 53.7531C295.824 53.7695 295.731 53.8906 295.794 53.8106C295.852 53.738 295.777 53.8312 295.766 53.8442C295.715 53.9065 295.662 53.9676 295.607 54.0272C295.498 54.1465 295.383 54.2601 295.263 54.3678C295.203 54.4216 295.141 54.474 295.078 54.5247C295.058 54.5418 295.037 54.5586 295.015 54.5751L295.073 54.5299C295.063 54.5516 295.006 54.5793 294.986 54.5935C294.847 54.6927 294.704 54.7847 294.555 54.8693C294.415 54.9493 294.271 55.0226 294.123 55.0887C294.107 55.0961 293.996 55.1401 294.084 55.1062C294.182 55.0687 294.038 55.123 294.019 55.1304C293.943 55.159 293.867 55.1857 293.79 55.2105C293.636 55.2601 293.48 55.3021 293.322 55.3361C293.243 55.3531 293.164 55.3664 293.084 55.381C292.974 55.4014 293.093 55.3637 293.113 55.3789C293.102 55.3706 292.967 55.3949 292.952 55.3964C292.584 55.4322 292.226 55.6963 292.244 56.1043C292.26 56.4571 292.557 56.8507 292.952 56.8122Z" fill="#1A1A1A"/>
<path d="M167.179 30.6675C166.633 31.3489 166.086 32.0304 165.539 32.7118C164.954 33.4408 164.286 34.1547 163.777 34.9418C162.721 36.576 163.081 38.8967 164.586 40.1293C166.199 41.45 168.684 41.3888 170.111 39.7959C170.863 38.9566 171.493 38.0209 172.278 37.2041C172.601 36.868 173 36.4766 173.328 36.2254C173.429 36.1474 173.656 35.9956 173.817 35.9063C173.888 35.8666 173.961 35.8271 174.036 35.7944C173.819 35.8892 174.149 35.772 174.197 35.761C175.527 35.4501 174.964 33.4019 173.632 33.7132C172.838 33.8988 172.154 34.428 171.553 34.9542C170.886 35.5382 170.291 36.2052 169.727 36.8866C169.228 37.4878 168.759 38.3184 168.152 38.6824C167.612 39.0061 166.958 39.0567 166.393 38.7923C165.828 38.5278 165.497 38.0857 165.357 37.5793C165.332 37.4884 165.309 37.3959 165.295 37.3026C165.263 37.1038 165.295 37.5377 165.289 37.1902C165.286 37.0388 165.283 36.8852 165.305 36.7349C165.277 36.9255 165.357 36.5589 165.355 36.5658C165.376 36.4916 165.398 36.4157 165.426 36.3442C165.382 36.457 165.457 36.2805 165.46 36.2737C165.524 36.1464 165.608 36.0343 165.679 35.9125C165.784 35.7336 165.565 36.0548 165.645 35.9529C165.672 35.919 165.699 35.8853 165.727 35.8516C165.832 35.7216 165.936 35.5907 166.041 35.4604C166.355 35.0679 166.67 34.6754 166.985 34.2829C167.55 33.5783 168.116 32.8738 168.681 32.1692C169.04 31.7222 169.118 31.1041 168.681 30.6675C168.31 30.2961 167.54 30.2178 167.179 30.6675Z" fill="#1A1A1A"/>
<path d="M9.02509 310.16C9.02509 321.758 31.4219 331.16 59.0496 331.16C86.6774 331.16 109.074 321.758 109.074 310.16V299.305H9.02509V310.16Z" fill="#C4F03B"/>
<path d="M59.0496 320.306C86.6774 320.306 109.074 310.904 109.074 299.305C109.074 287.707 86.6774 278.304 59.0496 278.304C31.4218 278.304 9.02509 287.707 9.02509 299.305C9.02509 310.904 31.4218 320.306 59.0496 320.306Z" fill="#EAB308"/>
<path d="M9.02509 289.159C9.02509 300.757 31.4219 310.159 59.0496 310.159C86.6774 310.159 109.074 300.757 109.074 289.159V278.304H9.02509V289.159Z" fill="#C4F03B"/>
<path d="M59.0496 299.305C86.6774 299.305 109.074 289.903 109.074 278.304C109.074 266.706 86.6774 257.303 59.0496 257.303C31.4218 257.303 9.02509 266.706 9.02509 278.304C9.02509 289.903 31.4218 299.305 59.0496 299.305Z" fill="#EAB308"/>
<path d="M9.02509 268.867C9.02509 280.465 31.4219 289.867 59.0496 289.867C86.6774 289.867 109.074 280.465 109.074 268.867V258.012H9.02509V268.867Z" fill="#C4F03B"/>
<path d="M59.0496 279.013C86.6774 279.013 109.074 269.611 109.074 258.012C109.074 246.414 86.6774 237.011 59.0496 237.011C31.4218 237.011 9.02509 246.414 9.02509 258.012C9.02509 269.611 31.4218 279.013 59.0496 279.013Z" fill="#EAB308"/>
<path d="M9.02509 247.865C9.02509 259.463 31.4219 268.866 59.0496 268.866C86.6774 268.866 109.074 259.463 109.074 247.865V237.01H9.02509V247.865Z" fill="#C4F03B"/>
<path d="M59.0496 258.011C86.6774 258.011 109.074 248.609 109.074 237.01C109.074 225.412 86.6774 216.009 59.0496 216.009C31.4218 216.009 9.02509 225.412 9.02509 237.01C9.02509 248.609 31.4218 258.011 59.0496 258.011Z" fill="#EAB308"/>
<path d="M9.02509 228.28C9.02509 239.878 31.4219 249.281 59.0496 249.281C86.6774 249.281 109.074 239.878 109.074 228.28V217.425H9.02509V228.28Z" fill="#C4F03B"/>
<path d="M59.0496 238.426C86.6774 238.426 109.074 229.024 109.074 217.425C109.074 205.827 86.6774 196.424 59.0496 196.424C31.4218 196.424 9.02509 205.827 9.02509 217.425C9.02509 229.024 31.4218 238.426 59.0496 238.426Z" fill="#EAB308"/>
<path d="M9.02509 207.279C9.02509 218.877 31.4219 228.28 59.0496 228.28C86.6774 228.28 109.074 218.877 109.074 207.279V196.424H9.02509V207.279Z" fill="#C4F03B"/>
<path d="M59.0496 217.425C86.6774 217.425 109.074 208.023 109.074 196.424C109.074 184.826 86.6774 175.423 59.0496 175.423C31.4218 175.423 9.02509 184.826 9.02509 196.424C9.02509 208.023 31.4218 217.425 59.0496 217.425Z" fill="#EAB308"/>
<path d="M176.035 295.858C176.97 298.248 179.531 299.515 182.024 299.069C184.552 298.617 186.076 296.053 185.785 293.597C185.61 292.111 184.928 290.846 183.717 289.956C183.538 290.615 183.36 291.275 183.181 291.934C185.774 292.16 188.237 290.404 189.044 287.971C189.225 287.427 188.835 286.811 188.302 286.665C187.724 286.506 187.177 286.86 186.996 287.407C186.471 288.989 184.812 289.952 183.181 289.811C182.723 289.771 182.273 290.169 182.157 290.59C182.024 291.076 182.261 291.507 182.645 291.789C182.54 291.712 182.82 291.946 182.85 291.976C182.878 292.004 183.13 292.287 183.04 292.171C183.216 292.396 183.365 292.658 183.475 292.921C183.409 292.764 183.518 293.063 183.522 293.076C183.567 293.215 183.605 293.357 183.635 293.5C183.651 293.571 183.664 293.643 183.676 293.716C183.665 293.615 183.666 293.63 183.68 293.761C183.693 293.908 183.699 294.055 183.699 294.202C183.698 294.331 183.691 294.459 183.68 294.587C183.672 294.664 183.674 294.661 183.686 294.578C183.675 294.651 183.662 294.723 183.648 294.795C183.619 294.938 183.583 295.08 183.54 295.22C183.529 295.258 183.39 295.616 183.454 295.475C183.351 295.704 183.223 295.929 183.071 296.129C183.158 296.014 182.912 296.299 182.883 296.327C182.853 296.357 182.572 296.597 182.68 296.516C182.239 296.843 181.946 296.959 181.354 297.039C181.546 297.013 181.139 297.045 181.101 297.046C180.956 297.049 180.813 297.042 180.669 297.034C180.424 297.018 180.742 297.056 180.521 297.017C180.378 296.992 180.236 296.96 180.097 296.922C179.957 296.884 179.819 296.839 179.683 296.787C179.564 296.741 179.548 296.735 179.637 296.768C179.571 296.738 179.506 296.706 179.442 296.673C179.315 296.606 179.19 296.533 179.07 296.454C179.07 296.454 178.806 296.263 178.937 296.367C178.825 296.278 178.72 296.18 178.62 296.079C178.593 296.052 178.342 295.764 178.438 295.889C178.351 295.776 178.274 295.654 178.204 295.53C178.184 295.494 178.026 295.15 178.082 295.294C177.874 294.76 177.37 294.389 176.776 294.552C176.267 294.692 175.825 295.321 176.035 295.858Z" fill="#1A1A1A"/>
<path d="M287.447 305.741C288.728 304.904 290.633 305.327 291.376 306.723C292.054 308 291.202 309.963 289.808 310.421C288.683 310.791 288.863 312.481 290.09 312.507C291.654 312.54 293.234 313.936 293.325 315.51C293.422 317.194 292.151 318.724 290.448 319.016C289.883 319.113 289.566 319.809 289.707 320.322C289.871 320.921 290.446 321.161 291.013 321.064C293.583 320.624 295.678 318.005 295.439 315.384C295.19 312.654 292.838 310.441 290.09 310.383C290.184 311.078 290.278 311.774 290.373 312.469C293.065 311.584 294.519 308.326 293.26 305.753C292.068 303.317 288.622 302.441 286.375 303.907C285.895 304.22 285.694 304.847 285.994 305.36C286.273 305.837 286.964 306.055 287.447 305.741Z" fill="#1A1A1A"/>
<path d="M298.544 93.0118C296.462 92.9358 294.33 93.7354 292.928 95.2766C291.525 96.8177 290.932 99.1014 291.559 101.089C292.185 103.076 294.075 104.642 296.156 104.74C297.962 104.826 299.66 103.891 301.104 102.803C302.304 101.899 303.426 100.847 304.159 99.5361C304.893 98.2255 305.202 96.624 304.738 95.1955" fill="#1A1A1A"/>
<path d="M298.544 91.9499C296.094 91.884 293.522 92.86 291.951 94.7895C290.405 96.6883 289.741 99.4064 290.667 101.738C291.552 103.969 293.609 105.608 296.027 105.794C298.62 105.994 301.06 104.344 302.905 102.698C305.065 100.771 306.663 97.8574 305.762 94.9132C305.363 93.6101 303.313 94.1657 303.714 95.4778C304.309 97.4211 303.301 99.3187 301.95 100.679C300.631 102.008 298.818 103.417 296.902 103.657C295.259 103.863 293.701 102.954 292.889 101.506C292.039 99.9929 292.289 98.0495 293.25 96.5817C294.39 94.8407 296.524 94.0192 298.544 94.0736C299.911 94.1104 299.91 91.9867 298.544 91.9499Z" fill="#1A1A1A"/>
<path d="M9.02509 186.278C9.02509 197.877 31.4219 207.279 59.0496 207.279C86.6774 207.279 109.074 197.877 109.074 186.278V175.424H9.02509V186.278Z" fill="#C4F03B"/>
<path d="M59.0496 196.425C86.6773 196.425 109.074 187.023 109.074 175.424C109.074 163.826 86.6773 154.423 59.0496 154.423C31.4218 154.423 9.02502 163.826 9.02502 175.424C9.02502 187.023 31.4218 196.425 59.0496 196.425Z" fill="#EAB308"/>
<path d="M59.0496 191.234C79.8481 191.234 96.7086 184.155 96.7086 175.424C96.7086 166.692 79.8481 159.614 59.0496 159.614C38.2512 159.614 21.3907 166.692 21.3907 175.424C21.3907 184.155 38.2512 191.234 59.0496 191.234Z" fill="white"/>
<path d="M88.7812 31.8394C88.7812 40.5502 82.9156 47.8862 74.9202 50.1266C82.9156 52.367 88.7812 59.703 88.7812 68.4139C88.7812 59.703 94.6469 52.367 102.642 50.1266C94.6469 47.8862 88.7812 40.5502 88.7812 31.8394Z" fill="#2D5DDC"/>
<path d="M71.3269 68.1782C71.3269 74.6692 66.956 80.1357 60.9982 81.8052C66.956 83.4746 71.3269 88.9411 71.3269 95.4321C71.3269 88.9411 75.6978 83.4746 81.6556 81.8052C75.6978 80.1357 71.3269 74.6692 71.3269 68.1782Z" fill="#2D5DDC"/>
<path d="M138.208 163.302C138.725 160.89 139.242 158.477 139.759 156.064C139.879 155.504 139.593 154.916 139.018 154.758C138.488 154.612 137.832 154.936 137.711 155.499C137.194 157.912 136.677 160.325 136.16 162.738C136.04 163.298 136.327 163.886 136.902 164.044C137.431 164.189 138.087 163.866 138.208 163.302Z" fill="#2D5DDC"/>
<path d="M155.29 157.098C155.634 157.959 155.979 158.821 156.324 159.683C156.43 159.949 156.555 160.167 156.812 160.317C157.039 160.451 157.375 160.507 157.63 160.424C157.887 160.341 158.135 160.182 158.265 159.936C158.389 159.7 158.476 159.378 158.372 159.118C158.027 158.257 157.682 157.395 157.338 156.533C157.231 156.267 157.107 156.049 156.85 155.899C156.622 155.765 156.287 155.709 156.031 155.792C155.775 155.875 155.527 156.034 155.397 156.28C155.272 156.516 155.186 156.838 155.29 157.098Z" fill="#2D5DDC"/>
<path d="M165.259 149.566C166.979 151.809 168.699 154.053 170.419 156.296C170.756 156.735 171.348 157.014 171.872 156.677C172.306 156.397 172.614 155.695 172.253 155.224C170.533 152.981 168.813 150.738 167.093 148.495C166.756 148.055 166.164 147.776 165.64 148.114C165.206 148.393 164.898 149.095 165.259 149.566Z" fill="#2D5DDC"/>
<path d="M127.907 108.247L125.122 102.043L130.581 99.5922L128.743 95.4979L123.284 97.9487L120.499 91.7453L125.958 89.2944L119.747 75.4606L129.486 71.088L143.576 81.3847L153.501 76.9286L147.29 63.0948L155.975 59.1957L162.186 73.0295L167.149 70.8014L169.934 77.0049L164.971 79.233L166.809 83.3273L171.772 81.0992L174.557 87.3027L169.594 89.5308L176.028 103.861L166.723 108.038L152.039 97.4126L142.051 101.897L148.484 116.227L139.8 120.126L133.366 105.796L127.907 108.247ZM139.266 95.6931L145.655 92.8244L141.46 89.7884L137.428 91.5987L139.266 95.6931ZM154.092 89.0367L158.124 87.2264L156.286 83.1321L149.959 85.9729L154.092 89.0367ZM134.643 85.3953L135.139 85.1725L134.253 84.5268L134.643 85.3953ZM161.299 94.2984L160.91 93.4299L160.413 93.6527L161.299 94.2984Z" fill="#C4F03B"/>
<path d="M33.2706 168.047L45.9504 167.331L43.8527 164.405L47.1974 164.216L49.295 167.142L53.2387 166.919L51.1411 163.993L54.4857 163.804L56.5834 166.73L68.9137 166.033L72.4098 170.909L62.7016 175.263L65.9063 179.733L78.2367 179.036L80.8005 182.612L68.4701 183.309L70.5678 186.235L67.2231 186.424L65.1255 183.498L61.1818 183.721L63.2794 186.647L59.9348 186.836L57.8371 183.91L45.1573 184.627L41.6612 179.75L51.6898 175.336L48.5142 170.907L35.8344 171.623L33.2706 168.047ZM51.8588 170.718L54.3644 174.212L57.4923 172.852L55.7443 170.414L51.8588 170.718ZM49.8611 180.682L49.9776 180.845L55.3316 180.415L54.2245 178.871L49.8611 180.682ZM59.0598 170.184L60.1669 171.728L64.8506 169.857L64.734 169.694L59.0598 170.184ZM56.899 177.748L58.6762 180.226L62.5617 179.922L60.027 176.387L56.899 177.748Z" fill="#C4F03B"/>
</svg>
