<svg width="361" height="361" viewBox="0 0 361 361" fill="none" xmlns="http://www.w3.org/2000/svg">
<path d="M344.267 211.601C345.245 198.683 336.373 186.703 324.034 183.235C325.676 185.392 327.319 187.55 328.961 189.707C328.478 185.958 327.609 182.604 325.85 179.221C324.425 176.48 322.416 173.892 320.103 171.841C314.9 167.229 308.194 164.534 301.197 164.633C294.4 164.729 287.996 167.36 282.929 171.844C277.815 176.37 274.921 182.745 274.11 189.436C273.102 197.751 276.408 206.306 282.384 212.1C282.836 208.586 283.289 205.072 283.742 201.558C277.717 205.692 273.042 211.927 271.751 219.238C270.547 226.052 271.545 233.103 275.228 239.048C278.757 244.744 284.199 248.963 290.568 251.019C297.328 253.2 304.591 252.377 310.956 249.419C317.91 246.187 323.061 239.662 325.275 232.41C323.118 234.052 320.96 235.695 318.803 237.337C325.421 236.635 331.539 234.09 336.292 229.323C341.087 224.514 343.647 218.295 344.267 211.601C344.592 208.094 340.948 204.737 337.555 204.889C333.641 205.064 331.191 207.845 330.843 211.601C330.824 211.811 330.674 213.04 330.844 211.766C331.008 210.54 330.852 211.635 330.8 211.916C330.693 212.484 330.564 213.048 330.411 213.606C330.26 214.157 330.087 214.701 329.891 215.237C329.796 215.498 329.387 216.49 329.854 215.383C330.32 214.277 329.898 215.256 329.778 215.506C329.294 216.512 328.728 217.478 328.09 218.393C327.933 218.618 327.296 219.456 328.022 218.517C328.773 217.546 328.055 218.456 327.922 218.613C327.564 219.034 327.189 219.44 326.799 219.831C326.41 220.222 326.005 220.597 325.586 220.956C325.421 221.098 325.231 221.226 325.077 221.379C326.386 220.085 325.87 220.778 325.377 221.125C324.518 221.73 323.613 222.27 322.673 222.739C322.428 222.861 322.156 222.957 321.921 223.097C323.44 222.191 322.985 222.662 322.445 222.869C321.923 223.07 321.393 223.25 320.856 223.408C320.315 223.567 319.768 223.704 319.216 223.818C318.938 223.876 318.658 223.921 318.379 223.975C317.195 224.204 320.09 223.777 318.803 223.914C315.745 224.239 313.264 225.786 312.331 228.841C312.144 229.454 311.927 230.05 311.702 230.65C311.394 231.473 312.473 229.026 311.899 230.155C311.769 230.41 311.65 230.67 311.518 230.924C311.229 231.479 310.915 232.022 310.577 232.549C310.454 232.74 310.329 232.929 310.2 233.116C310.072 233.302 309.941 233.487 309.806 233.669C310.483 232.808 310.66 232.579 310.338 232.982C309.576 233.893 308.786 234.761 307.895 235.55C307.727 235.699 307.551 235.84 307.383 235.99C306.414 236.85 308.735 235.022 307.676 235.769C307.123 236.159 306.565 236.538 305.981 236.882C305.494 237.168 304.996 237.436 304.487 237.682C304.293 237.776 304.06 237.858 303.871 237.968C305.517 237.011 304.779 237.596 304.212 237.805C303.018 238.245 301.8 238.532 300.556 238.785C299.29 239.043 302.029 238.637 301.13 238.716C300.838 238.742 300.546 238.776 300.254 238.796C299.662 238.837 299.068 238.853 298.475 238.844C297.876 238.835 297.281 238.789 296.684 238.739C295.343 238.627 298.414 239.037 297.098 238.796C296.761 238.734 296.426 238.674 296.091 238.602C294.986 238.362 293.962 237.92 292.88 237.624C294.715 238.125 293.826 238.037 293.268 237.775C293.02 237.657 292.774 237.535 292.531 237.408C291.997 237.13 291.476 236.83 290.969 236.507C290.682 236.324 289.025 235.114 290.052 235.904C291.032 236.658 290.151 235.966 289.974 235.815C289.769 235.639 289.567 235.459 289.368 235.276C288.932 234.872 288.512 234.451 288.112 234.012C287.966 233.853 287.823 233.691 287.682 233.527C286.565 232.224 288.373 234.55 287.726 233.617C287.106 232.724 286.518 231.827 286.018 230.86C285.724 230.292 285.213 228.539 285.879 230.685C285.685 230.059 285.417 229.457 285.23 228.826C285.073 228.297 284.937 227.762 284.823 227.223C284.766 226.951 284.714 226.678 284.668 226.404C284.567 225.812 284.71 225.134 284.743 227.027C284.721 225.768 284.576 224.537 284.662 223.271C284.682 222.962 284.719 222.655 284.745 222.347C284.806 221.813 284.769 222.091 284.633 223.182C284.672 222.931 284.716 222.682 284.765 222.433C284.909 221.697 285.092 220.968 285.315 220.252C285.388 220.016 285.466 219.781 285.547 219.547C285.741 218.996 286.561 217.636 285.556 219.442C285.91 218.806 286.191 218.132 286.563 217.501C286.907 216.917 287.268 216.155 287.758 215.69C287.718 215.728 286.665 217.009 287.373 216.195C287.688 215.833 287.994 215.465 288.324 215.115C288.775 214.636 289.25 214.179 289.745 213.744C289.964 213.552 290.234 213.378 290.431 213.166C289.54 213.842 289.373 213.974 289.928 213.561C290.122 213.42 290.319 213.283 290.517 213.149C292.301 211.925 293.43 210.416 293.722 208.246C293.999 206.178 293.409 204.095 291.876 202.608C291.419 202.165 290.975 201.71 290.555 201.231C290.157 200.776 289.802 199.884 290.642 201.406C290.493 201.136 290.261 200.887 290.085 200.631C289.316 199.509 288.834 198.272 288.141 197.119C289.065 198.656 288.454 197.85 288.258 197.285C288.173 197.042 288.093 196.796 288.017 196.55C287.807 195.866 287.634 195.172 287.496 194.471C287.435 194.156 287.42 193.807 287.329 193.502C287.809 195.111 287.463 194.537 287.413 193.908C287.355 193.173 287.334 192.435 287.353 191.697C287.37 191.057 287.476 190.418 287.491 189.78C287.444 191.803 287.346 190.797 287.456 190.202C287.508 189.922 287.565 189.644 287.628 189.367C287.753 188.818 287.899 188.275 288.068 187.738C288.151 187.472 288.239 187.207 288.334 186.945C288.409 186.736 288.487 186.528 288.568 186.322C288.427 186.652 288.287 186.982 288.146 187.312C288.439 186.271 289.193 185.17 289.774 184.274C289.922 184.045 290.073 183.82 290.23 183.597C290.363 183.408 291.044 182.512 290.288 183.493C289.534 184.473 290.226 183.592 290.378 183.415C290.588 183.169 290.805 182.927 291.027 182.69C291.434 182.257 291.859 181.842 292.301 181.445C292.502 181.264 292.71 181.093 292.913 180.915C293.823 180.113 291.739 181.733 292.446 181.264C293.399 180.631 294.312 179.987 295.332 179.459C295.622 179.309 295.918 179.174 296.211 179.031C297.311 178.491 294.843 179.522 295.66 179.26C296.18 179.093 296.685 178.879 297.209 178.719C297.736 178.558 298.269 178.418 298.808 178.3C299.079 178.24 299.351 178.186 299.624 178.137C299.843 178.098 300.063 178.062 300.284 178.03C299.911 178.082 299.538 178.133 299.166 178.184C300.037 177.788 301.813 178.037 302.748 178.093C303.042 178.11 303.334 178.141 303.627 178.162C304.938 178.259 302.188 177.917 303.079 178.085C303.769 178.216 304.456 178.343 305.136 178.524C305.693 178.673 306.242 178.844 306.785 179.038C307.052 179.134 307.315 179.259 307.586 179.343C305.828 178.8 306.57 178.907 307.074 179.147C308.192 179.677 309.262 180.307 310.268 181.027C310.734 181.361 311.104 181.928 309.844 180.686C310.08 180.918 310.362 181.113 310.611 181.333C311.11 181.776 311.588 182.244 312.044 182.732C312.271 182.976 312.493 183.225 312.708 183.48C313.071 183.909 313.491 184.835 312.488 183.166C312.83 183.736 313.259 184.258 313.604 184.829C313.95 185.402 314.27 185.992 314.559 186.596C314.653 186.793 314.734 187.015 314.84 187.207C313.812 185.348 314.58 186.596 314.78 187.171C315.002 187.813 315.193 188.466 315.352 189.126C315.498 189.735 315.852 192.147 315.537 189.707C315.736 191.245 315.997 192.504 316.979 193.774C317.869 194.927 319.035 195.778 320.465 196.18C321.022 196.336 321.574 196.506 322.117 196.704C322.309 196.774 323.415 197.227 322.274 196.745C321.172 196.279 322.16 196.706 322.408 196.825C323.426 197.315 324.404 197.887 325.329 198.535C325.552 198.692 326.397 199.334 325.46 198.612C324.492 197.865 325.409 198.589 325.564 198.721C325.989 199.084 326.399 199.465 326.793 199.861C327.187 200.256 327.565 200.668 327.926 201.093C328.103 201.301 328.756 202.133 328.031 201.197C327.281 200.228 327.984 201.158 328.101 201.327C328.741 202.245 329.306 203.216 329.791 204.225C329.888 204.427 329.972 204.637 330.072 204.837C329.156 203.007 329.721 203.998 329.901 204.489C330.076 204.968 330.232 205.453 330.371 205.944C330.527 206.493 330.66 207.049 330.77 207.609C330.824 207.889 330.848 208.183 330.918 208.459C330.451 206.627 330.773 207.309 330.827 207.882C330.943 209.12 330.937 210.36 330.843 211.601C330.577 215.11 334.12 218.467 337.555 218.313C341.419 218.14 343.982 215.36 344.267 211.601Z" fill="#C4F03B"/>
<path d="M119.809 77.7646C120.609 80.1658 124.127 77.7865 122.181 76.0428C120.853 74.8523 119.302 76.238 119.809 77.7646Z" fill="#1A1A1A"/>
<path d="M119.09 77.9629C119.244 78.4172 119.482 78.8244 119.865 79.1204C120.199 79.3782 120.592 79.5124 121.014 79.5264C121.724 79.5499 122.482 79.1821 122.932 78.6364C123.177 78.3386 123.388 77.998 123.458 77.6121C123.545 77.1375 123.485 76.7008 123.283 76.2638C123.076 75.8186 122.68 75.4338 122.266 75.1797C121.77 74.8744 121.152 74.7644 120.586 74.921C120.018 75.0783 119.512 75.4978 119.247 76.0243C118.944 76.6251 118.882 77.32 119.09 77.9629C119.209 78.3336 119.612 78.6116 120.007 78.4839C120.378 78.3638 120.656 77.9641 120.528 77.5665C120.49 77.4482 120.462 77.3284 120.445 77.2053L120.472 77.4036C120.453 77.2464 120.452 77.0903 120.472 76.9331L120.445 77.1314C120.467 76.9838 120.505 76.8416 120.561 76.7035L120.486 76.8816C120.543 76.7504 120.613 76.6285 120.7 76.515L120.584 76.6659C120.664 76.5648 120.754 76.4748 120.856 76.3956L120.705 76.5122C120.799 76.4418 120.9 76.3833 121.008 76.3369L120.83 76.4121C120.931 76.3712 121.034 76.3425 121.142 76.3259L120.944 76.3525C121.065 76.3365 121.186 76.3367 121.307 76.3525L121.109 76.3258C121.229 76.3441 121.344 76.3767 121.457 76.4223L121.279 76.3471C121.427 76.4101 121.562 76.4923 121.689 76.5897L121.538 76.4731C121.677 76.5833 121.804 76.7067 121.914 76.8458L121.797 76.6949C121.883 76.807 121.957 76.9269 122.013 77.057L121.937 76.8789C121.983 76.9891 122.014 77.1029 122.03 77.2209L122.004 77.0227C122.017 77.134 122.017 77.2452 122.002 77.3565L122.029 77.1582C122.011 77.2802 121.978 77.3978 121.93 77.5115L122.006 77.3333C121.951 77.4595 121.881 77.577 121.798 77.6864L121.914 77.5354C121.816 77.6614 121.703 77.7734 121.578 77.8718L121.729 77.7552C121.597 77.8562 121.454 77.9404 121.302 78.0058L121.48 77.9306C121.342 77.9878 121.199 78.0286 121.052 78.0493L121.25 78.0227C121.131 78.0378 121.011 78.0395 120.892 78.0253L121.09 78.0519C120.985 78.0377 120.882 78.0111 120.783 77.9711L120.961 78.0463C120.865 78.0057 120.776 77.9538 120.693 77.8908L120.844 78.0074C120.756 77.9376 120.678 77.8574 120.608 77.7682L120.725 77.9191C120.637 77.8025 120.567 77.6756 120.51 77.5414L120.585 77.7196C120.565 77.6691 120.546 77.6181 120.528 77.5665C120.403 77.1979 120.01 76.9165 119.611 77.0456C119.245 77.164 118.955 77.5675 119.09 77.9629Z" fill="#1A1A1A"/>
<path d="M106.634 73.7881C107.434 76.1892 110.951 73.81 109.006 72.0662C107.678 70.8757 106.127 72.2615 106.634 73.7881Z" fill="#1A1A1A"/>
<path d="M105.915 73.9859C106.069 74.4401 106.307 74.8474 106.69 75.1433C107.023 75.4012 107.416 75.5353 107.838 75.5493C108.549 75.5728 109.307 75.205 109.757 74.6594C110.002 74.3615 110.213 74.0209 110.283 73.635C110.369 73.1605 110.31 72.7238 110.107 72.2867C109.901 71.8415 109.504 71.4568 109.091 71.2027C108.595 70.8973 107.976 70.7874 107.411 70.9439C106.842 71.1013 106.337 71.5207 106.071 72.0472C105.768 72.648 105.707 73.3429 105.915 73.9859C106.034 74.3566 106.437 74.6346 106.832 74.5068C107.203 74.3868 107.481 73.987 107.353 73.5894C107.315 73.4712 107.287 73.3514 107.27 73.2283L107.296 73.4266C107.277 73.2694 107.277 73.1132 107.297 72.9561L107.27 73.1544C107.292 73.0067 107.33 72.8645 107.386 72.7264L107.311 72.9046C107.367 72.7733 107.438 72.6514 107.525 72.538L107.408 72.6889C107.488 72.5878 107.579 72.4977 107.681 72.4185L107.53 72.5351C107.624 72.4647 107.724 72.4062 107.833 72.3598L107.655 72.435C107.756 72.3941 107.859 72.3655 107.967 72.3488L107.769 72.3755C107.89 72.3594 108.01 72.3597 108.132 72.3754L107.934 72.3488C108.054 72.3671 108.169 72.3997 108.282 72.4452L108.104 72.37C108.251 72.4331 108.386 72.5152 108.514 72.6127L108.363 72.4961C108.502 72.6063 108.628 72.7296 108.738 72.8688L108.622 72.7178C108.708 72.83 108.781 72.9499 108.837 73.08L108.762 72.9018C108.807 73.012 108.839 73.1258 108.855 73.2439L108.829 73.0456C108.842 73.157 108.841 73.2682 108.827 73.3794L108.854 73.1811C108.836 73.3031 108.803 73.4207 108.755 73.5344L108.83 73.3563C108.776 73.4825 108.706 73.5999 108.622 73.7093L108.739 73.5584C108.641 73.6843 108.528 73.7963 108.402 73.8947L108.553 73.7781C108.422 73.8792 108.279 73.9633 108.127 74.0287L108.305 73.9535C108.167 74.0108 108.024 74.0516 107.876 74.0723L108.075 74.0456C107.955 74.0608 107.836 74.0625 107.717 74.0482L107.915 74.0749C107.809 74.0607 107.707 74.034 107.608 73.994L107.786 74.0692C107.69 74.0287 107.601 73.9768 107.518 73.9138L107.669 74.0304C107.58 73.9605 107.502 73.8803 107.433 73.7912L107.55 73.9421C107.462 73.8254 107.392 73.6985 107.335 73.5643L107.41 73.7425C107.389 73.692 107.37 73.6411 107.353 73.5894C107.228 73.2209 106.834 72.9395 106.435 73.0686C106.069 73.187 105.78 73.5904 105.915 73.9859Z" fill="#1A1A1A"/>
<path d="M188.547 324.762H89.0435C82.1053 324.762 76.212 319.237 75.1861 311.77L46.0939 100.033C44.8277 90.8171 51.3879 82.5322 59.9513 82.5322H159.454C166.393 82.5322 172.286 88.0574 173.312 95.524L202.404 307.262C203.67 316.477 197.11 324.762 188.547 324.762Z" fill="#16A34A"/>
<path d="M204.499 324.762H104.995C98.0572 324.762 92.1639 319.237 91.138 311.77L62.0458 100.033C60.7796 90.8171 67.3398 82.5322 75.9032 82.5322H175.406C182.344 82.5322 188.238 88.0574 189.264 95.524L218.356 307.262C219.622 316.477 213.062 324.762 204.499 324.762Z" fill="#EAB308"/>
<path d="M120.142 211.767C124.172 228.677 141.151 239.115 158.06 235.076C175.004 231.029 185.326 213.83 181.287 196.884L175.282 171.69C174.353 167.791 170.438 165.383 166.539 166.313L119.445 177.537C115.545 178.467 113.138 182.381 114.067 186.28L120.142 211.767Z" fill="white"/>
<path d="M166.601 173.018C165.286 167.5 163.97 161.982 162.655 156.463C162.1 154.134 161.556 151.802 160.989 149.475C159.715 144.239 156.732 139.789 152.458 136.538C147.72 132.933 141.65 131.639 135.815 132.431C129.942 133.227 124.736 136.607 121.188 141.271C117.583 146.01 116.29 152.079 117.081 157.915C117.373 160.066 118.009 162.201 118.511 164.308C119.994 170.53 121.409 176.773 122.961 182.978C122.996 183.117 123.027 183.257 123.061 183.396C123.544 185.425 125.792 186.944 127.865 186.351C129.945 185.756 131.339 183.721 130.82 181.546C129.577 176.331 128.334 171.116 127.091 165.901C126.495 163.399 125.899 160.897 125.302 158.395C125.262 158.225 125.22 158.056 125.181 157.885C125.076 157.432 124.982 156.977 124.909 156.518C124.885 156.369 124.761 155.43 124.825 155.995C124.887 156.538 124.8 155.508 124.793 155.326C124.772 154.731 124.78 154.136 124.816 153.542C124.834 153.248 124.859 152.954 124.891 152.661C124.907 152.517 124.94 152.368 124.946 152.224C124.968 151.682 124.793 152.903 124.914 152.377C125.186 151.189 125.465 150.031 125.918 148.895C126.07 148.515 126.273 148.178 125.96 148.767C126.095 148.512 126.213 148.248 126.349 147.994C126.642 147.443 126.964 146.907 127.311 146.388C127.472 146.148 127.642 145.916 127.809 145.681C127.893 145.564 127.987 145.454 128.07 145.336C128.056 145.356 127.582 145.89 127.884 145.569C128.315 145.112 128.713 144.632 129.165 144.194C129.583 143.79 130.02 143.405 130.474 143.042C130.588 142.952 130.708 142.867 130.82 142.774C131.174 142.48 130.581 142.95 130.577 142.954C130.746 142.726 131.196 142.539 131.437 142.389C131.942 142.077 132.461 141.79 132.993 141.529C133.262 141.397 133.534 141.272 133.809 141.153C133.851 141.135 134.219 141.013 134.226 140.979C134.207 141.077 133.448 141.25 134.079 141.045C135.261 140.662 136.437 140.381 137.664 140.19C138.448 140.068 137.017 140.215 137.804 140.174C138.103 140.159 138.402 140.14 138.702 140.134C139.345 140.122 139.988 140.143 140.629 140.199C140.92 140.224 141.215 140.283 141.505 140.295C141.953 140.314 141.23 140.239 141.209 140.237C141.35 140.249 141.501 140.289 141.639 140.319C142.256 140.45 142.867 140.598 143.47 140.785C144.024 140.957 144.562 141.165 145.101 141.377C145.802 141.653 144.556 141.085 145.222 141.435C145.52 141.592 145.821 141.741 146.114 141.906C146.617 142.189 147.106 142.495 147.58 142.823C147.816 142.987 148.039 143.176 148.279 143.332C148.645 143.571 148.07 143.159 148.05 143.141C148.195 143.267 148.344 143.388 148.489 143.516C149.406 144.325 150.177 145.232 150.956 146.17C151.249 146.523 150.78 145.93 150.775 145.927C150.867 145.995 150.961 146.194 151.022 146.291C151.18 146.54 151.342 146.786 151.493 147.039C151.823 147.592 152.124 148.163 152.393 148.748C152.439 148.847 152.672 149.56 152.75 149.576C152.723 149.57 152.494 148.834 152.634 149.286C152.678 149.431 152.734 149.573 152.782 149.718C152.943 150.208 153.079 150.705 153.202 151.207C153.656 153.058 154.086 154.916 154.528 156.77C155.935 162.672 157.271 168.596 158.749 174.48C158.781 174.609 158.81 174.738 158.841 174.868C159.325 176.897 161.573 178.416 163.646 177.823C165.725 177.227 167.119 175.193 166.601 173.018Z" fill="white"/>
<path d="M154.913 190.879C153.978 186.956 150.04 184.534 146.117 185.469C142.195 186.404 139.773 190.342 140.707 194.265C141.328 196.87 143.274 198.812 145.66 199.549L145.861 211.772L158.21 208.828L152.876 197.829C154.673 196.095 155.534 193.484 154.913 190.879Z" fill="#2D5DDC"/>
<path d="M298.064 201.502L174.824 184.413C170.609 183.828 166.717 186.772 166.133 190.988L166.133 190.988C165.548 195.203 168.492 199.095 172.707 199.679L295.947 216.768C300.163 217.353 304.055 214.409 304.639 210.194C305.224 205.978 302.28 202.086 298.064 201.502Z" fill="#C4F03B"/>
<path d="M191.377 198.064L187.93 197.586L183.744 197.006L182.513 196.835L174.88 195.777L173.002 209.32C172.663 211.768 174.372 214.027 176.82 214.367C179.267 214.706 181.527 212.997 181.866 210.549L182.088 208.948C182.249 207.792 183.316 206.985 184.471 207.146C185.627 207.306 186.435 208.373 186.274 209.529L186.052 211.129C185.713 213.577 187.422 215.837 189.87 216.176C192.318 216.516 194.577 214.806 194.917 212.359L196.795 198.816L191.377 198.064Z" fill="#C4F03B"/>
<path d="M187.805 320.618H127.237L124.422 300.125C123.711 294.955 127.392 290.307 132.196 290.307H176.867C180.76 290.307 184.066 293.406 184.641 297.595L187.805 320.618Z" fill="#16A34A"/>
<path d="M91.1382 311.771C92.1641 319.237 98.0574 324.762 104.996 324.762H204.499C213.062 324.762 219.622 316.478 218.356 307.262L217.706 302.534H89.869L91.1382 311.771Z" fill="#16A34A"/>
<path d="M58.0676 94.9822C62.9037 92.4849 66.564 88.136 68.1672 82.9283C69.2603 79.3775 69.6558 75.5885 70.6329 71.9916C72.6806 64.4533 75.7212 56.842 80.8068 50.8118C86.3719 44.2131 94.1065 40.6343 102.775 41.034C109.826 41.3591 117.014 43.8411 121.447 49.5866C129.206 59.6417 127.172 74.8051 123.027 85.8927C121.273 90.5825 118.865 95.5791 115.095 98.9971C114.444 99.5875 113.782 100.079 112.981 100.495C112.476 100.757 111.632 101.016 111.154 101.028C109.871 101.06 108.413 100.802 106.851 101.053C104.722 101.395 102.622 102.239 100.826 103.43C97.6121 105.562 94.9282 109.325 96.7768 113.237C99.1029 118.16 105.449 119.787 110.419 119.559C113.212 119.43 115.963 118.838 118.625 118.006C122.172 116.897 125.726 115.814 129.29 114.76C136.395 112.657 143.458 110.453 150.492 108.124C177.89 99.0544 205.525 89.3631 234.532 87.2962C248.322 86.3137 262.229 87.1235 275.657 90.5289C285.521 93.0304 295.208 96.7251 303.787 102.259C312.163 107.661 319.51 115.082 323.235 124.468C327.685 135.684 326.825 148.606 321.379 159.324C316.8 168.333 309.332 175.327 300.29 179.742C297.433 181.137 294.575 182.532 291.717 183.927C289.016 185.246 286.236 186.429 283.916 188.384C279.822 191.832 277.42 197.014 277.313 202.351C277.275 204.226 277.302 206.104 277.298 207.979C277.282 214.075 277.31 220.174 277.252 226.27C277.238 227.684 276.829 228.998 275.7 229.939C273.471 231.8 270.017 230.913 268.902 228.252C268.46 227.198 267.187 227.197 266.744 228.252C265.221 231.884 260.359 231.619 258.72 228.284C258.362 227.553 257.148 227.553 256.789 228.284C254.777 232.376 248.484 231.355 248.45 226.577C248.441 225.204 248.573 223.815 248.634 222.444C248.813 218.405 248.992 214.367 249.171 210.328C249.236 208.876 247.054 208.912 246.934 210.328C246.487 215.618 246.24 220.965 245.591 226.233C245.298 228.607 243.442 230.074 241.125 230.161C238.638 230.254 236.196 230.354 233.878 229.248C231.911 228.309 230.279 226.51 230.27 224.221C230.264 222.84 230.473 221.426 230.573 220.049C230.684 218.523 230.578 216.72 231.08 215.251C232.031 212.469 234.57 211.904 237.169 212.025L236.05 210.907C235.697 214.858 235.344 218.809 234.991 222.76C234.862 224.195 237.096 224.182 237.228 222.76C238.171 212.602 239.114 202.445 240.057 192.288C240.191 190.844 240.326 189.4 240.46 187.957C240.523 187.279 239.686 186.625 239.044 186.878C237.343 187.547 235.642 188.217 233.941 188.886C231.897 189.69 229.84 190.768 227.613 189.903C223.958 188.484 223.171 183.484 226.232 181.02C227.238 180.21 228.625 179.74 229.788 179.205C233.968 177.283 238.148 175.361 242.328 173.439C242.994 173.133 243.659 172.827 244.325 172.521C244.503 172.439 245.201 172.143 244.636 172.371C245.32 172.095 246.004 171.823 246.679 171.526C254.753 167.974 262.449 162.545 267.56 155.276C270.943 150.464 273.025 144.653 273.025 138.736C273.025 135.999 271.913 133.471 269.81 131.699C267.398 129.666 264.279 128.642 261.222 128.06C257.153 127.286 252.968 127.191 248.841 127.394C238.586 127.9 228.365 130.142 218.628 133.335C209.14 136.446 199.611 140.532 191.596 146.577C188.381 149.002 185.36 151.767 183.113 155.136C180.966 158.356 179.395 162.573 179.54 166.482C179.637 169.114 180.871 171.825 183.639 172.489C186.041 173.065 188.605 171.972 190.253 170.226C196.645 163.458 188.979 154.321 183.543 150.028C180.35 147.507 176.873 145.392 173.284 143.488C172.012 142.813 170.881 144.744 172.154 145.42C177.997 148.519 184.34 152.303 188.121 157.916C189.833 160.458 191.109 163.799 189.879 166.775C189.066 168.743 187.135 170.27 185.314 170.395C184.402 170.457 183.653 170.264 183.103 169.803C182.331 169.157 181.967 168.246 181.824 167.14C181.365 163.577 182.944 159.529 184.841 156.578C186.878 153.408 189.736 150.765 192.726 148.509C200.405 142.713 209.47 138.747 218.549 135.715C227.964 132.571 237.825 130.319 247.748 129.693C251.741 129.442 255.82 129.419 259.779 130.068C262.633 130.535 265.704 131.314 268.02 133.111C270.036 134.675 270.85 136.738 270.777 139.248C270.61 144.987 268.458 150.408 265.028 154.973C260.054 161.592 252.734 166.505 245.185 169.752C240.128 171.928 234.142 174.752 228.834 177.193C227.817 177.66 226.742 178.074 225.77 178.634C222.838 180.323 221.405 183.928 222.364 187.173C223.252 190.179 226.037 192.325 229.156 192.477C231.185 192.576 233.049 191.628 234.889 190.904C236.472 190.281 238.055 189.658 239.638 189.036C239.166 188.676 238.694 188.317 238.222 187.957C237.279 198.114 236.336 208.272 235.393 218.429C235.259 219.872 235.125 221.316 234.991 222.76H237.228C237.581 218.809 237.934 214.858 238.288 210.907C238.343 210.284 237.729 209.814 237.169 209.788C234.624 209.669 232.23 210.045 230.431 212.047C228.986 213.656 228.663 215.551 228.513 217.612C228.229 221.512 227.126 225.92 229.996 229.146C231.809 231.183 234.579 232.128 237.221 232.413C238.529 232.553 239.821 232.44 241.125 232.398C242.646 232.349 244.034 231.978 245.257 231.039C248.265 228.733 247.964 224.623 248.252 221.218C248.558 217.588 248.865 213.958 249.171 210.328H246.934C246.775 213.915 246.616 217.501 246.457 221.088C246.282 225.019 245.346 229.672 249.288 232.174C252.606 234.279 257.017 232.878 258.721 229.413H256.789C257.953 231.783 260.412 233.321 263.077 233.172C265.779 233.022 267.882 231.279 268.902 228.847H266.744C267.755 231.258 269.825 232.991 272.5 233.167C274.938 233.328 277.326 232.059 278.573 229.961C279.797 227.902 279.492 225.314 279.497 223.015C279.514 216.555 279.53 210.094 279.546 203.634C279.556 199.715 280.423 196.027 282.792 192.822C285.025 189.8 288.115 188.17 291.385 186.573C298.059 183.314 305.054 180.401 310.887 175.72C319.507 168.803 325.577 158.809 327.568 147.922C329.707 136.227 327.208 124.074 320.208 114.426C314.153 106.079 305.52 99.9588 296.3 95.5346C286.37 90.7696 275.587 87.6676 264.705 86.0527C235.739 81.7538 206.502 88.0605 178.879 96.5368C164.454 100.963 150.261 106.115 135.82 110.482C132.262 111.558 128.693 112.595 125.133 113.661C121.765 114.669 118.423 115.908 114.991 116.679C109.799 117.846 102.081 117.954 98.9811 112.63C96.6769 108.672 101.534 105.121 104.759 103.921C106.734 103.186 108.534 103.102 110.6 103.253C111.39 103.311 112.201 103.185 112.948 102.927C117.233 101.448 120.168 96.8631 122.212 93.0891C125.216 87.5448 127.188 81.3759 128.159 75.1541C129.17 68.6689 129.193 61.7988 127.055 55.5247C124.947 49.3407 120.651 44.2126 114.653 41.4969C106.943 38.006 97.4252 37.7231 89.6655 41.1723C74.9446 47.7157 69.2865 65.4494 66.566 80.0158C65.5096 85.672 62.0619 90.4048 56.9386 93.0503C55.6588 93.7112 56.7889 95.6424 58.0676 94.9822Z" fill="#1A1A1A"/>
<path d="M181.083 159.046C180.284 161.128 179.66 163.318 179.548 165.556C179.472 167.068 179.677 168.654 180.414 169.998C181.634 172.224 184.194 173.045 186.577 172.433C189.141 171.775 191.141 169.731 192.062 167.296C193.308 163.999 192.247 160.322 190.472 157.438C189.097 155.202 187.281 153.243 185.321 151.511C182.534 149.047 179.421 146.958 176.205 145.099C175.242 144.542 174.267 144.007 173.283 143.488C172.749 143.206 172.067 143.352 171.753 143.889C171.457 144.394 171.618 145.137 172.154 145.42C175.493 147.183 178.925 149.236 181.814 151.495C182.973 152.402 184.09 153.363 185.137 154.398C185.603 154.857 186.054 155.331 186.487 155.821C186.674 156.033 186.858 156.248 187.038 156.466C187.135 156.583 187.23 156.702 187.325 156.821C187.363 156.868 187.399 156.915 187.437 156.962C187.277 156.759 187.443 156.971 187.478 157.017C188.106 157.856 188.682 158.734 189.162 159.667C189.261 159.861 189.357 160.056 189.447 160.254C189.496 160.36 189.54 160.469 189.59 160.575C189.446 160.267 189.601 160.605 189.634 160.69C189.793 161.094 189.932 161.507 190.046 161.927C190.147 162.298 190.223 162.672 190.289 163.051C190.295 163.089 190.299 163.128 190.306 163.166C190.345 163.387 190.277 162.875 190.297 163.097C190.303 163.173 190.314 163.248 190.322 163.324C190.34 163.518 190.353 163.712 190.359 163.906C190.371 164.252 190.362 164.598 190.331 164.942C190.324 165.019 190.314 165.095 190.307 165.172C190.286 165.415 190.358 164.877 190.31 165.152C190.281 165.315 190.254 165.479 190.219 165.642C190.151 165.948 190.066 166.251 189.961 166.547C189.938 166.613 189.913 166.68 189.888 166.746C189.874 166.782 189.858 166.818 189.845 166.855C189.792 166.997 189.779 166.846 189.895 166.738C189.809 166.818 189.755 167.047 189.7 167.156C189.571 167.411 189.427 167.658 189.27 167.896C189.192 168.013 189.108 168.124 189.028 168.239C188.903 168.418 189.217 168.014 189.055 168.203C189.003 168.264 188.954 168.327 188.903 168.387C188.721 168.598 188.528 168.799 188.324 168.988C188.231 169.074 188.136 169.157 188.039 169.238C188.022 169.252 187.896 169.373 187.877 169.368C187.923 169.379 188.145 169.174 187.904 169.343C187.681 169.5 187.456 169.649 187.218 169.782C187.113 169.841 187.007 169.897 186.899 169.949C186.839 169.978 186.779 170.005 186.719 170.034C186.477 170.149 186.845 169.988 186.77 170.014C186.532 170.097 186.3 170.19 186.056 170.256C185.941 170.288 185.824 170.315 185.707 170.339C185.658 170.349 185.608 170.359 185.559 170.367C185.409 170.394 185.223 170.348 185.599 170.367C185.374 170.355 185.136 170.41 184.907 170.407C184.793 170.406 184.68 170.401 184.566 170.391C184.514 170.387 184.46 170.377 184.407 170.375C184.314 170.372 184.764 170.441 184.477 170.381C184.253 170.335 184.032 170.286 183.816 170.21C183.766 170.192 183.718 170.171 183.669 170.154C183.48 170.093 183.957 170.297 183.759 170.192C183.656 170.137 183.549 170.09 183.448 170.032C183.351 169.976 183.258 169.914 183.165 169.852C183.154 169.845 183.037 169.757 183.036 169.758C183.083 169.708 183.287 169.974 183.164 169.855C183.133 169.826 183.098 169.802 183.067 169.774C182.892 169.613 182.743 169.439 182.583 169.265C182.527 169.205 182.769 169.533 182.619 169.307C182.59 169.264 182.56 169.222 182.531 169.178C182.458 169.066 182.389 168.951 182.326 168.833C182.3 168.785 182.12 168.499 182.144 168.455C182.123 168.493 182.261 168.765 182.174 168.521C182.144 168.437 182.112 168.354 182.084 168.269C181.989 167.982 181.917 167.687 181.863 167.39C181.848 167.306 181.837 167.222 181.822 167.138C181.79 166.967 181.853 167.444 181.828 167.175C181.81 166.984 181.791 166.793 181.782 166.6C181.763 166.21 181.768 165.819 181.792 165.43C181.804 165.234 181.82 165.038 181.841 164.843C181.853 164.73 181.868 164.618 181.881 164.505C181.846 164.803 181.881 164.514 181.901 164.384C182.064 163.35 182.325 162.333 182.642 161.337C182.824 160.765 183.025 160.201 183.24 159.641C183.457 159.077 183.001 158.414 182.459 158.265C181.828 158.092 181.3 158.48 181.083 159.046Z" fill="#1A1A1A"/>
<path d="M113.745 101.364C111.711 101.49 109.665 101.426 107.643 101.174C100.428 100.273 93.7479 97.0245 87.2202 93.8228C89.5866 98.1757 95.7193 103.018 100.473 104.416C100.473 104.416 100.929 103.055 105.605 102.509C110.281 101.964 113.745 101.364 113.745 101.364Z" fill="#1A1A1A"/>
<path d="M113.745 100.245C110.117 100.46 106.529 100.057 103.02 99.124C99.6506 98.2283 96.4078 96.9237 93.243 95.4728C91.4088 94.632 89.5963 93.7452 87.7849 92.8567C86.7978 92.3727 85.6926 93.3657 86.2543 94.3873C87.3648 96.4071 88.947 98.1786 90.6426 99.7252C92.4546 101.378 94.4698 102.854 96.6372 104.007C97.7654 104.607 98.9498 105.128 100.175 105.494C100.783 105.676 101.356 105.274 101.551 104.713C101.411 105.115 101.426 104.979 101.521 104.838C101.465 104.92 101.311 105.061 101.493 104.893C101.523 104.866 101.555 104.838 101.583 104.809C101.732 104.655 101.593 104.817 101.538 104.837C101.803 104.739 102.075 104.511 102.336 104.385C102.473 104.318 102.141 104.46 102.291 104.403C102.331 104.388 102.37 104.37 102.41 104.356C102.527 104.314 102.642 104.27 102.759 104.231C103.035 104.139 103.314 104.059 103.596 103.99C105.078 103.622 106.612 103.514 108.122 103.315C109.499 103.135 110.875 102.942 112.248 102.731C112.846 102.639 113.445 102.545 114.042 102.442C114.638 102.339 114.972 101.608 114.823 101.066C114.65 100.436 114.045 100.182 113.447 100.285C111.627 100.6 109.796 100.86 107.964 101.099C106.272 101.32 104.544 101.434 102.886 101.861C102.025 102.084 101.113 102.387 100.39 102.919C99.9564 103.238 99.5748 103.6 99.394 104.118C99.8527 103.858 100.311 103.597 100.77 103.337C98.2571 102.586 95.8074 101.089 93.6866 99.3917C91.5141 97.6535 89.5076 95.6615 88.1862 93.2581C87.676 93.7682 87.1658 94.2784 86.6557 94.7886C93.2386 98.0172 99.9676 101.277 107.315 102.25C109.448 102.532 111.597 102.609 113.745 102.482C114.348 102.446 114.863 101.994 114.863 101.364C114.863 100.786 114.351 100.209 113.745 100.245Z" fill="#1A1A1A"/>
<path d="M258.855 228.725V209.584C258.855 208.144 256.618 208.142 256.618 209.584V228.725C256.618 230.165 258.855 230.167 258.855 228.725Z" fill="#1A1A1A"/>
<path d="M269.047 228.85V209.709C269.047 208.269 266.81 208.267 266.81 209.709V228.85C266.81 230.29 269.047 230.292 269.047 228.85Z" fill="#1A1A1A"/>
<path d="M145.829 284.766C180.801 287.727 215.943 288.847 251.024 287.558C258.744 287.274 266.558 287.129 274.207 285.954C281.114 284.894 287.907 282.697 293.372 278.205C298.362 274.103 301.943 268.383 307.392 264.824C309.872 263.204 314.527 260.756 316.585 264.137C317.439 265.539 317.647 267.335 317.845 268.927C318.126 271.183 318.316 273.451 318.426 275.722C318.883 285.129 317.897 294.534 316.122 303.766C315.253 308.293 314.205 312.783 313.063 317.248C312.173 320.729 310.304 327.119 305.367 325.6L306.149 326.976C306.311 326.231 307.187 326.294 307.799 326.467C308.76 326.738 309.375 327.559 309.761 328.441C310.447 330.006 310.391 332.172 309.14 333.453C307.434 335.199 304.252 335.459 301.974 335.652C295.948 336.163 289.898 335.54 283.862 335.948C263.379 337.332 242.855 338.107 222.327 338.342C201.767 338.577 181.199 338.251 160.661 337.268C140.083 336.282 119.536 334.619 99.0761 332.203C89.545 331.078 80.0465 329.729 70.5474 328.364C63.3459 327.329 56.1217 326.226 49.1066 324.253C42.2746 322.332 35.5741 319.522 29.9777 315.08C23.5202 309.954 19.0836 302.966 16.1981 295.303C12.8336 286.368 11.4518 276.825 10.6989 267.351C9.89091 257.185 9.87611 246.967 10.4189 236.787C11.5269 216.008 14.9349 195.443 18.6326 174.992C20.3925 165.259 22.0112 155.465 24.3952 145.86C26.589 137.022 29.3847 127.83 34.4963 120.194C38.7568 113.83 45.6018 108.731 53.6291 110.206C56.952 110.816 60.2286 112.628 61.8264 115.716C63.2748 118.515 62.7174 122.013 61.1471 124.637C59.6356 127.163 56.9628 129.068 53.9165 128.501L54.6978 129.877C55.3129 127.018 58.1438 125.975 60.8197 126.116C64.0687 126.286 66.476 128.18 67.9307 131.012C69.7844 134.62 69.9378 138.881 70.1143 142.85C70.2836 146.657 70.531 150.455 70.9314 154.245C72.5599 169.662 76.2685 184.874 82.4243 199.12C88.4899 213.158 97.0566 226.218 108.196 236.755C118.881 246.861 135.469 258.629 150.531 250.621C153.866 248.848 156.837 246.182 158.711 242.881C160.83 239.149 160.843 235.477 160.383 231.336C160.169 229.413 159.863 226.886 161.48 225.44C162.899 224.17 165.037 224.615 166.522 225.516C171.063 228.274 169.501 234.553 168.422 238.752C168.144 239.836 169.486 240.625 170.292 239.841C177.557 232.773 184.822 225.705 192.087 218.636C194.229 216.553 200.048 210.029 202.712 214.908C204.835 218.795 201.044 222.508 198.468 224.955L200.225 226.311C201.785 224.238 203.557 221.822 206.114 220.941C208.31 220.184 211.469 220.803 211.846 223.496C212.232 226.253 209.893 228.591 207.952 230.173C205.922 231.828 203.831 233.332 202.441 235.604C201.84 236.586 203.016 237.657 203.971 237.134C207.002 235.477 208.824 232.484 211.631 230.576C214.153 228.862 219.288 228.28 219.027 232.694C218.827 236.064 215.986 238.253 213.349 239.846C210.646 241.479 207.909 243.023 206.157 245.746C205.631 246.564 206.504 247.669 207.42 247.39C210.272 246.522 212.471 244.63 214.702 242.736C216.862 240.901 219.059 239.232 222.015 239.215C224.552 239.2 227.119 240.779 226.143 243.669C225.164 246.569 221.905 248.585 219.611 250.373C209.52 258.239 198.622 265.076 187.203 270.841C164.434 282.337 139.472 289.55 114.091 292.054C101.508 293.296 88.8098 293.393 76.2126 292.294C69.8073 291.736 63.4321 290.863 57.1138 289.671C53.4366 288.977 49.8044 288.394 46.4175 286.77C43.3166 285.284 40.3329 283.523 37.4978 281.578C34.6033 279.593 31.6341 277.346 29.51 274.514C28.2075 272.778 27.0017 270.387 28.7728 268.548C32.7994 264.368 39.8329 266.774 44.5338 268.207C47.9904 269.26 51.3784 270.525 54.8344 271.581C58.4338 272.68 62.1037 273.574 65.7684 274.427C73.2239 276.161 80.7558 277.555 88.3201 278.721C103.587 281.074 118.977 282.492 134.363 283.798C138.185 284.123 142.008 284.441 145.829 284.766C147.264 284.888 147.256 282.65 145.829 282.529C113.159 279.755 79.8638 277.624 48.5609 267.156C42.7355 265.208 35.5447 262.358 29.6287 265.273C27.0207 266.557 25.1136 268.888 25.7513 271.916C26.4035 275.015 29.0174 277.598 31.2995 279.608C34.2736 282.227 37.6004 284.462 41.028 286.441C43.5437 287.894 46.2255 289.416 49.0285 290.244C51.6933 291.032 54.5207 291.461 57.2505 291.965C60.6002 292.584 63.9661 293.111 67.343 293.558C80.6161 295.314 94.0589 295.727 107.417 294.842C134.273 293.063 160.754 286.111 184.998 274.418C197.13 268.567 208.687 261.517 219.395 253.343C223.078 250.531 231.467 245.261 227.742 239.58C224.781 235.064 218.155 237.152 214.764 239.802C212.236 241.778 209.979 244.273 206.826 245.232L208.089 246.876C210.303 243.433 214.493 242.244 217.519 239.708C220.013 237.618 222.07 233.859 220.987 230.558C219.809 226.963 215.705 226.325 212.571 227.569C208.586 229.151 206.525 233.189 202.842 235.203L204.373 236.733C206.29 233.601 209.866 232.106 212.084 229.241C213.938 226.847 215.041 223.346 213.044 220.693C211.38 218.483 208.246 217.972 205.708 218.728C202.435 219.702 200.255 222.574 198.294 225.182C197.508 226.226 199.164 227.38 200.05 226.537C203.155 223.586 206.631 219.75 205.202 215.11C204.625 213.24 203.273 211.655 201.337 211.142C199.149 210.562 196.945 211.526 195.194 212.791C192.996 214.38 191.135 216.442 189.198 218.327C186.873 220.589 184.548 222.85 182.223 225.112C177.719 229.494 173.214 233.877 168.71 238.259L170.58 239.347C171.606 235.35 172.672 230.788 170.751 226.879C169.394 224.118 166.139 222.136 163.04 222.458C159.457 222.831 157.9 226.175 157.993 229.452C158.051 231.476 158.538 233.468 158.521 235.496C158.505 237.334 158.06 239.164 157.266 240.821C153.73 248.2 145.214 251.672 137.395 250.834C128.307 249.859 120.226 244.259 113.459 238.481C101.142 227.965 91.7364 214.451 85.1217 199.728C78.3827 184.729 74.4723 168.454 72.9569 152.106C72.5828 148.071 72.4801 144.028 72.1979 139.988C71.9269 136.108 71.3446 132.022 69.1753 128.697C66.1744 124.096 58.8752 121.858 54.4335 125.91C53.4497 126.808 52.8188 127.988 52.5404 129.282C52.4217 129.834 52.7005 130.543 53.3217 130.658C59.9744 131.898 65.0516 125.259 64.8927 119.064C64.7011 111.598 57.0427 107.536 50.3189 107.734C41.895 107.983 35.5086 114.013 31.4044 120.903C26.3404 129.405 23.5537 139.293 21.3826 148.874C18.9984 159.396 17.2243 170.074 15.3488 180.695C13.4239 191.596 11.6451 202.525 10.2896 213.512C7.62665 235.098 6.45217 257.291 9.76871 278.876C11.2509 288.523 13.9557 298.287 19.2944 306.559C23.4845 313.052 29.3692 318.192 36.2324 321.707C43.0607 325.205 50.5465 327.187 58.0509 328.608C66.4992 330.207 75.0667 331.296 83.5831 332.464C105.661 335.489 127.859 337.622 150.104 338.94C172.243 340.252 194.428 340.77 216.605 340.631C238.835 340.491 261.065 339.713 283.247 338.227C286.533 338.007 289.724 337.93 293.014 338.012C296.35 338.095 299.713 338.166 303.034 337.785C305.603 337.49 308.574 337.018 310.553 335.195C313.045 332.9 312.935 328.649 310.945 326.085C309.332 324.008 304.744 322.93 303.991 326.382C303.859 326.986 304.168 327.572 304.772 327.758C308.023 328.758 311.202 326.866 312.918 324.135C315.053 320.736 315.659 316.233 316.56 312.388C318.529 303.976 320.055 295.433 320.58 286.8C320.852 282.328 320.851 277.837 320.52 273.368C320.274 270.059 320.264 265.959 318.517 263.008C314.599 256.39 305.661 262.844 301.952 266.373C296.83 271.247 292.767 276.947 286.256 280.134C279.317 283.531 271.381 284.298 263.775 284.741C245.336 285.817 226.826 286.04 208.361 285.742C187.487 285.405 166.631 284.29 145.829 282.529C144.395 282.407 144.403 284.645 145.829 284.766Z" fill="#1A1A1A"/>
<path d="M226.222 258.539C240.883 259.02 255.556 259.137 270.222 258.845C277.555 258.698 284.887 258.45 292.213 258.095C298.385 257.796 304.607 257.461 310.653 256.095C316.422 254.792 321.909 252.433 326.396 248.521C330.494 244.947 333.701 240.455 337.936 237.029C339.924 235.421 342.269 234.019 344.794 233.479C346.094 233.2 347.44 233.33 348.385 234.34C349.187 235.196 349.542 236.407 349.79 237.525C350.122 239.019 350.261 240.56 350.41 242.081C350.582 243.83 350.702 245.585 350.775 247.341C350.919 250.846 350.868 254.359 350.651 257.86C350.22 264.789 349.124 271.655 347.676 278.44C346.945 281.863 346.127 285.266 345.254 288.655C344.556 291.364 343.751 294.528 341.168 296.053C340.091 296.69 338.883 296.926 337.684 296.516C337.944 296.974 338.205 297.433 338.465 297.892C338.485 297.768 338.504 297.636 338.554 297.52C338.5 297.645 338.685 297.423 338.574 297.524C338.685 297.423 338.581 297.475 338.764 297.391C338.793 297.377 338.866 297.345 339.011 297.314C339.395 297.232 339.963 297.292 340.434 297.486C341.537 297.941 342.185 299.29 342.423 300.448C342.56 301.117 342.553 301.836 342.401 302.501C342.323 302.839 342.222 303.173 342.071 303.485C342.006 303.618 341.934 303.75 341.856 303.876C341.829 303.92 341.67 304.153 341.74 304.058C341.815 303.957 341.655 304.159 341.626 304.191C341.564 304.259 341.501 304.326 341.435 304.391C341.357 304.468 341.275 304.54 341.193 304.613C341.158 304.645 341.12 304.675 341.083 304.704C340.951 304.81 341.218 304.606 341.078 304.706C340.711 304.966 340.32 305.182 339.913 305.372C339.864 305.395 339.814 305.418 339.764 305.439C339.786 305.43 339.895 305.385 339.774 305.434C339.669 305.477 339.562 305.518 339.456 305.557C339.216 305.645 338.973 305.725 338.728 305.798C338.204 305.954 337.671 306.08 337.135 306.186C335.975 306.414 334.896 306.529 333.692 306.614C331.152 306.792 328.601 306.766 326.057 306.707C323.798 306.655 321.513 306.498 319.255 306.651C317.826 306.747 317.816 308.985 319.255 308.888C321.513 308.735 323.798 308.893 326.057 308.945C328.914 309.01 331.784 309.041 334.632 308.774C337.086 308.545 339.792 308.181 341.919 306.832C344.525 305.179 345.372 301.757 344.311 298.914C343.641 297.117 342.316 295.501 340.347 295.142C338.699 294.841 336.615 295.382 336.308 297.297C336.208 297.923 336.464 298.459 337.089 298.673C340.077 299.695 343.177 297.955 344.903 295.547C346.812 292.883 347.399 289.366 348.168 286.248C349.895 279.243 351.344 272.166 352.223 265.001C353.097 257.88 353.365 250.676 352.777 243.52C352.629 241.723 352.446 239.923 352.172 238.141C351.963 236.782 351.629 235.426 350.987 234.201C350.364 233.012 349.4 232.026 348.148 231.515C346.548 230.863 344.762 231.09 343.156 231.604C337.779 233.327 333.855 237.555 330.133 241.582C328.24 243.63 326.34 245.687 324.189 247.47C321.927 249.344 319.322 250.837 316.599 251.933C310.875 254.238 304.683 255.056 298.568 255.496C291.372 256.015 284.144 256.239 276.933 256.445C261.856 256.874 246.767 256.867 231.689 256.465C229.867 256.416 228.044 256.362 226.222 256.302C224.782 256.255 224.783 258.492 226.222 258.539Z" fill="#1A1A1A"/>
<path d="M200.046 223.232C198.709 224.703 197.373 226.175 196.036 227.646C193.917 229.979 191.798 232.313 189.679 234.646C189.189 235.185 188.7 235.723 188.21 236.262C187.804 236.709 187.769 237.402 188.21 237.844C188.623 238.256 189.385 238.293 189.792 237.844C191.129 236.373 192.466 234.901 193.802 233.43C195.921 231.097 198.041 228.763 200.16 226.43C200.649 225.891 201.138 225.353 201.628 224.814C202.034 224.367 202.07 223.673 201.628 223.232C201.216 222.82 200.454 222.783 200.046 223.232Z" fill="#1A1A1A"/>
<path d="M207.13 231.313C205.653 232.644 204.176 233.974 202.7 235.305C200.358 237.415 198.017 239.525 195.675 241.635C195.134 242.122 194.594 242.609 194.053 243.097C193.604 243.501 193.641 244.267 194.053 244.679C194.499 245.125 195.185 245.084 195.635 244.679C197.112 243.348 198.589 242.017 200.065 240.686C202.407 238.577 204.748 236.467 207.09 234.357C207.631 233.869 208.171 233.382 208.712 232.895C209.161 232.49 209.124 231.724 208.712 231.313C208.266 230.866 207.58 230.907 207.13 231.313Z" fill="#1A1A1A"/>
<path d="M214.491 239.688C212.863 240.828 211.234 241.968 209.606 243.108L201.86 248.532C201.264 248.949 200.668 249.367 200.071 249.784C199.577 250.13 199.347 250.763 199.67 251.315C199.956 251.804 200.703 252.064 201.201 251.716C202.829 250.576 204.457 249.436 206.086 248.295C208.668 246.488 211.25 244.68 213.832 242.872C214.428 242.454 215.024 242.037 215.62 241.619C216.115 241.273 216.344 240.641 216.022 240.089C215.736 239.6 214.988 239.339 214.491 239.688Z" fill="#1A1A1A"/>
<path d="M219.758 161.989C219.33 161.637 213.679 167.094 213.114 167.652C211.126 169.613 208.985 171.602 207.27 173.801C209.807 168.485 211.942 163.005 214.58 157.727C216.306 159.147 218.032 160.568 219.758 161.989Z" fill="#C4F03B"/>
<path d="M193.917 179.424C194.9 177.164 195.691 174.836 196.24 172.432C196.371 171.862 196.066 171.194 195.459 171.056C194.89 170.926 194.223 171.227 194.083 171.837C193.824 172.968 193.517 174.088 193.156 175.192C192.813 176.24 192.38 177.388 191.985 178.295C191.752 178.83 191.809 179.521 192.386 179.826C192.87 180.081 193.668 179.997 193.917 179.424Z" fill="#C4F03B"/>
<path d="M102.788 192.376C102.971 192.435 103.152 192.497 103.333 192.564C103.423 192.597 103.512 192.631 103.602 192.667C103.646 192.685 103.691 192.703 103.735 192.721C103.847 192.767 103.824 192.757 103.667 192.692C103.672 192.718 103.9 192.795 103.931 192.809C104.018 192.849 104.105 192.89 104.192 192.932C104.364 193.016 104.535 193.103 104.704 193.195C105.042 193.379 105.371 193.577 105.691 193.791C105.851 193.898 106.008 194.008 106.163 194.122C106.202 194.15 106.24 194.179 106.278 194.208C106.373 194.28 106.355 194.266 106.224 194.165C106.264 194.16 106.414 194.317 106.449 194.345C106.686 194.538 106.922 194.673 107.24 194.673C107.514 194.673 107.842 194.551 108.031 194.345C108.406 193.936 108.515 193.158 108.031 192.763C106.641 191.631 105.091 190.769 103.382 190.218C102.825 190.039 102.136 190.428 102.006 191C101.867 191.612 102.191 192.184 102.788 192.376Z" fill="#C4F03B"/>
<path d="M112.035 208.379C108.991 208.542 105.972 209.171 103.116 210.237C103.751 212.25 104.496 214.228 105.345 216.16C107.124 213.19 109.396 210.516 112.039 208.28" fill="#C4F03B"/>
<path d="M119.392 231.858C120.138 230.473 120.884 229.087 121.63 227.701C121.907 227.186 121.776 226.46 121.229 226.171C120.708 225.896 119.994 226.022 119.698 226.572C118.952 227.958 118.206 229.343 117.46 230.729C117.183 231.244 117.314 231.971 117.861 232.26C118.382 232.535 119.095 232.409 119.392 231.858Z" fill="#C4F03B"/>
<path d="M107.806 171.466C108.573 172.517 109.34 173.568 110.107 174.618C110.284 174.861 110.476 175.05 110.776 175.133C111.043 175.206 111.4 175.173 111.638 175.02C111.876 174.866 112.087 174.636 112.152 174.351C112.215 174.075 112.213 173.728 112.039 173.489C111.272 172.438 110.505 171.388 109.738 170.337C109.561 170.094 109.369 169.905 109.07 169.823C108.802 169.749 108.445 169.782 108.208 169.936C107.969 170.09 107.759 170.319 107.694 170.604C107.631 170.88 107.632 171.227 107.806 171.466Z" fill="#C4F03B"/>
<path d="M213.7 183.79C214.233 183.683 214.765 183.577 215.298 183.47C215.444 183.435 215.571 183.368 215.679 183.27C215.801 183.191 215.897 183.086 215.967 182.956C216.049 182.827 216.093 182.689 216.1 182.54C216.133 182.391 216.126 182.242 216.08 182.094C215.992 181.823 215.824 181.562 215.566 181.425L215.298 181.312C215.1 181.259 214.902 181.259 214.704 181.312C214.171 181.419 213.638 181.526 213.105 181.633C212.959 181.668 212.833 181.734 212.724 181.833C212.603 181.912 212.507 182.017 212.436 182.147C212.355 182.275 212.31 182.414 212.304 182.563C212.27 182.712 212.277 182.86 212.324 183.009C212.411 183.28 212.579 183.541 212.838 183.678L213.105 183.79C213.303 183.844 213.501 183.844 213.7 183.79Z" fill="#C4F03B"/>
<path d="M152.117 43.6352C149.392 48.1935 142.957 50.1191 138.229 47.7009C141.112 51.6114 140.112 57.8149 136.146 60.6212C132.18 63.4274 125.997 62.3064 123.269 58.2864C122.958 57.8284 122.735 57.1075 123.198 56.8037C124.17 58.9645 123.055 61.6754 121.081 62.9861C119.107 64.2968 116.523 64.396 114.229 63.8028C111.935 63.2097 109.858 61.9969 107.806 60.8117C106.005 59.7713 102.734 57.5955 100.525 58.3409C98.6308 58.9802 96.17 62.3148 94.9539 63.8456C93.4332 65.7598 92.2384 67.9959 91.8959 70.4164C91.8333 70.8584 91.8436 71.3998 92.2223 71.6361C94.7425 67.4906 94.8112 59.393 89.9929 56.6642C87.4869 55.245 84.0425 56.1788 82.265 58.4448C79.4583 62.0226 81.7584 65.2294 81.702 69.0703C81.6592 71.9888 79.3621 74.491 76.6932 75.6729C74.0243 76.8549 71.0255 76.9814 68.1086 77.0898C67.4087 71.954 65.4283 67.0943 64.0354 62.1017C62.6426 57.1091 61.8514 51.7031 63.5319 46.7999C65.2124 41.8966 69.9843 37.7517 75.1414 38.2718C74.6565 34.2345 78.5563 30.7421 82.5782 30.1427C87.0514 29.476 91.4097 31.4285 95.8481 31.4385C101.32 31.451 106.592 29.0858 111.42 26.7455C118.155 23.4815 125.704 19.9951 132.833 22.2706C134.79 22.8951 136.675 24.0062 137.771 25.7434C138.867 27.4806 138.996 29.916 137.709 31.5173C136.423 33.1187 133.636 33.3853 132.337 31.7937C134.35 28.5016 138.046 26.3028 141.9 26.1051C150.77 25.6502 156.693 35.981 152.117 43.6352Z" fill="#1A1A1A"/>
<path d="M151.151 43.0703C149.93 45.0831 147.886 46.5392 145.627 47.2053C143.348 47.8771 140.868 47.7786 138.794 46.7348C138.346 46.5095 137.805 46.5431 137.438 46.9097C137.111 47.2365 136.975 47.8687 137.263 48.2653C139.369 51.1665 139.223 55.151 137.156 58.0679C136.191 59.4304 134.67 60.4227 132.976 60.8334C132.112 61.0431 131.354 61.1017 130.356 61.0334C129.592 60.981 128.753 60.8028 127.891 60.4886C127.144 60.2166 126.067 59.5977 125.462 59.0706C125.08 58.7382 124.72 58.3712 124.409 57.971C124.523 58.1177 124.294 57.8072 124.302 57.8191C124.212 57.69 124.144 57.5548 124.064 57.4207L124.088 57.4684C124.058 57.3308 124.048 57.3187 124.056 57.4322C124.056 57.293 124.051 57.289 124.041 57.42C123.861 57.6685 123.843 57.7267 123.989 57.5946L122.232 57.3682C122.184 57.2583 122.257 57.4504 122.258 57.4526C122.28 57.5328 122.309 57.611 122.33 57.6915C122.34 57.7267 122.427 58.1404 122.407 58.0026C122.43 58.1652 122.436 58.3329 122.436 58.4968C122.436 58.5794 122.434 58.6623 122.43 58.7449C122.43 58.738 122.397 59.0951 122.418 58.9429C122.318 59.6724 122.096 60.1901 121.712 60.7882C120.987 61.9154 119.752 62.6126 118.335 62.9013C115.013 63.5785 111.747 61.7897 108.931 60.169C107.748 59.4883 106.591 58.7532 105.36 58.1607C104.042 57.5264 102.537 56.9267 101.044 57.1012C99.6198 57.2679 98.4909 58.1622 97.4932 59.136C96.4978 60.1077 95.6227 61.1967 94.7645 62.2889C93.6478 63.7103 92.563 65.1288 91.8248 66.7921C91.4143 67.7169 91.0771 68.6705 90.8913 69.6671C90.6796 70.8027 90.6602 71.8437 91.6577 72.6019C92.1434 72.9711 92.9067 72.6694 93.1882 72.2006C94.7813 69.5478 95.3114 66.169 94.9226 63.1247C94.5055 59.8581 92.9063 56.5583 89.6743 55.2906C85.8125 53.7758 81.3578 56.3459 80.0969 60.1272C79.4566 62.0474 79.8534 64.0602 80.2264 65.9882C80.5683 67.7554 80.857 69.5742 80.0712 71.1358C77.8933 75.4636 72.4563 75.8088 68.1087 75.971C68.4682 76.2448 68.8278 76.5186 69.1874 76.7923C68.2839 70.2953 65.3859 64.3037 64.1887 57.8746C63.626 54.8523 63.4469 51.674 64.1599 48.6611C64.7589 46.1301 65.9754 43.8916 67.8778 42.1015C69.8709 40.2261 72.4096 39.1353 75.1414 39.3902C75.6995 39.4423 76.3213 38.8336 76.2601 38.2716C76.1443 37.2077 76.3087 36.2699 76.74 35.4133C77.2302 34.4399 77.856 33.7192 78.7224 33.013C79.4832 32.3929 80.5353 31.8424 81.4901 31.5421C82.6891 31.1652 83.9344 31.0856 85.185 31.1362C88.0735 31.253 90.8779 32.0928 93.7424 32.4239C96.6374 32.7585 99.5643 32.3858 102.363 31.6111C107.94 30.0673 112.891 26.9936 118.242 24.8778C123.077 22.9656 128.981 21.473 133.902 23.8898C134.925 24.3918 135.897 25.061 136.57 25.9612C137.257 26.8811 137.568 27.9086 137.507 29.0149C137.485 29.3999 137.338 29.9839 137.144 30.3447C136.932 30.7396 136.602 31.1066 136.342 31.2692C136.229 31.3403 136.115 31.4059 135.996 31.4684C135.831 31.5558 136.02 31.4732 135.844 31.5377C135.611 31.6229 135.37 31.6869 135.126 31.7272C134.938 31.7583 135.274 31.7191 135.084 31.7295C135.028 31.7326 134.971 31.7378 134.914 31.7399C134.801 31.7442 134.688 31.7435 134.575 31.7377C134.519 31.7348 134.255 31.6959 134.428 31.7275C134.282 31.7009 134.138 31.6669 133.997 31.6222C133.948 31.6066 133.707 31.5025 133.855 31.5733C133.756 31.5258 133.662 31.4702 133.567 31.4143C133.546 31.4019 133.392 31.297 133.525 31.3972C133.481 31.3642 133.439 31.326 133.399 31.2882C133.303 31.197 133.214 31.1033 133.128 31.0025C133.186 31.4543 133.245 31.9062 133.303 32.3581C134.619 30.2354 136.72 28.5823 139.069 27.7875C140.299 27.3713 141.429 27.1827 142.711 27.2119C142.977 27.2179 143.241 27.2337 143.505 27.2593C143.561 27.2648 143.617 27.2716 143.673 27.2771C143.862 27.2961 143.52 27.2533 143.708 27.2802C143.854 27.3012 144 27.3259 144.145 27.3533C144.664 27.451 145.174 27.588 145.672 27.7625C145.791 27.8042 145.908 27.8488 146.025 27.8938C146.05 27.9033 146.257 27.9875 146.14 27.9388C146.036 27.895 146.198 27.9643 146.204 27.9671C146.447 28.0787 146.687 28.1931 146.923 28.3196C147.375 28.5625 147.81 28.8374 148.225 29.1408C148.282 29.1825 148.339 29.2245 148.395 29.2676C148.357 29.2386 148.249 29.1503 148.418 29.2888C148.514 29.367 148.609 29.4456 148.703 29.5263C148.904 29.6991 149.099 29.8787 149.287 30.0648C149.463 30.2385 149.634 30.4178 149.799 30.6022C149.881 30.6944 149.962 30.7881 150.041 30.8828C150.076 30.9234 150.11 30.9641 150.143 31.0052C150.138 30.999 150.323 31.231 150.253 31.1414C150.22 31.098 150.377 31.3077 150.421 31.3681C150.493 31.4686 150.564 31.5703 150.633 31.673C150.782 31.8933 150.924 32.1183 151.058 32.3477C151.183 32.562 151.302 32.7802 151.415 33.0017C151.471 33.1125 151.525 33.2242 151.578 33.3367C151.608 33.401 151.637 33.4658 151.667 33.5304C151.682 33.5629 151.776 33.7831 151.702 33.6057C151.901 34.0816 152.066 34.572 152.202 35.0694C152.268 35.3102 152.326 35.5529 152.376 35.7973C152.402 35.9196 152.425 36.0422 152.447 36.1653C152.457 36.2266 152.515 36.6077 152.487 36.3977C152.566 36.9838 152.594 37.5784 152.58 38.1694C152.573 38.4584 152.555 38.747 152.525 39.0346C152.518 39.1068 152.51 39.1788 152.501 39.2509C152.48 39.4362 152.527 39.0931 152.497 39.2778C152.471 39.4401 152.445 39.6021 152.413 39.7634C152.159 41.0594 151.794 41.982 151.151 43.0703C150.417 44.3127 152.35 45.4397 153.083 44.1996C155.594 39.95 155.291 34.505 152.505 30.456C151.172 28.5183 149.354 26.9102 147.186 25.9712C144.699 24.8943 141.947 24.7008 139.321 25.3778C136.045 26.2225 133.152 28.3563 131.371 31.229C131.093 31.6773 131.227 32.2097 131.546 32.5846C133.229 34.5617 136.527 34.3182 138.272 32.5627C140.277 30.5464 140.114 27.1032 138.542 24.8889C136.86 22.5192 134.07 21.2434 131.276 20.7274C128.207 20.1608 125.075 20.4648 122.072 21.2473C116.044 22.818 110.76 26.1957 104.977 28.3922C102.11 29.4814 99.0978 30.3004 96.0123 30.3195C92.9257 30.3386 89.9308 29.4229 86.8857 29.0444C84.028 28.6892 81.1249 28.9178 78.5985 30.4005C76.4331 31.6714 74.5216 33.8102 74.0992 36.3535C73.9929 36.9934 73.9526 37.6261 74.0228 38.2717L75.1415 37.153C69.4131 36.6185 64.4092 41.1465 62.5407 46.2558C60.1703 52.7372 62.0853 59.8243 64.0825 66.1249C65.2557 69.826 66.4934 73.5276 67.0301 77.3872C67.0945 77.8507 67.6664 78.2249 68.1088 78.2084C72.3729 78.0493 77.0193 77.7434 80.2548 74.6016C81.6548 73.2422 82.6068 71.4842 82.7949 69.5308C82.9775 67.6334 82.4002 65.738 82.1054 63.8812C82.0025 63.2331 81.9343 62.1441 82.0542 61.5011C82.2169 60.6275 82.5763 59.8405 83.1344 59.138C84.1239 57.8925 85.6721 57.1616 87.1471 57.1129C88.6151 57.0644 89.8086 57.6622 90.7757 58.7026C90.8803 58.8151 90.9788 58.9322 91.0777 59.0496C91.2908 59.3022 90.9649 58.8753 91.1525 59.1481C91.1913 59.2045 91.2322 59.2595 91.2709 59.316C91.4855 59.6295 91.6765 59.9588 91.8455 60.299C91.8765 60.3615 91.9068 60.4243 91.9363 60.4875C91.9435 60.5028 92.0831 60.8192 91.993 60.6055C92.0616 60.7684 92.1235 60.9344 92.1821 61.1011C92.3009 61.4393 92.4017 61.7838 92.4862 62.1321C92.706 63.0376 92.7618 63.5055 92.7936 64.4492C92.8078 64.8752 92.803 65.3017 92.7801 65.7273C92.7692 65.9302 92.7542 66.1329 92.735 66.3351C92.7246 66.4451 92.7114 66.5547 92.7002 66.6646C92.6753 66.9085 92.7233 66.5386 92.6826 66.8031C92.5578 67.6142 92.3788 68.4148 92.1188 69.1938C92.0648 69.3558 92.0074 69.5168 91.9466 69.6765C91.9107 69.7708 91.8734 69.8646 91.8352 69.958C91.9259 69.7364 91.7993 70.0358 91.7902 70.0558C91.6318 70.4046 91.4536 70.7431 91.2564 71.0715C91.7666 70.9377 92.2768 70.8039 92.7869 70.6701C92.4388 70.4055 93.026 70.8712 92.9852 70.8653C93.0116 70.8691 92.9738 70.9256 92.9857 70.7919C93.0027 70.6 92.9956 70.5696 93.0219 70.4121C93.0969 69.962 93.2061 69.5169 93.3381 69.0803C93.5688 68.3171 93.8833 67.5934 94.2634 66.8932C94.9324 65.6609 95.7912 64.5682 96.6599 63.4741C97.5326 62.3749 98.4344 61.2785 99.4802 60.3377C99.9031 59.9572 100.209 59.7105 100.797 59.4246C100.947 59.3517 100.627 59.4783 100.781 59.4342C100.846 59.4156 100.91 59.3915 100.975 59.3736C101.044 59.3548 101.113 59.3411 101.183 59.3254C101.36 59.2852 101.023 59.3344 101.206 59.3208C101.355 59.3098 101.501 59.3048 101.65 59.3095C101.708 59.3114 102.134 59.3598 101.985 59.3346C103.378 59.5699 104.531 60.203 105.762 60.9091C107.078 61.6641 108.37 62.458 109.714 63.1639C112.772 64.7703 116.404 65.9772 119.832 64.8172C121.551 64.2354 123.049 63.1011 123.901 61.4757C124.773 59.8143 124.908 57.967 124.164 56.2389C123.848 55.5067 122.901 55.622 122.407 56.0125C121.136 57.0172 122.133 58.7045 122.901 59.6447C123.6 60.5003 124.485 61.2227 125.435 61.7829C127.366 62.9212 129.711 63.4614 131.944 63.2517C134.242 63.036 136.426 62.123 138.053 60.4569C139.684 58.7866 140.628 56.5809 140.917 54.2828C141.229 51.8081 140.671 49.1695 139.195 47.1361C138.685 47.6462 138.175 48.1564 137.665 48.6666C141.854 50.7743 146.979 49.9669 150.586 47.0684C151.579 46.2703 152.423 45.2883 153.083 44.1996C153.832 42.9654 151.898 41.8396 151.151 43.0703Z" fill="#1A1A1A"/>
<path d="M114.588 76.1726C114.012 76.6259 113.599 77.2093 113.527 77.9537C113.457 78.6782 113.727 79.4101 114.104 80.018C114.798 81.1394 115.86 81.9338 116.745 82.8892C117.109 83.2826 117.591 83.8032 117.622 84.3695C117.659 85.0514 116.983 84.9976 116.486 84.9732C115.053 84.9029 113.696 84.377 112.536 83.5464C111.754 82.9867 111.008 84.2798 111.783 84.8343C113.075 85.7595 114.595 86.3031 116.176 86.4434C116.907 86.5082 117.711 86.5184 118.328 86.0663C118.982 85.5868 119.205 84.744 119.066 83.9705C118.808 82.5407 117.468 81.5064 116.489 80.5494C116.001 80.0724 115.526 79.5719 115.217 78.9561C115.077 78.6756 114.956 78.3255 115.017 78.0072C115.084 77.6598 115.38 77.4338 115.642 77.2273C115.959 76.978 115.903 76.4337 115.642 76.1726C115.329 75.8598 114.905 75.9226 114.588 76.1726Z" fill="#1A1A1A"/>
<path d="M108.756 66.8997C108.941 66.8913 109.124 66.8914 109.308 66.9033C109.406 66.9096 109.503 66.9189 109.599 66.9309C109.529 66.9222 109.517 66.9184 109.594 66.9324C109.647 66.9421 109.7 66.9511 109.753 66.9618C109.934 66.9979 110.112 67.044 110.288 67.0997C110.381 67.1292 110.473 67.1615 110.564 67.1962C110.577 67.2014 110.704 67.2515 110.625 67.2193C110.537 67.1833 110.717 67.2609 110.715 67.26C110.882 67.3375 111.045 67.4241 111.203 67.5191C111.286 67.5694 111.368 67.622 111.449 67.677C111.484 67.7014 111.519 67.7269 111.555 67.7517C111.609 67.7893 111.617 67.7961 111.56 67.7522C111.714 67.8702 111.86 68.0018 111.997 68.1389C112.059 68.2001 112.118 68.2628 112.176 68.3271C112.213 68.3673 112.248 68.4083 112.283 68.4498C112.301 68.4718 112.396 68.5906 112.308 68.4765C112.545 68.7844 112.96 68.9815 113.329 68.7441C113.633 68.548 113.851 68.0542 113.596 67.7237C112.449 66.2343 110.656 65.3211 108.756 65.4081C108.367 65.4259 107.992 65.7383 108.011 66.1538C108.028 66.5426 108.339 66.9188 108.756 66.8997Z" fill="#1A1A1A"/>
<path d="M120.686 68.8892C121.003 68.8256 121.458 68.8442 121.787 68.9207C122.229 69.0235 122.521 69.1463 122.903 69.366C123.668 69.8059 124.281 70.4012 124.926 71.0401C125.212 71.3236 125.695 71.3258 125.981 71.0401C126.265 70.7554 126.268 70.2698 125.981 69.9854C125.232 69.2434 124.444 68.4962 123.507 67.9955C122.513 67.4645 121.403 67.2278 120.289 67.451C119.894 67.5301 119.667 67.9998 119.768 68.3683C119.881 68.78 120.289 68.9686 120.686 68.8892Z" fill="#1A1A1A"/>
<path d="M108.535 90.8727C108.11 91.4139 107.385 91.8688 106.761 91.5785C106.081 91.262 106.019 90.3188 106.17 89.5844C106.362 88.6563 106.875 87.6817 107.747 87.21C110.259 85.8519 109.232 89.9849 108.535 90.8727Z" fill="#1A1A1A"/>
<path d="M108.008 90.3455C107.925 90.4484 107.837 90.5465 107.74 90.6365C107.709 90.6652 107.586 90.7635 107.684 90.6909C107.622 90.7368 107.557 90.7794 107.49 90.8181C107.453 90.8398 107.412 90.8573 107.375 90.8794C107.304 90.9221 107.392 90.8721 107.406 90.8678C107.346 90.8862 107.287 90.9054 107.226 90.9215C107.085 90.9584 107.324 90.9202 107.181 90.9233C107.166 90.9236 107.061 90.9257 107.158 90.9283C107.258 90.931 107.124 90.9143 107.107 90.9137C107.039 90.9111 107.113 90.9242 107.137 90.9347C107.112 90.9236 107.088 90.909 107.064 90.8962C107.04 90.8837 107.019 90.8653 106.995 90.8532C107.01 90.8609 107.082 90.9453 107.042 90.8871C107.027 90.8654 106.921 90.74 106.978 90.8266C107.033 90.9117 106.94 90.7515 106.924 90.7237C106.857 90.6076 106.951 90.8334 106.917 90.7014C106.901 90.6383 106.883 90.5757 106.867 90.5123C106.86 90.4846 106.858 90.4561 106.851 90.4284C106.853 90.4348 106.863 90.57 106.86 90.4836C106.857 90.4154 106.849 90.3476 106.848 90.2793C106.846 90.1611 106.854 90.0439 106.864 89.9262C106.876 89.7778 106.84 90.0384 106.868 89.8943C106.882 89.826 106.894 89.7576 106.91 89.6897C106.939 89.5642 106.973 89.4399 107.013 89.3173C107.036 89.2448 107.062 89.1734 107.088 89.1018C107.092 89.0927 107.132 88.9913 107.1 89.0692C107.068 89.1465 107.122 89.0208 107.129 89.0078C107.184 88.8884 107.246 88.7718 107.313 88.6587C107.347 88.6023 107.383 88.5468 107.42 88.4924C107.445 88.4548 107.566 88.3075 107.479 88.4066C107.566 88.3084 107.65 88.2101 107.746 88.1204C107.794 88.0758 107.843 88.0334 107.894 87.992C107.883 88.0011 107.802 88.0527 107.873 88.0103C107.92 87.9823 107.963 87.9484 108.01 87.9199C108.103 87.8627 108.201 87.8159 108.298 87.7658C108.42 87.7029 108.16 87.8138 108.283 87.7709C108.327 87.7554 108.37 87.7381 108.415 87.7241C108.483 87.7027 108.555 87.6942 108.623 87.6733C108.664 87.6606 108.423 87.679 108.55 87.6859C108.58 87.6875 108.62 87.6901 108.65 87.6858C108.759 87.6703 108.43 87.6787 108.57 87.6755C108.594 87.675 108.619 87.6972 108.642 87.696C108.677 87.6941 108.454 87.6079 108.551 87.6594C108.662 87.7188 108.51 87.6419 108.487 87.6008C108.498 87.6195 108.526 87.6294 108.539 87.6478C108.606 87.7475 108.488 87.5849 108.484 87.569C108.494 87.6063 108.543 87.6751 108.566 87.7078C108.587 87.7376 108.5 87.5121 108.531 87.6272C108.539 87.6581 108.551 87.6883 108.56 87.7193C108.577 87.7809 108.585 87.844 108.599 87.906C108.61 87.9494 108.581 87.6968 108.588 87.8313C108.59 87.8635 108.594 87.8957 108.595 87.9279C108.6 88.0009 108.601 88.074 108.6 88.1471C108.597 88.304 108.57 88.459 108.564 88.6151C108.567 88.5383 108.59 88.4449 108.57 88.5658C108.564 88.6033 108.558 88.6408 108.551 88.6782C108.537 88.7599 108.521 88.8414 108.503 88.9225C108.429 89.2661 108.329 89.605 108.201 89.9326C108.188 89.9646 108.132 90.0995 108.188 89.9677C108.244 89.8368 108.189 89.9657 108.175 89.9966C108.144 90.0645 108.112 90.1316 108.077 90.1975C108.023 90.3017 107.963 90.4032 107.891 90.4965C107.652 90.8069 107.833 91.345 108.159 91.5169C108.554 91.7258 108.924 91.5807 109.179 91.2493C109.38 90.9878 109.506 90.6644 109.627 90.3608C109.763 90.0176 109.868 89.6613 109.946 89.3003C110.108 88.5418 110.238 87.5788 109.812 86.877C109.23 85.9173 108.042 86.1363 107.229 86.6496C106.037 87.4026 105.29 88.965 105.36 90.3674C105.402 91.2228 105.802 92.0816 106.681 92.3437C107.575 92.6104 108.511 92.0843 109.062 91.4003C109.307 91.0971 109.381 90.6379 109.062 90.3456C108.791 90.0963 108.269 90.0212 108.008 90.3455Z" fill="#1A1A1A"/>
</svg>
