<svg width="32" height="32" viewBox="0 0 32 32" fill="none" xmlns="http://www.w3.org/2000/svg">
<path d="M24.3992 6.54946C22.046 4.21927 18.8672 2.9136 15.5556 2.917H15.4255C12.0961 2.95126 8.91464 4.29796 6.57244 6.66451C4.23024 9.03105 2.91651 12.2263 2.91669 15.5559C2.91669 20.7816 6.1469 25.1639 11.3459 27.0002C11.9322 27.2069 12.5596 27.27 13.1755 27.1842C13.7913 27.0984 14.3775 26.8663 14.8851 26.5071C15.3927 26.148 15.8067 25.6724 16.0925 25.1202C16.3784 24.5681 16.5276 23.9554 16.5278 23.3337C16.5278 22.818 16.7327 22.3234 17.0973 21.9587C17.462 21.5941 17.9565 21.3892 18.4722 21.3892H24.088C24.9702 21.3935 25.8273 21.0959 26.517 20.5459C27.2067 19.9959 27.6875 19.2266 27.8797 18.3656C28.097 17.4088 28.2026 16.4301 28.1945 15.4489C28.1821 13.7882 27.8402 12.1465 27.1888 10.6188C26.5373 9.09117 25.5891 7.708 24.3992 6.54946ZM10.2084 20.417C9.91992 20.417 9.63797 20.3315 9.39815 20.1712C9.15833 20.011 8.97141 19.7832 8.86103 19.5167C8.75065 19.2503 8.72177 18.957 8.77804 18.6742C8.83431 18.3913 8.9732 18.1314 9.17716 17.9275C9.38111 17.7235 9.64096 17.5846 9.92385 17.5284C10.2067 17.4721 10.5 17.501 10.7664 17.6113C11.0329 17.7217 11.2607 17.9086 11.4209 18.1485C11.5812 18.3883 11.6667 18.6702 11.6667 18.9587C11.6667 19.3454 11.513 19.7164 11.2396 19.9899C10.9661 20.2634 10.5951 20.417 10.2084 20.417ZM10.2084 13.6114C9.91992 13.6114 9.63797 13.5259 9.39815 13.3657C9.15833 13.2054 8.97141 12.9777 8.86103 12.7112C8.75065 12.4447 8.72177 12.1515 8.77804 11.8686C8.83431 11.5857 8.9732 11.3259 9.17716 11.1219C9.38111 10.918 9.64096 10.7791 9.92385 10.7228C10.2067 10.6665 10.5 10.6954 10.7664 10.8058C11.0329 10.9162 11.2607 11.1031 11.4209 11.3429C11.5812 11.5827 11.6667 11.8647 11.6667 12.1531C11.6667 12.5399 11.513 12.9108 11.2396 13.1843C10.9661 13.4578 10.5951 13.6114 10.2084 13.6114ZM15.5556 10.6948C15.2671 10.6948 14.9852 10.6092 14.7454 10.449C14.5055 10.2888 14.3186 10.061 14.2083 9.79452C14.0979 9.52805 14.069 9.23482 14.1253 8.95194C14.1815 8.66905 14.3204 8.4092 14.5244 8.20525C14.7283 8.00129 14.9882 7.8624 15.2711 7.80613C15.554 7.74986 15.8472 7.77874 16.1137 7.88912C16.3801 7.9995 16.6079 8.18641 16.7681 8.42624C16.9284 8.66606 17.0139 8.94801 17.0139 9.23644C17.0139 9.62322 16.8603 9.99415 16.5868 10.2676C16.3133 10.5411 15.9423 10.6948 15.5556 10.6948ZM20.9028 13.6114C20.6144 13.6114 20.3324 13.5259 20.0926 13.3657C19.8528 13.2054 19.6659 12.9777 19.5555 12.7112C19.4451 12.4447 19.4162 12.1515 19.4725 11.8686C19.5288 11.5857 19.6676 11.3259 19.8716 11.1219C20.0756 10.918 20.3354 10.7791 20.6183 10.7228C20.9012 10.6665 21.1944 10.6954 21.4609 10.8058C21.7274 10.9162 21.9551 11.1031 22.1154 11.3429C22.2756 11.5827 22.3611 11.8647 22.3611 12.1531C22.3611 12.5399 22.2075 12.9108 21.934 13.1843C21.6605 13.4578 21.2896 13.6114 20.9028 13.6114Z" fill="#8BAA2A"/>
</svg>
