<svg width="32" height="32" viewBox="0 0 32 32" fill="none" xmlns="http://www.w3.org/2000/svg">
<path d="M28.1944 3.88921C28.1944 3.63137 28.092 3.38408 27.9096 3.20175C27.7273 3.01942 27.48 2.91699 27.2222 2.91699C21.8652 2.91699 16.3685 8.95814 13.3158 12.9588C12.2255 12.6249 11.0721 12.5514 9.94827 12.7441C8.82442 12.9368 7.76143 13.3903 6.84467 14.0684C5.92791 14.7464 5.18294 15.63 4.66959 16.6481C4.15625 17.6663 3.88884 18.7906 3.88884 19.9309C3.88884 23.6837 1.51419 25.3668 1.40117 25.4446C1.22871 25.5611 1.09816 25.7298 1.02873 25.9259C0.959302 26.1221 0.954647 26.3354 1.01545 26.5344C1.07626 26.7334 1.19932 26.9077 1.36654 27.0315C1.53375 27.1554 1.7363 27.2224 1.9444 27.2225H11.1805C12.3208 27.2225 13.4451 26.9551 14.4633 26.4418C15.4814 25.9285 16.365 25.1835 17.043 24.2667C17.7211 23.35 18.1746 22.287 18.3673 21.1631C18.56 20.0393 18.4865 18.8859 18.1526 17.7956C22.1545 14.7429 28.1944 9.24616 28.1944 3.88921ZM15.1204 13.7998C15.5369 13.2602 15.9456 12.7518 16.3467 12.2746C17.3283 12.9378 18.1736 13.7831 18.8368 14.7647C18.3588 15.165 17.8504 15.5737 17.3116 15.9909C16.745 15.1133 15.9981 14.3663 15.1204 13.7998ZM20.3097 13.4741C19.5757 12.4384 18.6717 11.5345 17.6361 10.8005C21.4982 6.60415 24.4112 5.33175 26.1309 4.9781C25.7845 6.69894 24.506 9.61196 20.3097 13.4741Z" fill="#8BAA2A"/>
</svg>
