<svg width="32" height="32" viewBox="0 0 32 32" fill="none" xmlns="http://www.w3.org/2000/svg">
<path d="M26.25 3.88921V23.3337C26.25 23.5915 26.1475 23.8388 25.9652 24.0211C25.7829 24.2035 25.5356 24.3059 25.2778 24.3059H8.74997C8.23427 24.3059 7.7397 24.5107 7.37504 24.8754C7.01039 25.24 6.80553 25.7346 6.80553 26.2503H23.3333C23.5912 26.2503 23.8384 26.3528 24.0208 26.5351C24.2031 26.7174 24.3055 26.9647 24.3055 27.2225C24.3055 27.4804 24.2031 27.7277 24.0208 27.91C23.8384 28.0923 23.5912 28.1948 23.3333 28.1948H5.83331C5.57546 28.1948 5.32817 28.0923 5.14584 27.91C4.96351 27.7277 4.86108 27.4804 4.86108 27.2225V6.80588C4.86108 5.77448 5.2708 4.78533 6.00011 4.05602C6.72942 3.32671 7.71858 2.91699 8.74997 2.91699H25.2778C25.5356 2.91699 25.7829 3.01942 25.9652 3.20175C26.1475 3.38408 26.25 3.63137 26.25 3.88921Z" fill="#8BAA2A"/>
</svg>
