<svg width="32" height="32" viewBox="0 0 32 32" fill="none" xmlns="http://www.w3.org/2000/svg">
<path d="M29.1666 12.6387H27.8541L24.4781 5.04319C24.3253 4.69954 24.0761 4.40757 23.7608 4.20266C23.4454 3.99774 23.0774 3.88868 22.7013 3.88867H8.40967C8.03359 3.88868 7.66558 3.99774 7.35023 4.20266C7.03487 4.40757 6.78571 4.69954 6.63293 5.04319L3.25689 12.6387H1.94439C1.68654 12.6387 1.43925 12.7411 1.25693 12.9234C1.0746 13.1058 0.972168 13.353 0.972168 13.6109C0.972168 13.8687 1.0746 14.116 1.25693 14.2984C1.43925 14.4807 1.68654 14.5831 1.94439 14.5831H2.91661V24.3053C2.91661 24.821 3.12147 25.3156 3.48613 25.6803C3.85078 26.0449 4.34536 26.2498 4.86106 26.2498H7.77772C8.29342 26.2498 8.788 26.0449 9.15265 25.6803C9.51731 25.3156 9.72217 24.821 9.72217 24.3053V23.3331H21.3888V24.3053C21.3888 24.821 21.5937 25.3156 21.9583 25.6803C22.323 26.0449 22.8176 26.2498 23.3333 26.2498H26.2499C26.7656 26.2498 27.2602 26.0449 27.6249 25.6803C27.9895 25.3156 28.1944 24.821 28.1944 24.3053V14.5831H29.1666C29.4245 14.5831 29.6717 14.4807 29.8541 14.2984C30.0364 14.116 30.1388 13.8687 30.1388 13.6109C30.1388 13.353 30.0364 13.1058 29.8541 12.9234C29.6717 12.7411 29.4245 12.6387 29.1666 12.6387ZM9.72217 18.472H6.8055C6.54765 18.472 6.30036 18.3696 6.11804 18.1872C5.93571 18.0049 5.83328 17.7576 5.83328 17.4998C5.83328 17.2419 5.93571 16.9946 6.11804 16.8123C6.30036 16.63 6.54765 16.5276 6.8055 16.5276H9.72217C9.98002 16.5276 10.2273 16.63 10.4096 16.8123C10.592 16.9946 10.6944 17.2419 10.6944 17.4998C10.6944 17.7576 10.592 18.0049 10.4096 18.1872C10.2273 18.3696 9.98002 18.472 9.72217 18.472ZM24.3055 18.472H21.3888C21.131 18.472 20.8837 18.3696 20.7014 18.1872C20.519 18.0049 20.4166 17.7576 20.4166 17.4998C20.4166 17.2419 20.519 16.9946 20.7014 16.8123C20.8837 16.63 21.131 16.5276 21.3888 16.5276H24.3055C24.5633 16.5276 24.8106 16.63 24.993 16.8123C25.1753 16.9946 25.2777 17.2419 25.2777 17.4998C25.2777 17.7576 25.1753 18.0049 24.993 18.1872C24.8106 18.3696 24.5633 18.472 24.3055 18.472ZM5.38484 12.6387L8.40967 5.83312H22.7013L25.7262 12.6387H5.38484Z" fill="#8BAA2A"/>
</svg>
