<svg width="32" height="32" viewBox="0 0 32 32" fill="none" xmlns="http://www.w3.org/2000/svg">
<path d="M28.1944 7.77799H25.2778V5.83355C25.2778 5.5757 25.1754 5.32841 24.993 5.14609C24.8107 4.96376 24.5634 4.86133 24.3056 4.86133H6.80556C6.54771 4.86133 6.30042 4.96376 6.1181 5.14609C5.93577 5.32841 5.83334 5.5757 5.83334 5.83355V7.77799H2.91667C2.40097 7.77799 1.9064 7.98286 1.54174 8.34751C1.17709 8.71216 0.972229 9.20674 0.972229 9.72244V11.6669C0.972229 12.9561 1.48438 14.1926 2.39602 15.1042C2.84741 15.5556 3.3833 15.9137 3.97307 16.158C4.56285 16.4023 5.19497 16.528 5.83334 16.528H6.27692C6.84961 18.3429 7.94156 19.9502 9.41781 21.1513C10.894 22.3524 12.6899 23.0946 14.5833 23.2862V26.2502H11.6667C11.4088 26.2502 11.1615 26.3526 10.9792 26.535C10.7969 26.7173 10.6945 26.9646 10.6945 27.2224C10.6945 27.4803 10.7969 27.7276 10.9792 27.9099C11.1615 28.0922 11.4088 28.1947 11.6667 28.1947H19.4445C19.7023 28.1947 19.9496 28.0922 20.1319 27.9099C20.3142 27.7276 20.4167 27.4803 20.4167 27.2224C20.4167 26.9646 20.3142 26.7173 20.1319 26.535C19.9496 26.3526 19.7023 26.2502 19.4445 26.2502H16.5278V23.2825C20.4094 22.89 23.6299 20.1665 24.8014 16.528H25.2778C26.567 16.528 27.8035 16.0158 28.7151 15.1042C29.6267 14.1926 30.1389 12.9561 30.1389 11.6669V9.72244C30.1389 9.20674 29.934 8.71216 29.5694 8.34751C29.2047 7.98286 28.7101 7.77799 28.1944 7.77799ZM5.83334 14.5835C5.05979 14.5835 4.31793 14.2763 3.77095 13.7293C3.22396 13.1823 2.91667 12.4404 2.91667 11.6669V9.72244H5.83334V13.6113C5.83334 13.9354 5.84914 14.2595 5.88074 14.5835H5.83334ZM28.1944 11.6669C28.1944 12.4404 27.8872 13.1823 27.3402 13.7293C26.7932 14.2763 26.0513 14.5835 25.2778 14.5835H25.217C25.2569 14.2244 25.2772 13.8633 25.2778 13.502V9.72244H28.1944V11.6669Z" fill="#8BAA2A"/>
</svg>
