<svg width="32" height="32" viewBox="0 0 32 32" fill="none" xmlns="http://www.w3.org/2000/svg">
<path d="M27.1833 8.03856L16.4888 2.18699C16.2031 2.02911 15.882 1.94629 15.5555 1.94629C15.2291 1.94629 14.9079 2.02911 14.6222 2.18699L3.92774 8.04099C3.62232 8.20809 3.36738 8.45413 3.18952 8.75341C3.01166 9.05269 2.91742 9.39423 2.91663 9.74237V21.3653C2.91742 21.7134 3.01166 22.055 3.18952 22.3543C3.36738 22.6535 3.62232 22.8996 3.92774 23.0667L14.6222 28.9207C14.9079 29.0786 15.2291 29.1614 15.5555 29.1614C15.882 29.1614 16.2031 29.0786 16.4888 28.9207L27.1833 23.0667C27.4887 22.8996 27.7437 22.6535 27.9215 22.3543C28.0994 22.055 28.1936 21.7134 28.1944 21.3653V9.74359C28.1943 9.39483 28.1003 9.05253 27.9224 8.75255C27.7445 8.45257 27.4892 8.20596 27.1833 8.03856ZM15.5555 14.5828L5.79076 9.2356L15.5555 3.88838L25.3203 9.2356L15.5555 14.5828ZM16.5277 26.6919V16.2636L26.25 10.9431V21.3653L16.5277 26.6919Z" fill="#8BAA2A"/>
</svg>
