<svg width="32" height="32" viewBox="0 0 32 32" fill="none" xmlns="http://www.w3.org/2000/svg">
<path d="M27.2222 8.75022H25.2778V7.77799C25.2778 7.00445 24.9705 6.26258 24.4235 5.7156C23.8765 5.16862 23.1347 4.86133 22.3611 4.86133H4.86112C4.08758 4.86133 3.34571 5.16862 2.79873 5.7156C2.25175 6.26258 1.94446 7.00445 1.94446 7.77799V19.4447C1.94446 20.2182 2.25175 20.9601 2.79873 21.5071C3.34571 22.054 4.08758 22.3613 4.86112 22.3613H18.4722V23.3335C18.4722 24.1071 18.7795 24.849 19.3265 25.3959C19.8735 25.9429 20.6154 26.2502 21.3889 26.2502H27.2222C27.9958 26.2502 28.7376 25.9429 29.2846 25.3959C29.8316 24.849 30.1389 24.1071 30.1389 23.3335V11.6669C30.1389 10.8933 29.8316 10.1515 29.2846 9.60449C28.7376 9.05751 27.9958 8.75022 27.2222 8.75022ZM28.1945 23.3335C28.1945 23.5914 28.092 23.8387 27.9097 24.021C27.7274 24.2033 27.4801 24.3058 27.2222 24.3058H21.3889C21.1311 24.3058 20.8838 24.2033 20.7014 24.021C20.5191 23.8387 20.4167 23.5914 20.4167 23.3335V11.6669C20.4167 11.409 20.5191 11.1617 20.7014 10.9794C20.8838 10.7971 21.1311 10.6947 21.3889 10.6947H27.2222C27.4801 10.6947 27.7274 10.7971 27.9097 10.9794C28.092 11.1617 28.1945 11.409 28.1945 11.6669V23.3335ZM16.5278 25.278C16.5278 25.5358 16.4254 25.7831 16.243 25.9655C16.0607 26.1478 15.8134 26.2502 15.5556 26.2502H10.6945C10.4366 26.2502 10.1893 26.1478 10.007 25.9655C9.82467 25.7831 9.72224 25.5358 9.72224 25.278C9.72224 25.0201 9.82467 24.7729 10.007 24.5905C10.1893 24.4082 10.4366 24.3058 10.6945 24.3058H15.5556C15.8134 24.3058 16.0607 24.4082 16.243 24.5905C16.4254 24.7729 16.5278 25.0201 16.5278 25.278ZM26.25 13.6113C26.25 13.8692 26.1476 14.1165 25.9653 14.2988C25.7829 14.4811 25.5356 14.5835 25.2778 14.5835H23.3333C23.0755 14.5835 22.8282 14.4811 22.6459 14.2988C22.4636 14.1165 22.3611 13.8692 22.3611 13.6113C22.3611 13.3535 22.4636 13.1062 22.6459 12.9239C22.8282 12.7415 23.0755 12.6391 23.3333 12.6391H25.2778C25.5356 12.6391 25.7829 12.7415 25.9653 12.9239C26.1476 13.1062 26.25 13.3535 26.25 13.6113Z" fill="#8BAA2A"/>
</svg>
