<svg width="32" height="32" viewBox="0 0 32 32" fill="none" xmlns="http://www.w3.org/2000/svg">
<path d="M28.1945 11.6667C28.1959 13.1219 27.8344 14.5545 27.1427 15.8348C26.451 17.1151 25.4509 18.2026 24.2329 18.999C23.015 19.7953 21.6177 20.2754 20.1674 20.3956C18.7172 20.5158 17.2599 20.2725 15.9275 19.6876L9.60072 27.006C9.58614 27.023 9.56912 27.0412 9.55332 27.057C8.82393 27.7864 7.83467 28.1962 6.80315 28.1962C5.77164 28.1962 4.78237 27.7864 4.05298 27.057C3.32359 26.3276 2.91382 25.3384 2.91382 24.3069C2.91382 23.2753 3.32359 22.2861 4.05298 21.5567C4.06999 21.5409 4.08701 21.5239 4.10523 21.5093L11.4236 15.1838C10.768 13.6839 10.5457 12.0303 10.7821 10.4105C11.0186 8.7907 11.7042 7.2696 12.7613 6.01971C13.8183 4.76982 15.2045 3.84118 16.7625 3.33912C18.3206 2.83706 19.9881 2.78167 21.5761 3.17925C21.7398 3.22028 21.89 3.30321 22.0119 3.41988C22.1338 3.53656 22.2233 3.68296 22.2714 3.84469C22.3196 4.00642 22.3249 4.1779 22.2867 4.34228C22.2485 4.50666 22.1682 4.65827 22.0537 4.7822L17.5 9.72231L18.1879 12.9246L21.3889 13.6112L26.329 9.05147C26.4529 8.93693 26.6046 8.85662 26.7689 8.81843C26.9333 8.78025 27.1048 8.78551 27.2665 8.8337C27.4283 8.88188 27.5747 8.97134 27.6913 9.09326C27.808 9.21519 27.8909 9.36538 27.932 9.52908C28.1064 10.2282 28.1946 10.9461 28.1945 11.6667Z" fill="#8BAA2A"/>
</svg>
