<svg width="32" height="32" viewBox="0 0 32 32" fill="none" xmlns="http://www.w3.org/2000/svg">
<g clip-path="url(#clip0_4294_4124)">
<path d="M30.089 7.43971L23.7988 4.0102C23.6562 3.93134 23.4962 3.88955 23.3333 3.88867H19.4444C19.1866 3.88867 18.9393 3.9911 18.757 4.17343C18.5746 4.35576 18.4722 4.60304 18.4722 4.86089C18.4722 5.63444 18.1649 6.37631 17.6179 6.92329C17.071 7.47027 16.3291 7.77756 15.5555 7.77756C14.782 7.77756 14.0401 7.47027 13.4931 6.92329C12.9462 6.37631 12.6389 5.63444 12.6389 4.86089C12.6389 4.60304 12.5364 4.35576 12.3541 4.17343C12.1718 3.9911 11.9245 3.88867 11.6667 3.88867H7.77776C7.61447 3.88935 7.45398 3.93114 7.3111 4.0102L1.02203 7.43971C0.573719 7.67664 0.237652 8.08167 0.0875222 8.566C-0.0626077 9.05034 -0.014547 9.57444 0.221166 10.0234L2.56301 14.4968C2.73328 14.8185 2.98852 15.0872 3.30094 15.2738C3.61335 15.4605 3.97097 15.5578 4.33488 15.5553H6.80554V25.2776C6.80554 25.7933 7.0104 26.2878 7.37505 26.6525C7.73971 27.0171 8.23429 27.222 8.74998 27.222H22.3611C22.8768 27.222 23.3714 27.0171 23.736 26.6525C24.1007 26.2878 24.3055 25.7933 24.3055 25.2776V15.5553H26.7774C27.1413 15.5578 27.4989 15.4605 27.8114 15.2738C28.1238 15.0872 28.379 14.8185 28.5493 14.4968L30.8911 10.0234C31.1267 9.57429 31.1746 9.05008 31.0243 8.56572C30.8739 8.08137 30.5376 7.67643 30.089 7.43971ZM4.33488 13.6109C4.31692 13.6117 4.29925 13.6061 4.28505 13.5951L1.95537 9.14596L6.80554 6.49909V13.6109H4.33488ZM26.826 13.5939C26.8193 13.5999 26.8114 13.6046 26.8029 13.6075C26.7943 13.6104 26.7852 13.6116 26.7762 13.6109H24.3055V6.49909L29.1569 9.14596L26.826 13.5939Z" fill="#8BAA2A"/>
</g>
<defs>
<clipPath id="clip0_4294_4124">
<rect width="31.1111" height="31.1111" fill="white"/>
</clipPath>
</defs>
</svg>
