<svg width="32" height="32" viewBox="0 0 32 32" fill="none" xmlns="http://www.w3.org/2000/svg">
<path d="M24.9533 12.5991L22.3077 3.61456C22.2484 3.41327 22.1256 3.23656 21.9576 3.11083C21.7896 2.9851 21.5854 2.9171 21.3756 2.91699H9.73564C9.5258 2.9171 9.32163 2.9851 9.15362 3.11083C8.98562 3.23656 8.8628 3.41327 8.80352 3.61456L6.15786 12.5991C5.74277 13.9762 5.72105 15.4419 6.09514 16.8307C6.46924 18.2195 7.22425 19.476 8.27488 20.4583C10.0032 22.0789 12.2237 23.0752 14.5834 23.2887V28.1948H10.6945C10.4366 28.1948 10.1894 28.2972 10.007 28.4795C9.8247 28.6619 9.72227 28.9091 9.72227 29.167C9.72227 29.4248 9.8247 29.6721 10.007 29.8545C10.1894 30.0368 10.4366 30.1392 10.6945 30.1392H20.4167C20.6746 30.1392 20.9219 30.0368 21.1042 29.8545C21.2865 29.6721 21.3889 29.4248 21.3889 29.167C21.3889 28.9091 21.2865 28.6619 21.1042 28.4795C20.9219 28.2972 20.6746 28.1948 20.4167 28.1948H16.5278V23.2887C18.8875 23.0753 21.1081 22.079 22.8363 20.4583C23.8867 19.4759 24.6416 18.2194 25.0156 16.8306C25.3897 15.4419 25.3682 13.9762 24.9533 12.5991ZM10.4624 4.86144H20.6488L23.0903 13.1484C23.1013 13.1849 23.111 13.2213 23.1207 13.2578C20.5176 14.1911 17.5863 13.0633 15.9955 12.2576C12.9343 10.7081 10.5037 10.5113 8.71116 10.8078L10.4624 4.86144Z" fill="#8BAA2A"/>
</svg>
