<svg width="32" height="32" viewBox="0 0 32 32" fill="none" xmlns="http://www.w3.org/2000/svg">
<path d="M29.1667 16.0414C29.1666 16.8596 28.8717 17.6504 28.336 18.2689C27.8004 18.8873 27.0598 19.2921 26.25 19.409V24.3053C26.25 24.821 26.0452 25.3156 25.6805 25.6803C25.3158 26.0449 24.8213 26.2498 24.3056 26.2498H6.80557C6.28987 26.2498 5.79529 26.0449 5.43064 25.6803C5.06598 25.3156 4.86112 24.821 4.86112 24.3053V19.409C4.21555 19.3158 3.61036 19.039 3.11763 18.6117C2.62489 18.1843 2.26537 17.6243 2.08188 16.9984C1.89839 16.3724 1.89866 15.707 2.08266 15.0812C2.26666 14.4554 2.62664 13.8957 3.11972 13.4687C3.61281 13.0418 4.21823 12.7655 4.86387 12.6728C5.50952 12.5802 6.1682 12.675 6.76146 12.9461C7.35472 13.2172 7.85757 13.6531 8.21012 14.2019C8.56268 14.7506 8.75008 15.3892 8.75001 16.0414V20.4164C8.75001 20.6743 8.85244 20.9216 9.03477 21.1039C9.2171 21.2862 9.46439 21.3887 9.72224 21.3887C9.98008 21.3887 10.2274 21.2862 10.4097 21.1039C10.592 20.9216 10.6945 20.6743 10.6945 20.4164V17.4998H20.4167V20.4164C20.4167 20.6743 20.5191 20.9216 20.7014 21.1039C20.8838 21.2862 21.1311 21.3887 21.3889 21.3887C21.6467 21.3887 21.894 21.2862 22.0764 21.1039C22.2587 20.9216 22.3611 20.6743 22.3611 20.4164V16.0414C22.3611 15.139 22.7196 14.2735 23.3578 13.6353C23.9959 12.9972 24.8614 12.6387 25.7639 12.6387C26.6664 12.6387 27.5319 12.9972 28.17 13.6353C28.8082 14.2735 29.1667 15.139 29.1667 16.0414ZM5.34724 10.6942C6.68061 10.6961 7.96531 11.1954 8.95 12.0945C9.93468 12.9935 10.5485 14.2276 10.6714 15.5553H20.4398C20.5626 14.2276 21.1765 12.9935 22.1611 12.0945C23.1458 11.1954 24.4305 10.6961 25.7639 10.6942C25.8928 10.6942 26.0165 10.643 26.1076 10.5518C26.1988 10.4607 26.25 10.337 26.25 10.2081V8.74978C26.25 7.46054 25.7379 6.22409 24.8262 5.31246C23.9146 4.40082 22.6781 3.88867 21.3889 3.88867H9.72224C8.43299 3.88867 7.19655 4.40082 6.28491 5.31246C5.37328 6.22409 4.86112 7.46054 4.86112 8.74978V10.2081C4.86112 10.337 4.91234 10.4607 5.0035 10.5518C5.09467 10.643 5.21831 10.6942 5.34724 10.6942Z" fill="#8BAA2A"/>
</svg>
