<svg width="32" height="32" viewBox="0 0 32 32" fill="none" xmlns="http://www.w3.org/2000/svg">
<path d="M30.0708 21.1157C30.0714 21.11 30.0714 21.1043 30.0708 21.0987L28.079 10.8697C28.079 10.8624 28.079 10.8551 28.079 10.8478C27.7715 9.16834 26.8852 7.64975 25.5741 6.55605C24.263 5.46234 22.6101 4.86268 20.9028 4.86133H10.1949C8.4828 4.86067 6.82524 5.46373 5.5138 6.56445C4.20237 7.66517 3.32103 9.19305 3.02481 10.8794L1.04269 21.0987C1.04211 21.1043 1.04211 21.11 1.04269 21.1157C0.881354 22.0318 1.01621 22.9755 1.42767 23.8097C1.83914 24.644 2.5058 25.3254 3.33086 25.755C4.15592 26.1846 5.09643 26.34 6.01585 26.1987C6.93526 26.0574 7.78571 25.6268 8.44373 24.9693L8.48627 24.9243L13.3097 19.4447H17.8062L22.6321 24.9243C22.6455 24.9401 22.6601 24.9547 22.6746 24.9693C23.4947 25.7876 24.6053 26.2481 25.7639 26.2502C26.4025 26.2498 27.0332 26.1096 27.6119 25.8394C28.1905 25.5693 28.703 25.1757 29.1133 24.6864C29.5237 24.1971 29.8219 23.6238 29.9871 23.007C30.1523 22.3901 30.1805 21.7446 30.0696 21.1157H30.0708ZM12.6389 13.6113H11.6666V14.5836C11.6666 14.8414 11.5642 15.0887 11.3819 15.271C11.1996 15.4533 10.9523 15.5558 10.6944 15.5558C10.4366 15.5558 10.1893 15.4533 10.007 15.271C9.82463 15.0887 9.7222 14.8414 9.7222 14.5836V13.6113H8.74998C8.49213 13.6113 8.24484 13.5089 8.06252 13.3266C7.88019 13.1442 7.77776 12.897 7.77776 12.6391C7.77776 12.3813 7.88019 12.134 8.06252 11.9516C8.24484 11.7693 8.49213 11.6669 8.74998 11.6669H9.7222V10.6947C9.7222 10.4368 9.82463 10.1895 10.007 10.0072C10.1893 9.82487 10.4366 9.72244 10.6944 9.72244C10.9523 9.72244 11.1996 9.82487 11.3819 10.0072C11.5642 10.1895 11.6666 10.4368 11.6666 10.6947V11.6669H12.6389C12.8967 11.6669 13.144 11.7693 13.3263 11.9516C13.5087 12.134 13.6111 12.3813 13.6111 12.6391C13.6111 12.897 13.5087 13.1442 13.3263 13.3266C13.144 13.5089 12.8967 13.6113 12.6389 13.6113ZM17.5 12.6391C17.5 12.3813 17.6024 12.134 17.7847 11.9516C17.9671 11.7693 18.2144 11.6669 18.4722 11.6669H21.3889C21.6467 11.6669 21.894 11.7693 22.0763 11.9516C22.2587 12.134 22.3611 12.3813 22.3611 12.6391C22.3611 12.897 22.2587 13.1442 22.0763 13.3266C21.894 13.5089 21.6467 13.6113 21.3889 13.6113H18.4722C18.2144 13.6113 17.9671 13.5089 17.7847 13.3266C17.6024 13.1442 17.5 12.897 17.5 12.6391ZM27.7533 23.2691C27.5712 23.5313 27.3388 23.7548 27.0697 23.9264C26.8006 24.0981 26.5001 24.2147 26.1856 24.2693C25.8051 24.3358 25.4143 24.3112 25.0452 24.1973C24.6761 24.0834 24.3393 23.8836 24.0625 23.6143L20.3923 19.4447H20.9028C22.144 19.4448 23.3647 19.1281 24.4493 18.5246C25.534 17.921 26.4465 17.0506 27.1007 15.9957L28.1628 21.4645C28.2169 21.7774 28.2086 22.098 28.1383 22.4077C28.068 22.7174 27.9372 23.0102 27.7533 23.2691Z" fill="#8BAA2A"/>
</svg>
