<svg width="32" height="32" viewBox="0 0 32 32" fill="none" xmlns="http://www.w3.org/2000/svg">
<path d="M29.9784 19.0067C29.8899 19.1411 29.7694 19.2515 29.6277 19.3279C29.486 19.4042 29.3276 19.4442 29.1666 19.4442H25.2778V23.3331C25.2778 23.591 25.1753 23.8383 24.993 24.0206C24.8107 24.2029 24.5634 24.3053 24.3055 24.3053C24.0477 24.3053 23.8004 24.2029 23.6181 24.0206C23.4357 23.8383 23.3333 23.591 23.3333 23.3331V19.4442H16.5278V25.2776H19.4444C19.7023 25.2776 19.9496 25.38 20.1319 25.5623C20.3142 25.7446 20.4166 25.9919 20.4166 26.2498C20.4166 26.5076 20.3142 26.7549 20.1319 26.9372C19.9496 27.1196 19.7023 27.222 19.4444 27.222H11.6666C11.4088 27.222 11.1615 27.1196 10.9792 26.9372C10.7969 26.7549 10.6944 26.5076 10.6944 26.2498C10.6944 25.9919 10.7969 25.7446 10.9792 25.5623C11.1615 25.38 11.4088 25.2776 11.6666 25.2776H14.5833V19.4442H1.94442C1.78359 19.4442 1.62529 19.4042 1.4837 19.3279C1.34212 19.2516 1.22167 19.1414 1.13315 19.0071C1.04463 18.8728 0.990812 18.7187 0.976509 18.5585C0.962205 18.3983 0.987867 18.237 1.0512 18.0892L6.88453 4.47808C6.95943 4.30323 7.08398 4.15418 7.24275 4.04942C7.40152 3.94465 7.58754 3.88876 7.77776 3.88867H23.3333C23.5235 3.88876 23.7095 3.94465 23.8683 4.04942C24.0271 4.15418 24.1516 4.30323 24.2265 4.47808L30.0599 18.0892C30.1232 18.2369 30.1489 18.3981 30.1347 18.5582C30.1205 18.7183 30.0668 18.8724 29.9784 19.0067Z" fill="#8BAA2A"/>
</svg>
