<svg width="32" height="32" viewBox="0 0 32 32" fill="none" xmlns="http://www.w3.org/2000/svg">
<path d="M21.3038 7.72055L20.5454 3.54243C20.4643 3.09417 20.2283 2.68864 19.8787 2.39657C19.5292 2.10451 19.0881 1.94445 18.6326 1.94434H12.4784C12.0229 1.94445 11.5818 2.10451 11.2323 2.39657C10.8827 2.68864 10.6467 3.09417 10.5656 3.54243L9.80724 7.72055C8.5756 8.62222 7.57389 9.80154 6.88338 11.1628C6.19286 12.5241 5.83301 14.029 5.83301 15.5554C5.83301 17.0819 6.19286 18.5868 6.88338 19.9481C7.57389 21.3093 8.5756 22.4887 9.80724 23.3903L10.5656 27.5685C10.6467 28.0167 10.8827 28.4223 11.2323 28.7143C11.5818 29.0064 12.0229 29.1664 12.4784 29.1666H18.6326C19.0881 29.1664 19.5292 29.0064 19.8787 28.7143C20.2283 28.4223 20.4643 28.0167 20.5454 27.5685L21.3038 23.3903C22.5354 22.4887 23.5371 21.3093 24.2276 19.9481C24.9181 18.5868 25.278 17.0819 25.278 15.5554C25.278 14.029 24.9181 12.5241 24.2276 11.1628C23.5371 9.80154 22.5354 8.62222 21.3038 7.72055ZM12.4784 3.88878H18.6326L19.1078 6.5077C16.825 5.60843 14.286 5.60843 12.0032 6.5077L12.4784 3.88878ZM18.6326 27.2221H12.4784L12.0032 24.6032C14.286 25.5025 16.825 25.5025 19.1078 24.6032L18.6326 27.2221ZM20.4166 16.5277H15.5555C15.2977 16.5277 15.0504 16.4252 14.868 16.2429C14.6857 16.0606 14.5833 15.8133 14.5833 15.5554V10.6943C14.5833 10.4365 14.6857 10.1892 14.868 10.0069C15.0504 9.82454 15.2977 9.72211 15.5555 9.72211C15.8134 9.72211 16.0606 9.82454 16.243 10.0069C16.4253 10.1892 16.5277 10.4365 16.5277 10.6943V14.5832H20.4166C20.6745 14.5832 20.9218 14.6857 21.1041 14.868C21.2864 15.0503 21.3888 15.2976 21.3888 15.5554C21.3888 15.8133 21.2864 16.0606 21.1041 16.2429C20.9218 16.4252 20.6745 16.5277 20.4166 16.5277Z" fill="#8BAA2A"/>
</svg>
