<svg width="32" height="32" viewBox="0 0 32 32" fill="none" xmlns="http://www.w3.org/2000/svg">
<path d="M30.1389 9.72234C30.1393 9.18939 30.0146 8.66378 29.7747 8.18786C29.5349 7.71194 29.1866 7.29901 28.7579 6.98235C28.3292 6.66569 27.8321 6.45416 27.3067 6.36478C26.7813 6.2754 26.2423 6.31069 25.733 6.46779C25.2237 6.6249 24.7585 6.89943 24.3748 7.26927C23.991 7.63911 23.6995 8.09391 23.5237 8.59704C23.3479 9.10017 23.2928 9.63755 23.3627 10.1659C23.4327 10.6942 23.6257 11.1988 23.9264 11.6388L20.6706 15.6493L17.743 8.92026C18.277 8.47087 18.6598 7.86818 18.8397 7.19387C19.0196 6.51956 18.9878 5.80626 18.7486 5.15064C18.5094 4.49502 18.0744 3.9288 17.5026 3.52872C16.9308 3.12864 16.2498 2.91406 15.5519 2.91406C14.854 2.91406 14.173 3.12864 13.6012 3.52872C13.0294 3.9288 12.5944 4.49502 12.3552 5.15064C12.116 5.80626 12.0842 6.51956 12.2641 7.19387C12.4439 7.86818 12.8268 8.47087 13.3607 8.92026L10.4404 15.6456L7.1847 11.6352C7.60293 11.0224 7.80941 10.2897 7.77271 9.54866C7.736 8.80765 7.45811 8.09893 6.98137 7.53046C6.50462 6.96199 5.85515 6.5649 5.13186 6.39968C4.40857 6.23447 3.6511 6.31017 2.97481 6.61526C2.29852 6.92035 1.74047 7.43812 1.38566 8.0897C1.03085 8.74128 0.898719 9.49097 1.00939 10.2246C1.12005 10.9582 1.46746 11.6356 1.99869 12.1535C2.52992 12.6714 3.21587 13.0015 3.95206 13.0935L5.71179 23.6531C5.78744 24.107 6.02167 24.5195 6.37281 24.817C6.72396 25.1145 7.16926 25.2778 7.62949 25.2779H23.4816C23.9418 25.2778 24.3871 25.1145 24.7383 24.817C25.0894 24.5195 25.3236 24.107 25.3993 23.6531L27.1578 13.0984C27.9808 12.9956 28.7378 12.5958 29.2868 11.9741C29.8357 11.3525 30.1387 10.5517 30.1389 9.72234ZM15.5555 4.86123C15.844 4.86123 16.1259 4.94676 16.3657 5.107C16.6056 5.26725 16.7925 5.49501 16.9029 5.76148C17.0132 6.02796 17.0421 6.32118 16.9858 6.60407C16.9296 6.88696 16.7907 7.14681 16.5867 7.35076C16.3828 7.55471 16.1229 7.6936 15.84 7.74987C15.5572 7.80614 15.2639 7.77726 14.9975 7.66689C14.731 7.55651 14.5032 7.36959 14.343 7.12977C14.1827 6.88995 14.0972 6.60799 14.0972 6.31956C14.0972 5.93279 14.2508 5.56186 14.5243 5.28836C14.7978 5.01487 15.1688 4.86123 15.5555 4.86123ZM2.91665 9.72234C2.91665 9.43391 3.00218 9.15196 3.16242 8.91213C3.32266 8.67231 3.55043 8.48539 3.8169 8.37502C4.08338 8.26464 4.3766 8.23576 4.65949 8.29203C4.94238 8.3483 5.20223 8.48719 5.40618 8.69114C5.61013 8.89509 5.74902 9.15494 5.80529 9.43783C5.86156 9.72072 5.83268 10.0139 5.7223 10.2804C5.61193 10.5469 5.42501 10.7747 5.18519 10.9349C4.94537 11.0951 4.66341 11.1807 4.37498 11.1807C3.98821 11.1807 3.61727 11.027 3.34378 10.7535C3.07029 10.48 2.91665 10.1091 2.91665 9.72234ZM26.7361 11.1807C26.4477 11.1807 26.1657 11.0951 25.9259 10.9349C25.6861 10.7747 25.4991 10.5469 25.3888 10.2804C25.2784 10.0139 25.2495 9.72072 25.3058 9.43783C25.362 9.15494 25.5009 8.89509 25.7049 8.69114C25.9088 8.48719 26.1687 8.3483 26.4516 8.29203C26.7345 8.23576 27.0277 8.26464 27.2942 8.37502C27.5606 8.48539 27.7884 8.67231 27.9487 8.91213C28.1089 9.15196 28.1944 9.43391 28.1944 9.72234C28.1944 10.1091 28.0408 10.48 27.7673 10.7535C27.4938 11.027 27.1229 11.1807 26.7361 11.1807Z" fill="#8BAA2A"/>
</svg>
