<svg width="32" height="32" viewBox="0 0 32 32" fill="none" xmlns="http://www.w3.org/2000/svg">
<g clip-path="url(#clip0_4294_4152)">
<path d="M30.3406 5.63138L25.4795 0.770267C25.2971 0.587839 25.0497 0.485352 24.7917 0.485352C24.5337 0.485352 24.2863 0.587839 24.1038 0.770267C23.9214 0.952696 23.8189 1.20012 23.8189 1.45811C23.8189 1.71611 23.9214 1.96353 24.1038 2.14596L24.3894 2.43034L17.0771 9.74145C14.3075 8.30013 11.2061 8.42044 9.32727 10.298C8.83145 10.796 8.44306 11.3904 8.18613 12.0444C8.10723 12.2217 7.9785 12.3723 7.8156 12.4778C7.65271 12.5833 7.46267 12.6392 7.26859 12.6387C5.4955 12.6982 3.95575 13.3338 2.8146 14.475C1.34654 15.9467 0.729183 18.0588 1.06217 20.425C1.38543 22.689 2.56061 24.9312 4.37502 26.7359C6.18943 28.5406 8.42675 29.7206 10.6945 30.0439C11.1008 30.1046 11.511 30.1363 11.9219 30.1387C13.7837 30.1387 15.4255 29.5031 16.6323 28.2963C17.7735 27.1552 18.409 25.6154 18.4686 23.8423C18.4684 23.6478 18.5248 23.4575 18.631 23.2946C18.7372 23.1316 18.8885 23.0031 19.0665 22.9248C19.7206 22.668 20.315 22.2796 20.8129 21.7836C22.6905 19.9048 22.8108 16.801 21.3695 14.0338L28.6806 6.72148L28.9649 7.00707C29.0553 7.0974 29.1625 7.16905 29.2805 7.21794C29.3986 7.26683 29.525 7.29199 29.6528 7.29199C29.7805 7.29199 29.907 7.26683 30.0251 7.21794C30.1431 7.16905 30.2503 7.0974 30.3406 7.00707C30.431 6.91674 30.5026 6.80951 30.5515 6.69149C30.6004 6.57346 30.6256 6.44697 30.6256 6.31922C30.6256 6.19148 30.6004 6.06499 30.5515 5.94696C30.5026 5.82894 30.431 5.72171 30.3406 5.63138ZM11.3823 24.992C11.2 25.1742 10.9528 25.2765 10.6951 25.2765C10.4373 25.2765 10.1901 25.1742 10.0078 24.992L6.11894 21.1031C5.93667 20.9207 5.83434 20.6733 5.83445 20.4154C5.83457 20.1575 5.93712 19.9103 6.11955 19.728C6.30198 19.5457 6.54934 19.4434 6.80722 19.4435C7.06509 19.4436 7.31237 19.5462 7.49463 19.7286L11.3835 23.6175C11.5656 23.8 11.6677 24.0472 11.6674 24.305C11.6672 24.5627 11.5647 24.8098 11.3823 24.992ZM16.5035 19.4187C16.0277 19.8947 15.4213 20.2189 14.7612 20.3504C14.1011 20.4818 13.4169 20.4145 12.795 20.1569C12.1732 19.8994 11.6416 19.4633 11.2677 18.9037C10.8937 18.3441 10.6941 17.6861 10.6941 17.0131C10.6941 16.34 10.8937 15.682 11.2677 15.1224C11.6416 14.5628 12.1732 14.1267 12.795 13.8692C13.4169 13.6117 14.1011 13.5444 14.7612 13.6758C15.4213 13.8072 16.0277 14.1314 16.5035 14.6074C17.1413 15.2455 17.4997 16.1108 17.4997 17.0131C17.4997 17.9153 17.1413 18.7806 16.5035 19.4187ZM20.2781 12.3701C20.0492 12.0871 19.8058 11.8161 19.549 11.5583C19.291 11.3011 19.0196 11.0577 18.736 10.8291L21.3889 8.17981L22.9311 9.722L20.2781 12.3701ZM24.3056 8.34631L22.7646 6.80534L25.7639 3.80482L27.3061 5.347L24.3056 8.34631Z" fill="#8BAA2A"/>
</g>
<defs>
<clipPath id="clip0_4294_4152">
<rect width="31.1111" height="31.1111" fill="white"/>
</clipPath>
</defs>
</svg>
