<svg width="32" height="32" viewBox="0 0 32 32" fill="none" xmlns="http://www.w3.org/2000/svg">
<path d="M29.1666 25.2784H27.2222V16.5284L27.5065 16.8128C27.6893 16.9952 27.937 17.0976 28.1952 17.0974C28.4535 17.0971 28.701 16.9943 28.8834 16.8116C29.0659 16.6288 29.1682 16.3811 29.168 16.1229C29.1678 15.8646 29.065 15.6171 28.8822 15.4347L16.93 3.48606C16.5654 3.12168 16.071 2.91699 15.5555 2.91699C15.04 2.91699 14.5456 3.12168 14.181 3.48606L2.22877 15.4347C2.0465 15.6171 1.94417 15.8645 1.94428 16.1223C1.94439 16.3802 2.04694 16.6275 2.22937 16.8098C2.4118 16.992 2.65916 17.0944 2.91704 17.0942C3.17492 17.0941 3.42219 16.9916 3.60446 16.8091L3.88883 16.5284V25.2784H1.94439C1.68654 25.2784 1.43925 25.3808 1.25693 25.5632C1.0746 25.7455 0.972168 25.9928 0.972168 26.2506C0.972168 26.5085 1.0746 26.7558 1.25693 26.9381C1.43925 27.1204 1.68654 27.2229 1.94439 27.2229H29.1666C29.4245 27.2229 29.6717 27.1204 29.8541 26.9381C30.0364 26.7558 30.1388 26.5085 30.1388 26.2506C30.1388 25.9928 30.0364 25.7455 29.8541 25.5632C29.6717 25.3808 29.4245 25.2784 29.1666 25.2784ZM18.4722 25.2784H12.6388V19.4451C12.6388 19.3162 12.69 19.1925 12.7812 19.1013C12.8724 19.0102 12.996 18.959 13.1249 18.959H17.9861C18.115 18.959 18.2386 19.0102 18.3298 19.1013C18.421 19.1925 18.4722 19.3162 18.4722 19.4451V25.2784Z" fill="#8BAA2A"/>
</svg>
