<svg width="32" height="32" viewBox="0 0 32 32" fill="none" xmlns="http://www.w3.org/2000/svg">
<path d="M15.5556 2.91699C13.0558 2.91699 10.6122 3.65825 8.53379 5.04703C6.45534 6.43581 4.83538 8.40973 3.87877 10.7192C2.92216 13.0286 2.67187 15.5699 3.15955 18.0216C3.64722 20.4733 4.85096 22.7253 6.61854 24.4929C8.38612 26.2605 10.6382 27.4642 13.0899 27.9519C15.5416 28.4396 18.0828 28.1893 20.3923 27.2327C22.7017 26.2761 24.6757 24.6561 26.0644 22.5777C27.4532 20.4992 28.1945 18.0556 28.1945 15.5559C28.1909 12.2049 26.8582 8.99223 24.4887 6.62274C22.1192 4.25326 18.9065 2.92053 15.5556 2.91699ZM16.5278 7.70276L19.5405 5.63071C21.2654 6.32553 22.7804 7.45614 23.9373 8.91196L22.9651 12.1859C22.9408 12.1859 22.9153 12.1981 22.891 12.2066L20.1177 13.1071C20.0761 13.1204 20.0355 13.1366 19.9962 13.1557L16.5278 10.7701C16.5278 10.7458 16.5278 10.7203 16.5278 10.6948V7.7781C16.5278 7.75258 16.5278 7.72706 16.5278 7.70276ZM11.5743 5.63071L14.5834 7.70276C14.5834 7.72706 14.5834 7.75258 14.5834 7.7781V10.6948C14.5834 10.7203 14.5834 10.7458 14.5834 10.7701L11.1125 13.1606C11.0732 13.1415 11.0326 13.1253 10.991 13.112L8.21773 12.2114C8.19343 12.2029 8.16791 12.1969 8.1436 12.1908L7.17138 8.91682C8.32944 7.45838 9.84669 6.32599 11.5743 5.63071ZM9.99447 21.3187H6.55037C5.54221 19.7512 4.96424 17.9461 4.8745 16.0845L7.54812 14.0331C7.57111 14.0433 7.59464 14.0522 7.6186 14.0599L10.3931 14.9616C10.4302 14.9728 10.4679 14.9817 10.5061 14.9883L11.8174 18.8067C11.7992 18.8286 11.7809 18.8505 11.7639 18.8736L10.0504 21.2324C10.0302 21.2602 10.0115 21.289 9.99447 21.3187ZM18.313 25.8857C16.5062 26.367 14.6049 26.367 12.7981 25.8857L11.5755 22.4344C11.5913 22.4149 11.6084 22.3967 11.6229 22.376L13.3377 20.0159C13.3579 19.9886 13.3765 19.9602 13.3936 19.9309H17.7176C17.7346 19.9602 17.7533 19.9886 17.7735 20.0159L19.4882 22.376C19.5028 22.3967 19.5198 22.4149 19.5356 22.4344L18.313 25.8857ZM21.1167 21.3151C21.0996 21.2853 21.081 21.2565 21.0608 21.2288L19.346 18.8736C19.329 18.8505 19.3108 18.8286 19.2926 18.8067L20.6038 14.9883C20.642 14.9817 20.6798 14.9728 20.7169 14.9616L23.4913 14.0599C23.5153 14.0522 23.5388 14.0433 23.5618 14.0331L26.2354 16.0845C26.1457 17.9461 25.5677 19.7512 24.5596 21.3187L21.1167 21.3151Z" fill="#8BAA2A"/>
</svg>
