<svg width="40" height="40" viewBox="0 0 40 40" fill="none" xmlns="http://www.w3.org/2000/svg">
<rect width="40" height="40" rx="20" fill="#E8F6ED"/>
<path fill-rule="evenodd" clip-rule="evenodd" d="M27.17 12.831C26.9591 12.6203 26.6731 12.502 26.375 12.502C26.0769 12.502 25.7909 12.6203 25.58 12.831L14.75 23.661V15.126C14.75 14.8276 14.6315 14.5414 14.4205 14.3305C14.2095 14.1195 13.9234 14.001 13.625 14.001C13.3266 14.001 13.0405 14.1195 12.8295 14.3305C12.6185 14.5414 12.5 14.8276 12.5 15.126V26.376C12.5 26.997 13.004 27.501 13.625 27.501H24.875C25.1734 27.501 25.4595 27.3824 25.6705 27.1715C25.8815 26.9605 26 26.6743 26 26.376C26 26.0776 25.8815 25.7914 25.6705 25.5805C25.4595 25.3695 25.1734 25.251 24.875 25.251H16.34L27.17 14.421C27.3807 14.21 27.499 13.9241 27.499 13.626C27.499 13.3278 27.3807 13.0419 27.17 12.831Z" fill="#16A34A"/>
</svg>
