<svg width="56" height="56" viewBox="0 0 56 56" fill="none" xmlns="http://www.w3.org/2000/svg">
<rect width="56" height="56" rx="28" fill="#E8F6ED"/>
<path fill-rule="evenodd" clip-rule="evenodd" d="M38.038 17.9626C37.7427 17.6676 37.3424 17.502 36.925 17.502C36.5076 17.502 36.1073 17.6676 35.812 17.9626L20.65 33.1246V21.1756C20.65 20.7579 20.4841 20.3572 20.1887 20.0619C19.8933 19.7665 19.4927 19.6006 19.075 19.6006C18.6573 19.6006 18.2567 19.7665 17.9613 20.0619C17.6659 20.3572 17.5 20.7579 17.5 21.1756V36.9256C17.5 37.795 18.2056 38.5006 19.075 38.5006H34.825C35.2427 38.5006 35.6433 38.3346 35.9387 38.0393C36.2341 37.7439 36.4 37.3433 36.4 36.9256C36.4 36.5079 36.2341 36.1072 35.9387 35.8119C35.6433 35.5165 35.2427 35.3506 34.825 35.3506H22.876L38.038 20.1886C38.3329 19.8933 38.4986 19.4929 38.4986 19.0756C38.4986 18.6582 38.3329 18.2579 38.038 17.9626Z" fill="#16A34A"/>
</svg>
