<svg width="56" height="56" viewBox="0 0 56 56" fill="none" xmlns="http://www.w3.org/2000/svg">
<rect width="56" height="56" rx="28" fill="#FCE9E9"/>
<path fill-rule="evenodd" clip-rule="evenodd" d="M17.9626 38.038C18.2579 38.3329 18.6582 38.4986 19.0756 38.4986C19.4929 38.4986 19.8933 38.3329 20.1886 38.038L35.3506 22.876V34.825C35.3506 35.2427 35.5165 35.6433 35.8119 35.9387C36.1072 36.2341 36.5079 36.4 36.9256 36.4C37.3433 36.4 37.7439 36.2341 38.0393 35.9387C38.3346 35.6433 38.5006 35.2427 38.5006 34.825V19.075C38.5006 18.6573 38.3346 18.2567 38.0393 17.9613C37.7439 17.6659 37.3433 17.5 36.9256 17.5H21.1756C20.7579 17.5 20.3572 17.6659 20.0619 17.9613C19.7665 18.2567 19.6006 18.6573 19.6006 19.075C19.6006 19.4927 19.7665 19.8933 20.0619 20.1887C20.3572 20.4841 20.7579 20.65 21.1756 20.65H33.1246L17.9626 35.812C17.6676 36.1073 17.502 36.5076 17.502 36.925C17.502 37.3424 17.6676 37.7427 17.9626 38.038Z" fill="#DC2626"/>
</svg>
