<svg width="40" height="40" viewBox="0 0 40 40" fill="none" xmlns="http://www.w3.org/2000/svg">
<rect width="40" height="40" rx="20" fill="#FCE9E9"/>
<path fill-rule="evenodd" clip-rule="evenodd" d="M12.83 27.17C13.0409 27.3807 13.3269 27.499 13.625 27.499C13.9231 27.499 14.209 27.3807 14.42 27.17L25.25 16.34V24.875C25.25 25.1734 25.3685 25.4595 25.5795 25.6705C25.7905 25.8815 26.0766 26 26.375 26C26.6734 26 26.9595 25.8815 27.1705 25.6705C27.3815 25.4595 27.5 25.1734 27.5 24.875V13.625C27.5 13.3266 27.3815 13.0405 27.1705 12.8295C26.9595 12.6185 26.6734 12.5 26.375 12.5H15.125C14.8266 12.5 14.5405 12.6185 14.3295 12.8295C14.1185 13.0405 14 13.3266 14 13.625C14 13.9234 14.1185 14.2095 14.3295 14.4205C14.5405 14.6315 14.8266 14.75 15.125 14.75H23.66L12.83 25.58C12.6193 25.7909 12.501 26.0769 12.501 26.375C12.501 26.6731 12.6193 26.9591 12.83 27.17Z" fill="#DC2626"/>
</svg>
