<svg width="120" height="120" viewBox="0 0 120 120" fill="none" xmlns="http://www.w3.org/2000/svg">
<path d="M60 0C93.1371 0 120 26.8629 120 60C120 93.1371 93.1371 120 60 120C26.8629 120 0 93.1371 0 60C0 26.8629 26.8629 0 60 0ZM80.2275 24.0176C77.1191 23.9173 71.3036 24.218 59.6729 25.5215C49.6463 26.5241 43.7305 27.3268 40.3213 28.1289C36.6114 28.931 34.8064 30.1343 33.8037 32.4404C33.3024 33.7439 33.1019 34.4457 33.2021 36.9521C33.2021 40.6618 33.5027 42.1663 34.6055 43.1689C35.4076 43.8708 36.21 44.0713 39.3184 44.3721C41.7247 44.5726 42.2261 44.5726 44.7324 44.6729C45.8353 44.7731 49.0441 44.8737 51.8516 45.0742C54.6582 45.1745 57.4651 45.3749 57.9678 45.375C61.778 45.5755 66.6916 47.3807 67.9951 49.1855C68.5965 49.8872 68.4966 50.2885 67.7949 50.6895C66.8925 51.0905 65.8895 51.291 63.6836 51.291C61.2772 51.3913 59.3718 51.2907 54.6592 50.8896C48.9443 50.2881 46.9389 50.2881 44.9336 50.5889C43.2291 50.8897 42.0255 51.3909 41.123 52.3936C39.8196 53.7973 39.3181 55.7026 39.2178 59.8135C39.0172 65.7293 40.4216 68.9384 43.4297 69.8408C45.1342 70.3421 47.2406 70.4424 55.4619 70.4424C62.8812 70.3421 63.3828 70.4417 66.0898 70.8428C68.4963 71.3441 70.5022 72.3472 71.2041 73.4502C71.7053 74.152 71.5042 74.6533 70.7021 74.9541C69.9001 75.2549 68.9978 75.3548 66.8926 75.4551C63.9848 75.6556 60.3746 75.4551 52.5537 74.8535C47.4403 74.4525 46.1367 74.3529 44.0312 74.4531C41.324 74.4531 39.4184 74.8535 38.0146 75.4551C34.9063 76.9591 33.4024 79.7675 33.1016 85.2822C32.8008 88.1899 33.2018 90.7971 34.0039 92.4014C35.508 95.4092 39.4191 96.3112 49.2451 95.9102C60.9762 95.4088 71.6043 94.3057 77.1191 92.8018C82.6339 91.398 85.743 89.2926 87.5479 85.7832C88.4502 83.778 88.8509 82.1737 88.9512 79.7676C88.9512 77.8625 88.8509 76.9596 88.3496 75.3555C87.748 73.1496 86.9454 71.7452 85.4414 70.2412C83.9379 68.6383 84.6896 74.678 82.6846 73.9766C82.2837 73.7761 73.0028 74.8525 72.8936 74.8535C72.9423 74.7932 79.627 66.5302 79.9268 66.2305C81.531 65.1275 82.7343 63.6235 83.6367 61.9189C84.7396 59.6129 85.3417 56.906 85.041 55.001C84.64 51.5919 80.2281 54.3488 76.418 52.043L69.3086 50.6895L78.9248 46.1768C83.0354 45.9762 85.1409 45.2747 86.7451 43.8711C88.5499 42.1665 88.9512 39.9604 88.9512 33.9443C88.8509 30.5353 88.6501 29.4321 87.9482 27.7275C87.5473 27.1261 87.347 26.8251 86.8457 26.2236C85.4419 24.8199 83.8372 24.3184 80.2275 24.0176Z" fill="black"/>
</svg>
