<svg width="40" height="40" viewBox="0 0 40 40" fill="none" xmlns="http://www.w3.org/2000/svg">
<path d="M20 0C31.0457 0 40 8.95431 40 20C40 31.0457 31.0457 40 20 40C8.95431 40 0 31.0457 0 20C0 8.95431 8.95431 0 20 0ZM26.7422 8.00586C25.706 7.97248 23.7671 8.0724 19.8906 8.50684C16.5487 8.84104 14.5768 9.10861 13.4404 9.37598C12.2038 9.64336 11.6018 10.0448 11.2676 10.8135C11.1005 11.2479 11.034 11.482 11.0674 12.3174C11.0674 13.5539 11.1676 14.0554 11.5352 14.3896C11.8025 14.6236 12.0703 14.6907 13.1064 14.791C13.9083 14.8578 14.0757 14.8572 14.9111 14.8906C15.2789 14.924 16.3485 14.9576 17.2842 15.0244C18.219 15.0578 19.1538 15.1249 19.3223 15.125C20.5923 15.1918 22.2305 15.7939 22.665 16.3955C22.8652 16.6292 22.8322 16.7629 22.5986 16.8965C22.2978 17.0302 21.9628 17.0967 21.2275 17.0967C20.4255 17.1301 19.7904 17.0966 18.2197 16.9629C16.3147 16.7624 15.646 16.763 14.9775 16.8633C14.4095 16.9636 14.0088 17.1307 13.708 17.4648C13.2736 17.9327 13.1057 18.5674 13.0723 19.9375C13.0054 21.9094 13.4739 22.9795 14.4766 23.2803C15.0447 23.4474 15.7469 23.4805 18.4873 23.4805C20.9605 23.447 21.1279 23.4806 22.0303 23.6143C22.8323 23.7814 23.5004 24.1158 23.7344 24.4834C23.9015 24.7173 23.8347 24.8841 23.5674 24.9844C23.3001 25.0846 22.9994 25.118 22.2979 25.1514C21.3286 25.2182 20.1246 25.1517 17.5176 24.9512C15.8133 24.8175 15.3786 24.784 14.6768 24.8174C13.7747 24.8174 13.1397 24.9509 12.6719 25.1514C11.6358 25.6527 11.1344 26.5895 11.0342 28.4277C10.934 29.3968 11.0676 30.2661 11.335 30.8008C11.8365 31.8031 13.1401 32.1034 16.415 31.9697C20.3252 31.8026 23.8677 31.4349 25.7061 30.9336C27.5442 30.4657 28.581 29.7644 29.1826 28.5947C29.4834 27.9263 29.617 27.391 29.6504 26.5889C29.6504 25.9539 29.6173 25.6529 29.4502 25.1182C29.2497 24.383 28.9818 23.9154 28.4805 23.4141C27.9792 22.8793 28.2298 24.8928 27.5615 24.6592C27.4279 24.5924 24.3342 24.9508 24.2979 24.9512C24.3141 24.9311 26.5427 22.1771 26.6426 22.0771C27.1773 21.7095 27.5781 21.2078 27.8789 20.6396C28.2465 19.8711 28.4468 18.969 28.3467 18.334C28.213 17.1976 26.7427 18.1163 25.4727 17.3477L23.1025 16.8965L26.3086 15.3926C27.6784 15.3257 28.3804 15.0918 28.915 14.624C29.5166 14.0558 29.6504 13.3198 29.6504 11.3145C29.617 10.1784 29.5503 9.81031 29.3164 9.24219C29.1828 9.04177 29.1153 8.94169 28.9482 8.74121C28.4804 8.27341 27.9453 8.10612 26.7422 8.00586Z" fill="#C4F03B"/>
</svg>
