<svg width="20" height="20" viewBox="0 0 20 20" fill="none" xmlns="http://www.w3.org/2000/svg">
<path d="M14.2644 8.48145C14.2979 8.48086 14.331 8.48748 14.3621 8.5C14.3931 8.51253 14.4214 8.53106 14.4451 8.55469C14.4688 8.57842 14.4882 8.60659 14.5007 8.6377C14.5133 8.66883 14.5189 8.70276 14.5183 8.73633C14.5177 8.76971 14.5104 8.8025 14.4968 8.83301C14.4832 8.86361 14.4637 8.8912 14.4392 8.91406L14.4324 8.91992L14.4265 8.92676L10.1765 13.1768C10.1297 13.2234 10.0659 13.249 9.99976 13.249C9.93384 13.2489 9.87073 13.2232 9.82397 13.1768L5.57397 8.92676C5.52716 8.87988 5.50073 8.81625 5.50073 8.75C5.50077 8.68418 5.52671 8.62098 5.573 8.57422C5.6198 8.52748 5.68362 8.50106 5.74976 8.50098C5.81579 8.50098 5.87968 8.52671 5.92651 8.57324L9.64624 12.2939L9.99976 12.6475L14.0798 8.56738L14.0857 8.56055C14.1085 8.53611 14.1362 8.51656 14.1667 8.50293C14.1974 8.48927 14.2308 8.48204 14.2644 8.48145Z" fill="#1A1A1A" stroke="#1A1A1A"/>
</svg>
