<svg width="24" height="24" viewBox="0 0 24 24" fill="none" xmlns="http://www.w3.org/2000/svg">
<path d="M19.9913 8.68814C18.5919 9.55285 17.7276 11.0352 17.7276 12.6823C17.7276 14.5352 18.8389 16.2234 20.5263 16.9234C20.197 17.994 19.7032 18.9823 19.0858 19.8881C18.1804 21.1646 17.2338 22.4823 15.8344 22.4823C14.4351 22.4823 14.0235 21.6587 12.3773 21.6587C10.7722 21.6587 10.196 22.5234 8.87896 22.5234C7.56195 22.5234 6.65651 21.3293 5.62759 19.847C4.26942 17.7881 3.48745 15.3999 3.44629 12.8881C3.44629 8.81167 6.08031 6.62932 8.71434 6.62932C10.1137 6.62932 11.266 7.5352 12.1303 7.5352C12.9535 7.5352 14.2705 6.58814 15.8344 6.58814C17.4807 6.54697 19.0447 7.32932 19.9913 8.68814ZM15.0936 4.85873C15.7933 4.0352 16.1637 3.00579 16.2048 1.9352C16.2048 1.81167 16.2048 1.64697 16.1637 1.52344C14.9701 1.64697 13.8589 2.22344 13.0769 3.12932C12.3773 3.91167 11.9657 4.89991 11.9246 5.9705C11.9246 6.09403 11.9246 6.21756 11.9657 6.34108C12.048 6.34108 12.1715 6.38226 12.2538 6.38226C13.365 6.29991 14.394 5.72344 15.0936 4.85873Z" fill="black"/>
</svg>
