<svg width="40" height="40" viewBox="0 0 40 40" fill="none" xmlns="http://www.w3.org/2000/svg">
<rect width="40" height="40" rx="6.66667" fill="black"/>
<path d="M17.083 24.1309C17.5342 24.1309 17.9671 24.3108 18.2861 24.6299C18.6052 24.949 18.7852 25.3818 18.7852 25.833C18.7851 26.2841 18.6051 26.7171 18.2861 27.0361C17.9671 27.355 17.5341 27.5342 17.083 27.5342C16.6319 27.5341 16.1989 27.3551 15.8799 27.0361C15.5609 26.7171 15.3819 26.2841 15.3818 25.833C15.3818 25.3819 15.561 24.9489 15.8799 24.6299C16.1989 24.3109 16.6319 24.1309 17.083 24.1309ZM11.9795 25.5898H13.4375C13.502 25.5898 13.5638 25.6156 13.6094 25.6611C13.6549 25.7067 13.6807 25.7686 13.6807 25.833C13.6806 25.8974 13.6549 25.9594 13.6094 26.0049C13.5638 26.0504 13.5019 26.0762 13.4375 26.0762H11.9795C11.9152 26.0762 11.8532 26.0503 11.8076 26.0049C11.7621 25.9594 11.7364 25.8974 11.7363 25.833C11.7363 25.7685 11.762 25.7067 11.8076 25.6611C11.8532 25.6156 11.915 25.5898 11.9795 25.5898ZM20.7295 25.5898H28.0205C28.085 25.5898 28.1468 25.6156 28.1924 25.6611C28.238 25.7067 28.2637 25.7685 28.2637 25.833C28.2636 25.8974 28.2379 25.9594 28.1924 26.0049C28.1468 26.0503 28.0848 26.0762 28.0205 26.0762H20.7295C20.6652 26.0762 20.6032 26.0503 20.5576 26.0049C20.5121 25.9594 20.4864 25.8974 20.4863 25.833C20.4863 25.7685 20.512 25.7067 20.5576 25.6611C20.6032 25.6156 20.665 25.5898 20.7295 25.5898ZM22.917 18.2979C23.3681 18.2979 23.8011 18.4769 24.1201 18.7959C24.4391 19.1149 24.6181 19.5479 24.6182 19.999C24.6182 20.4501 24.439 20.8831 24.1201 21.2021C23.8011 21.5211 23.3681 21.7011 22.917 21.7012C22.4658 21.7012 22.0329 21.5212 21.7139 21.2021C21.3948 20.8831 21.2148 20.4503 21.2148 19.999C21.2149 19.5479 21.3949 19.1149 21.7139 18.7959C22.0329 18.477 22.4659 18.2979 22.917 18.2979ZM11.9795 19.7559H19.2705C19.3348 19.7559 19.3968 19.7818 19.4424 19.8271C19.4879 19.8727 19.5136 19.9347 19.5137 19.999C19.5137 20.0635 19.488 20.1253 19.4424 20.1709C19.3968 20.2165 19.335 20.2422 19.2705 20.2422H11.9795C11.915 20.2422 11.8532 20.2165 11.8076 20.1709C11.762 20.1253 11.7363 20.0635 11.7363 19.999C11.7364 19.9347 11.7621 19.8727 11.8076 19.8271C11.8532 19.7818 11.9152 19.7559 11.9795 19.7559ZM26.5625 19.7559H28.0205C28.0848 19.7559 28.1468 19.7818 28.1924 19.8271C28.2379 19.8727 28.2636 19.9347 28.2637 19.999C28.2637 20.0635 28.238 20.1253 28.1924 20.1709C28.1468 20.2165 28.085 20.2422 28.0205 20.2422H26.5625C26.498 20.2422 26.4362 20.2165 26.3906 20.1709C26.3451 20.1253 26.3193 20.0634 26.3193 19.999C26.3194 19.9347 26.3451 19.8727 26.3906 19.8271C26.4362 19.7817 26.4981 19.7559 26.5625 19.7559ZM17.083 12.4648C17.5342 12.4648 17.9671 12.6439 18.2861 12.9629C18.6052 13.282 18.7852 13.7148 18.7852 14.166C18.7852 14.6173 18.6052 15.0501 18.2861 15.3691C17.9671 15.6881 17.5342 15.8672 17.083 15.8672C16.6319 15.8671 16.1989 15.6881 15.8799 15.3691C15.5609 15.0501 15.3818 14.6172 15.3818 14.166C15.3818 13.7149 15.5609 13.2819 15.8799 12.9629C16.1989 12.6439 16.6319 12.4649 17.083 12.4648ZM11.9795 13.9229H13.4375C13.502 13.9229 13.5638 13.9486 13.6094 13.9941C13.655 14.0397 13.6807 14.1016 13.6807 14.166C13.6807 14.2305 13.655 14.2923 13.6094 14.3379C13.5638 14.3835 13.502 14.4092 13.4375 14.4092H11.9795C11.9151 14.4092 11.8532 14.3834 11.8076 14.3379C11.762 14.2923 11.7363 14.2305 11.7363 14.166C11.7363 14.1016 11.762 14.0397 11.8076 13.9941C11.8532 13.9487 11.9151 13.9229 11.9795 13.9229ZM20.7295 13.9229H28.0205C28.0849 13.9229 28.1468 13.9487 28.1924 13.9941C28.238 14.0397 28.2637 14.1016 28.2637 14.166C28.2637 14.2305 28.238 14.2923 28.1924 14.3379C28.1468 14.3834 28.0849 14.4092 28.0205 14.4092H20.7295C20.6651 14.4092 20.6032 14.3834 20.5576 14.3379C20.512 14.2923 20.4863 14.2305 20.4863 14.166C20.4863 14.1016 20.512 14.0397 20.5576 13.9941C20.6032 13.9487 20.6651 13.9229 20.7295 13.9229Z" stroke="white" stroke-width="0.972222"/>
</svg>
