<svg width="24" height="24" viewBox="0 0 24 24" fill="none" xmlns="http://www.w3.org/2000/svg">
<path d="M12.4768 2.01291C12.5165 2.01299 12.5561 2.01306 12.5969 2.01314C13.1825 2.01499 13.7554 2.03173 14.331 2.14828C14.3685 2.15572 14.4061 2.16317 14.4447 2.17084C14.7083 2.22444 14.9695 2.28584 15.2301 2.3526C15.2605 2.36027 15.2909 2.36795 15.3222 2.37586C16.7214 2.7361 18.0529 3.46286 19.1581 4.38814C19.1799 4.40628 19.2016 4.42442 19.2241 4.44312C19.4097 4.60191 19.5856 4.75635 19.6108 5.01083C19.6114 5.04133 19.6121 5.07183 19.6127 5.10326C19.6138 5.13344 19.6148 5.16362 19.6159 5.19472C19.5838 5.43479 19.4399 5.59545 19.2742 5.76159C19.2538 5.78222 19.2333 5.80285 19.2123 5.82411C19.1453 5.89168 19.0778 5.95879 19.0103 6.02589C18.9633 6.07297 18.9163 6.12006 18.8694 6.16717C18.7711 6.26561 18.6726 6.36381 18.574 6.46187C18.4478 6.5874 18.3221 6.71349 18.1966 6.83974C18.0998 6.937 18.0027 7.03397 17.9055 7.13084C17.859 7.17722 17.8126 7.22369 17.7664 7.27025C17.7016 7.33529 17.6365 7.39992 17.5713 7.46447C17.5344 7.5013 17.4974 7.53813 17.4594 7.57607C17.3068 7.70593 17.1686 7.75835 16.9693 7.75942C16.9399 7.7601 16.9104 7.76079 16.8801 7.76149C16.6347 7.72402 16.4477 7.5616 16.2568 7.41463C15.5445 6.88199 14.7435 6.52919 13.8815 6.31641C13.8548 6.30966 13.8281 6.30291 13.8006 6.29596C12.3337 5.94328 10.7312 6.25367 9.42736 6.97023C9.36344 7.00413 9.36344 7.00413 9.29822 7.03871C7.88281 7.82008 6.88339 9.21395 6.41569 10.7414C6.36267 10.9264 6.31648 11.1126 6.28083 11.3018C6.27367 11.3398 6.26652 11.3778 6.25914 11.4169C6.19914 11.7663 6.18268 12.1098 6.18378 12.4639C6.18383 12.5066 6.18383 12.5066 6.18389 12.5502C6.18829 13.6179 6.45568 14.6186 6.97552 15.5517C6.98973 15.5777 7.00395 15.6037 7.0186 15.6305C7.22236 16.0001 7.45704 16.3224 7.73917 16.6359C7.78941 16.6921 7.83841 16.7494 7.8873 16.8068C8.10586 17.0601 8.34416 17.2698 8.61008 17.4723C8.63141 17.4887 8.65273 17.5052 8.67471 17.5221C10.0205 18.5521 11.7254 18.9603 13.4017 18.7534C14.8724 18.5271 16.3774 17.746 17.3141 16.5733C17.3319 16.551 17.3497 16.5287 17.3681 16.5058C17.602 16.2105 17.8207 15.9105 18.0063 15.5823C18.0202 15.5578 18.0341 15.5333 18.0485 15.508C18.1367 15.3463 18.2093 15.1802 18.2796 15.01C18.2978 14.966 18.316 14.922 18.3348 14.8766C18.3486 14.8432 18.3624 14.8097 18.3766 14.7753C18.3514 14.7754 18.3261 14.7756 18.3002 14.7757C17.6859 14.7793 17.0716 14.782 16.4573 14.7837C16.1603 14.7846 15.8632 14.7857 15.5662 14.7876C15.3072 14.7892 15.0482 14.7903 14.7892 14.7906C14.6521 14.7909 14.5151 14.7914 14.378 14.7925C14.2248 14.7937 14.0716 14.7939 13.9184 14.7938C13.8506 14.7947 13.8506 14.7947 13.7814 14.7956C13.519 14.7942 13.3591 14.7685 13.146 14.6118C12.9648 14.4115 12.9354 14.2873 12.9344 14.024C12.9342 13.9929 12.9339 13.9618 12.9336 13.9298C12.9328 13.8266 12.9323 13.7234 12.9319 13.6202C12.9318 13.585 12.9316 13.5497 12.9314 13.5134C12.9306 13.3269 12.93 13.1403 12.9296 12.9538C12.9292 12.7612 12.9277 12.5687 12.9261 12.3761C12.9251 12.228 12.9247 12.0798 12.9246 11.9317C12.9244 11.8607 12.9239 11.7897 12.9231 11.7188C12.9221 11.6193 12.9222 11.5199 12.9225 11.4204C12.9217 11.3766 12.9217 11.3766 12.9209 11.332C12.923 11.1261 12.9772 11.0115 13.1051 10.8523C13.3254 10.6536 13.4962 10.642 13.7833 10.6423C13.8378 10.6421 13.8378 10.6421 13.8934 10.6419C14.0155 10.6415 14.1377 10.6415 14.2598 10.6414C14.3472 10.6412 14.4346 10.641 14.522 10.6408C14.7597 10.6403 14.9975 10.64 15.2352 10.6398C15.3837 10.6397 15.5322 10.6395 15.6806 10.6393C16.145 10.6388 16.6093 10.6384 17.0736 10.6382C17.6099 10.638 18.1463 10.6373 18.6827 10.6361C19.097 10.6353 19.5113 10.6349 19.9257 10.6348C20.1733 10.6348 20.4208 10.6345 20.6684 10.6338C20.9013 10.6331 21.1342 10.633 21.367 10.6334C21.4525 10.6334 21.538 10.6332 21.6235 10.6328C21.7402 10.6323 21.8569 10.6326 21.9735 10.633C22.0074 10.6326 22.0413 10.6323 22.0762 10.632C22.3269 10.6341 22.5336 10.6951 22.7158 10.8779C22.8308 11.0275 22.8672 11.1786 22.8983 11.3612C22.9035 11.3914 22.9087 11.4217 22.914 11.4529C22.9742 11.8387 22.9721 12.225 22.9687 12.6146C22.9684 12.6726 22.9684 12.6726 22.9681 12.7318C22.9648 13.3111 22.9478 13.8792 22.8308 14.4483C22.8186 14.5084 22.8186 14.5084 22.8062 14.5696C22.4746 16.154 21.839 17.631 20.8284 18.9025C20.7997 18.9391 20.7709 18.9757 20.7413 19.0135C20.4985 19.3167 20.2371 19.6013 19.9703 19.8833C19.9442 19.9111 19.9181 19.9389 19.8913 19.9675C19.7237 20.1411 19.5397 20.2919 19.3517 20.4428C19.2776 20.5025 19.2042 20.5632 19.1318 20.625C17.7773 21.7756 16.0706 22.5133 14.331 22.8255C14.2971 22.8321 14.2631 22.8387 14.2281 22.8456C13.0951 23.062 11.7839 23.0462 10.6533 22.8255C10.6166 22.8189 10.58 22.8123 10.5422 22.8055C8.06451 22.3572 5.63848 20.919 4.1559 18.8617C4.13607 18.8346 4.11625 18.8076 4.09582 18.7797C2.74921 16.9391 2.01101 14.8049 2.01565 12.5175C2.01567 12.4762 2.01569 12.4348 2.01571 12.3922C2.01738 11.7166 2.0548 11.0659 2.19443 10.4028C2.20318 10.3607 2.21194 10.3185 2.22096 10.2751C2.56631 8.66651 3.29485 7.19015 4.31936 5.90777C4.35191 5.86673 4.38446 5.8257 4.418 5.78342C4.88148 5.21735 5.40617 4.66888 5.99478 4.23234C6.02125 4.21247 6.04771 4.1926 6.07497 4.17212C6.4834 3.86633 6.89861 3.58349 7.3433 3.33333C7.36888 3.31862 7.39446 3.3039 7.42081 3.28874C8.48469 2.67962 9.68695 2.28537 10.8985 2.10741C10.9477 2.10017 10.9969 2.09292 11.0476 2.08545C11.524 2.02011 11.9966 2.01104 12.4768 2.01291Z" fill="#157DE6"/>
<path d="M12.4612 2.00022C12.5008 2.00029 12.5405 2.00037 12.5813 2.00044C13.1668 2.0023 13.7397 2.01904 14.3154 2.13558C14.3529 2.14303 14.3904 2.15047 14.4291 2.15815C14.6927 2.21174 14.9538 2.27315 15.2144 2.3399C15.2448 2.34758 15.2752 2.35526 15.3066 2.36317C16.7058 2.7234 18.0373 3.45017 19.1425 4.37544C19.1642 4.39358 19.186 4.41173 19.2084 4.43042C19.3941 4.58922 19.57 4.74365 19.5952 4.99814C19.5958 5.02864 19.5964 5.05914 19.5971 5.09056C19.5982 5.12074 19.5992 5.15093 19.6003 5.18203C19.5681 5.42209 19.4243 5.58275 19.2586 5.74889C19.2381 5.76952 19.2177 5.79015 19.1967 5.81141C19.1297 5.87898 19.0622 5.9461 18.9947 6.01319C18.9477 6.06027 18.9007 6.10737 18.8537 6.15448C18.7555 6.25291 18.657 6.35112 18.5584 6.44917C18.4322 6.57471 18.3065 6.70079 18.181 6.82705C18.0841 6.92431 17.987 7.02127 17.8898 7.11815C17.8434 7.16452 17.797 7.21099 17.7507 7.25755C17.686 7.32259 17.6209 7.38723 17.5557 7.45178C17.5187 7.4886 17.4818 7.52543 17.4438 7.56338C17.2912 7.69323 17.1529 7.74566 16.9537 7.74672C16.9243 7.74741 16.8948 7.74809 16.8645 7.7488C16.6191 7.71132 16.4321 7.54891 16.2411 7.40193C15.5289 6.8693 14.7279 6.5165 13.8659 6.30371C13.8392 6.29696 13.8125 6.29021 13.7849 6.28326C12.3181 5.93058 10.7156 6.24098 9.41174 6.95754C9.34781 6.99143 9.34781 6.99143 9.2826 7.02602C7.86719 7.80738 6.86776 9.20126 6.40007 10.7287C6.34705 10.9137 6.30086 11.0999 6.26521 11.2891C6.25805 11.3271 6.25089 11.3651 6.24352 11.4042C6.18351 11.7536 6.16706 12.0971 6.16815 12.4512C6.16821 12.4939 6.16821 12.4939 6.16826 12.5375C6.17247 13.5578 6.41363 14.5129 6.89445 15.4142C6.9599 15.539 6.9599 15.539 7.00076 15.6616C6.95647 15.6868 6.95647 15.6868 6.91129 15.7125C6.39497 16.0066 5.87897 16.3012 5.3662 16.6014C4.86182 16.8968 4.35454 17.187 3.84639 17.4758C3.77673 17.5156 3.70726 17.5557 3.63812 17.5964C3.45372 17.7048 3.45372 17.7048 3.36386 17.7048C2.44781 16.1142 1.99632 14.3339 2.00002 12.5048C2.00004 12.4635 2.00007 12.4221 2.00009 12.3795C2.00175 11.7039 2.03918 11.0532 2.1788 10.3901C2.18756 10.348 2.19632 10.3058 2.20534 10.2624C2.55069 8.65381 3.27922 7.17746 4.30373 5.89507C4.33629 5.85404 4.36884 5.813 4.40238 5.77072C4.86585 5.20466 5.39055 4.65618 5.97916 4.21965C6.00562 4.19977 6.03208 4.1799 6.05935 4.15943C6.46778 3.85363 6.88299 3.57079 7.32767 3.32064C7.35325 3.30592 7.37883 3.2912 7.40519 3.27604C8.46907 2.66692 9.67133 2.27267 10.8828 2.09472C10.9321 2.08747 10.9813 2.08022 11.032 2.07276C11.5084 2.00742 11.9809 1.99834 12.4612 2.00022Z" fill="#FF4B25"/>
<path d="M6.9186 15.6611C7.07593 15.7215 7.12884 15.801 7.21231 15.9446C7.36656 16.1963 7.54327 16.4186 7.73588 16.6419C7.76839 16.6799 7.80089 16.7179 7.83437 16.7571C8.06683 17.0216 8.31369 17.2465 8.59403 17.4592C8.6153 17.4755 8.63657 17.4919 8.65848 17.5088C10.0043 18.5389 11.7092 18.9472 13.3857 18.7403C14.0984 18.6306 14.781 18.3946 15.4161 18.0558C15.5409 17.9904 15.5409 17.9904 15.6635 17.9495C16.0889 18.6769 16.5109 19.4061 16.9313 20.1364C16.9867 20.2327 17.0422 20.329 17.0977 20.4253C17.1495 20.5154 17.2014 20.6054 17.2532 20.6955C17.2769 20.7367 17.3006 20.7778 17.325 20.8202C17.3477 20.8596 17.3704 20.8989 17.3937 20.9395C17.4807 21.0879 17.5714 21.2341 17.663 21.3797C17.7067 21.4638 17.7067 21.4638 17.7067 21.5864C16.576 22.2198 15.3547 22.6645 14.0698 22.8532C14.0206 22.8604 13.9714 22.8677 13.9206 22.8752C13.4443 22.9405 12.9717 22.9496 12.4914 22.9477C12.4518 22.9476 12.4122 22.9476 12.3713 22.9475C11.7849 22.9456 11.2143 22.925 10.6372 22.8123C10.6006 22.8058 10.5639 22.7992 10.5262 22.7924C8.05037 22.3444 5.61985 20.9065 4.13985 18.8485C4.11937 18.8204 4.09889 18.7922 4.0778 18.7632C3.83814 18.4331 3.60392 18.1016 3.4043 17.7452C3.50621 17.631 3.61892 17.5641 3.7518 17.4892C3.79756 17.4632 3.84331 17.4373 3.89046 17.4105C3.91483 17.3968 3.9392 17.3831 3.96431 17.369C4.06786 17.3108 4.17117 17.2522 4.27449 17.1936C4.32793 17.1633 4.38138 17.133 4.43484 17.1027C4.6932 16.9565 4.95042 16.8083 5.20742 16.6597C5.29399 16.6097 5.38056 16.5597 5.46713 16.5097C5.51029 16.4848 5.55346 16.4598 5.59793 16.4341C5.74251 16.3506 5.88719 16.2673 6.03189 16.1841C6.10534 16.1418 6.1788 16.0995 6.25226 16.0572C6.322 16.017 6.39177 15.9769 6.46154 15.9368C6.50359 15.9126 6.54565 15.8883 6.58898 15.8634C6.62609 15.842 6.66319 15.8207 6.70142 15.7987C6.77522 15.7551 6.8473 15.7087 6.9186 15.6611Z" fill="#12B346"/>
<path d="M3.36386 7.24316C3.5087 7.29811 3.64206 7.36217 3.77713 7.43791C3.8175 7.4605 3.85786 7.48309 3.89945 7.50637C3.94268 7.53076 3.98591 7.55516 4.03045 7.58029C4.07582 7.60579 4.12118 7.6313 4.16792 7.65757C4.51105 7.85108 4.8518 8.04851 5.19161 8.24778C5.52182 8.44128 5.85361 8.63188 6.18603 8.82154C6.21053 8.83552 6.23503 8.84949 6.26027 8.8639C6.37338 8.92841 6.4865 8.99289 6.59964 9.05734C6.73341 9.13357 6.8671 9.20994 7.00076 9.28637C6.97753 9.33246 6.9543 9.37855 6.93036 9.42604C6.13713 11.0296 5.9253 12.7529 6.47974 14.471C6.59118 14.7994 6.73133 15.108 6.89445 15.4137C6.9599 15.5386 6.9599 15.5386 7.00076 15.6612C6.95647 15.6864 6.95647 15.6864 6.91129 15.7121C6.39497 16.0062 5.87897 16.3007 5.3662 16.601C4.86182 16.8964 4.35454 17.1866 3.84639 17.4753C3.77673 17.5151 3.70726 17.5552 3.63812 17.5959C3.45372 17.7044 3.45372 17.7044 3.36386 17.7044C2.44781 16.1137 1.99632 14.3335 2.00002 12.5044C2.00004 12.4631 2.00007 12.4217 2.00009 12.3791C2.00175 11.7035 2.03918 11.0528 2.1788 10.3897C2.18756 10.3476 2.19632 10.3054 2.20534 10.262C2.43106 9.21062 2.82014 8.17281 3.36386 7.24316Z" fill="#FED400"/>
<path d="M12.4766 2.0127C13.5216 2.0127 13.5216 2.0127 13.8455 2.06122C13.9029 2.06929 13.9029 2.06929 13.9615 2.07752C14.3847 2.1403 14.8002 2.2335 15.2145 2.33961C15.2449 2.34729 15.2753 2.35496 15.3066 2.36287C16.7058 2.72311 18.0373 3.44987 19.1425 4.37515C19.1643 4.39329 19.186 4.41143 19.2085 4.43013C19.3941 4.58893 19.57 4.74336 19.5952 4.99784C19.5962 5.04359 19.5962 5.04359 19.5971 5.09027C19.5987 5.13554 19.5987 5.13554 19.6003 5.18173C19.5682 5.4218 19.4243 5.58246 19.2586 5.7486C19.2382 5.76923 19.2177 5.78986 19.1967 5.81112C19.1297 5.87869 19.0622 5.94581 18.9947 6.0129C18.9477 6.05998 18.9007 6.10707 18.8538 6.15419C18.7555 6.25262 18.657 6.35082 18.5584 6.44888C18.4322 6.57442 18.3065 6.7005 18.181 6.82675C18.0842 6.92401 17.9871 7.02098 17.8899 7.11786C17.8434 7.16423 17.797 7.2107 17.7508 7.25726C17.686 7.3223 17.6209 7.38694 17.5557 7.45148C17.5003 7.50672 17.5003 7.50672 17.4438 7.56308C17.2912 7.69294 17.153 7.74536 16.9537 7.74643C16.9243 7.74711 16.8948 7.7478 16.8645 7.74851C16.6191 7.71103 16.4321 7.54862 16.2412 7.40164C15.4313 6.79601 14.4914 6.40453 13.4956 6.23191C13.4552 6.22481 13.4552 6.22481 13.4141 6.21758C13.1015 6.16834 12.7957 6.15991 12.4766 6.13996C12.4766 4.77796 12.4766 3.41597 12.4766 2.0127Z" fill="#D93F21"/>
<path d="M15.6231 17.9502C15.7373 18.0521 15.8042 18.1648 15.8791 18.2977C15.9051 18.3435 15.931 18.3892 15.9578 18.4364C15.9715 18.4607 15.9852 18.4851 15.9993 18.5102C16.0575 18.6138 16.1161 18.7171 16.1747 18.8204C16.205 18.8738 16.2353 18.9273 16.2655 18.9807C16.4118 19.2391 16.5599 19.4963 16.7085 19.7533C16.7586 19.8399 16.8086 19.9265 16.8586 20.013C16.8835 20.0562 16.9085 20.0994 16.9342 20.1438C17.0176 20.2884 17.101 20.4331 17.1842 20.5778C17.2265 20.6512 17.2688 20.7247 17.3111 20.7982C17.3513 20.8679 17.3914 20.9377 17.4315 21.0074C17.4557 21.0495 17.48 21.0915 17.5049 21.1349C17.5369 21.1905 17.5369 21.1905 17.5696 21.2473C17.6132 21.3211 17.6596 21.3932 17.7072 21.4645C17.7072 21.505 17.7072 21.5454 17.7072 21.5871C16.5708 22.2236 15.3575 22.6516 14.0703 22.8539C14.0257 22.8611 14.0257 22.8611 13.9802 22.8684C13.4735 22.9473 12.9963 22.9356 12.4766 22.9356C12.4766 21.5736 12.4766 20.2116 12.4766 18.8083C12.7867 18.7814 13.0969 18.7544 13.4164 18.7266C14.2128 18.5888 14.9116 18.328 15.6231 17.9502Z" fill="#0F993E"/>
</svg>
