<svg width="14" height="14" viewBox="0 0 14 14" fill="none" xmlns="http://www.w3.org/2000/svg">
<path fill-rule="evenodd" clip-rule="evenodd" d="M3.0625 1.3125C2.59837 1.3125 2.15325 1.49687 1.82506 1.82506C1.49687 2.15325 1.3125 2.59837 1.3125 3.0625V5.58133C1.3126 6.04542 1.49704 6.49047 1.82525 6.81858L7.41358 12.4075C7.95025 12.9442 8.80775 13.0993 9.48325 12.6572C10.7482 11.8289 11.8286 10.7486 12.6572 9.48383C13.0993 8.80717 12.9442 7.95025 12.4075 7.41417L6.81917 1.82525C6.65663 1.66267 6.46366 1.5337 6.25126 1.44572C6.03887 1.35774 5.81123 1.31247 5.58133 1.3125H3.0625ZM3.71875 4.375C3.8928 4.375 4.05972 4.30586 4.18279 4.18279C4.30586 4.05972 4.375 3.8928 4.375 3.71875C4.375 3.5447 4.30586 3.37778 4.18279 3.25471C4.05972 3.13164 3.8928 3.0625 3.71875 3.0625C3.5447 3.0625 3.37778 3.13164 3.25471 3.25471C3.13164 3.37778 3.0625 3.5447 3.0625 3.71875C3.0625 3.8928 3.13164 4.05972 3.25471 4.18279C3.37778 4.30586 3.5447 4.375 3.71875 4.375Z" fill="#A5A5A5"/>
</svg>
