<svg width="16" height="16" viewBox="0 0 16 16" fill="none" xmlns="http://www.w3.org/2000/svg">
<path d="M2.25 2C1.55933 2 1 2.56 1 3.25V3.75C1 4.44067 1.56 5 2.25 5H13.75C14.44 5 15 4.44 15 3.75V3.25C15 2.55933 14.44 2 13.75 2H2.25Z" fill="#1A1A1A"/>
<path fill-rule="evenodd" clip-rule="evenodd" d="M2.05786 6L2.41786 12.1173C2.44778 12.6264 2.67099 13.1047 3.04187 13.4547C3.41275 13.8046 3.90328 13.9997 4.41319 14H11.5845C12.0947 14 12.5855 13.8051 12.9567 13.4551C13.3279 13.1052 13.5513 12.6266 13.5812 12.1173L13.9419 6H2.05786ZM6.16653 8.5C6.16653 8.36739 6.21921 8.24022 6.31297 8.14645C6.40674 8.05268 6.53392 8 6.66653 8H9.33319C9.4658 8 9.59298 8.05268 9.68675 8.14645C9.78052 8.24022 9.83319 8.36739 9.83319 8.5C9.83319 8.63261 9.78052 8.75978 9.68675 8.85355C9.59298 8.94732 9.4658 9 9.33319 9H6.66653C6.53392 9 6.40674 8.94732 6.31297 8.85355C6.21921 8.75978 6.16653 8.63261 6.16653 8.5Z" fill="#1A1A1A"/>
</svg>
