<svg width="56" height="56" viewBox="0 0 56 56" fill="none" xmlns="http://www.w3.org/2000/svg">
<path d="M5.25 31.5H14.2567C15.2315 31.5003 16.1871 31.7719 17.0162 32.2846C17.8454 32.7973 18.5155 33.5307 18.9513 34.4027L19.5487 35.5973C19.9847 36.4697 20.6551 37.2033 21.4848 37.716C22.3144 38.2287 23.2704 38.5002 24.2457 38.5H31.7543C32.7296 38.5002 33.6856 38.2287 34.5152 37.716C35.3449 37.2033 36.0153 36.4697 36.4513 35.5973L37.0487 34.4027C37.4847 33.5303 38.1551 32.7967 38.9848 32.284C39.8144 31.7713 40.7704 31.4998 41.7457 31.5H50.75M5.25 32.2887V42C5.25 43.3924 5.80312 44.7277 6.78769 45.7123C7.77226 46.6969 9.10761 47.25 10.5 47.25H45.5C46.8924 47.25 48.2277 46.6969 49.2123 45.7123C50.1969 44.7277 50.75 43.3924 50.75 42V32.2887C50.75 31.766 50.6707 31.2457 50.5167 30.7463L44.8933 12.4553C44.5631 11.3826 43.8977 10.4439 42.9948 9.77701C42.092 9.11015 40.9991 8.7502 39.8767 8.75H16.1257C15.0032 8.7502 13.9104 9.11015 13.0075 9.77701C12.1046 10.4439 11.4393 11.3826 11.109 12.4553L5.48333 30.7463C5.32919 31.246 5.25054 31.7658 5.25 32.2887Z" stroke="#A5A5A5" stroke-width="3.5" stroke-linecap="round" stroke-linejoin="round"/>
</svg>
