<svg width="56" height="56" viewBox="0 0 56 56" fill="none" xmlns="http://www.w3.org/2000/svg">
<path d="M5.30367 13.125C7.22016 11.4299 9.69144 10.496 12.25 10.5H43.75C46.4123 10.5 48.8437 11.4917 50.6963 13.125C50.4832 11.4332 49.6598 9.87735 48.3808 8.74959C47.1018 7.62183 45.4552 6.9997 43.75 7H12.25C10.5448 6.9997 8.89815 7.62183 7.61916 8.74959C6.34017 9.87735 5.51682 11.4332 5.30367 13.125ZM5.30367 20.125C7.22016 18.4299 9.69144 17.496 12.25 17.5H43.75C46.4123 17.5 48.8437 18.4917 50.6963 20.125C50.4832 18.4332 49.6598 16.8774 48.3808 15.7496C47.1018 14.6218 45.4552 13.9997 43.75 14H12.25C10.5448 13.9997 8.89815 14.6218 7.61916 15.7496C6.34017 16.8774 5.51682 18.4332 5.30367 20.125ZM12.25 21C10.3935 21 8.61301 21.7375 7.30025 23.0503C5.9875 24.363 5.25 26.1435 5.25 28V42C5.25 43.8565 5.9875 45.637 7.30025 46.9498C8.61301 48.2625 10.3935 49 12.25 49H43.75C45.6065 49 47.387 48.2625 48.6998 46.9498C50.0125 45.637 50.75 43.8565 50.75 42V28C50.75 26.1435 50.0125 24.363 48.6998 23.0503C47.387 21.7375 45.6065 21 43.75 21H35C34.5359 21 34.0908 21.1844 33.7626 21.5126C33.4344 21.8408 33.25 22.2859 33.25 22.75C33.25 24.1424 32.6969 25.4777 31.7123 26.4623C30.7277 27.4469 29.3924 28 28 28C26.6076 28 25.2723 27.4469 24.2877 26.4623C23.3031 25.4777 22.75 24.1424 22.75 22.75C22.75 22.2859 22.5656 21.8408 22.2374 21.5126C21.9092 21.1844 21.4641 21 21 21H12.25Z" fill="#A5A5A5"/>
</svg>
