<svg width="32" height="32" viewBox="0 0 32 32" fill="none" xmlns="http://www.w3.org/2000/svg">
<rect width="32" height="32" rx="16" fill="#F5F5F5"/>
<path fill-rule="evenodd" clip-rule="evenodd" d="M10.32 6.57665C14.094 6.13851 17.906 6.13851 21.68 6.57665C23.177 6.75065 24.25 8.03665 24.25 9.50665V24.9996C24.2498 25.1274 24.217 25.2529 24.1547 25.3644C24.0925 25.4759 24.0027 25.5697 23.8941 25.6368C23.7854 25.7039 23.6614 25.7421 23.5338 25.7479C23.4062 25.7536 23.2793 25.7267 23.165 25.6696L16 22.0886L8.835 25.6716C8.72058 25.7288 8.59345 25.7557 8.4657 25.7498C8.33795 25.744 8.21381 25.7056 8.10509 25.6382C7.99637 25.5709 7.90667 25.4769 7.84452 25.3651C7.78237 25.2533 7.74983 25.1275 7.75 24.9996V9.50665C7.75 8.03665 8.823 6.75065 10.32 6.57665Z" fill="#8BAA2A"/>
</svg>
