<svg width="24" height="24" viewBox="0 0 24 24" fill="none" xmlns="http://www.w3.org/2000/svg">
<path d="M13.293 22.3994C18.4702 21.7623 22.4784 17.3494 22.4785 12C22.4785 6.21262 17.7874 1.52051 12 1.52051C6.21262 1.52051 1.52148 6.21262 1.52148 12C1.5216 16.9049 4.89147 21.0214 9.44238 22.1631V15.2295H7.27734V11.9785H9.44238V10.6172C9.44238 8.8278 9.84722 7.51386 10.6953 6.64746C11.5437 5.78098 12.8326 5.36621 14.5898 5.36621C15.2563 5.36626 16.4061 5.49586 16.8779 5.62695L16.8926 5.63184V8.58008L16.8701 8.57715C16.6235 8.55119 16.1938 8.53809 15.6592 8.53809C14.8002 8.53809 14.2105 8.70125 13.835 9.07031C13.4595 9.43937 13.293 10.0194 13.293 10.8652V11.9785H16.7266L16.7227 12.0039L16.1328 15.2119L16.1299 15.2295H13.293V22.3994Z" fill="#0866FF" stroke="#0866FF" stroke-width="0.042"/>
<path d="M16.1126 15.2086L16.7018 12H13.2722V10.8652C13.2722 9.16958 13.9374 8.51744 15.6591 8.51744C16.1939 8.51744 16.6243 8.53046 16.8721 8.55655V5.64792C16.4026 5.51747 15.2547 5.38701 14.5895 5.38701C11.0809 5.38701 9.46352 7.04354 9.46352 10.6174V12H7.29834V15.2086H9.46352V22.1908C10.2933 22.3965 11.1451 22.5003 12.0001 22.5C12.4307 22.5 12.8551 22.4735 13.2722 22.4231V15.2086H16.1126Z" fill="white"/>
</svg>
