<svg width="24" height="24" viewBox="0 0 24 24" fill="none" xmlns="http://www.w3.org/2000/svg">
<path d="M15.8342 6.63574H15.8362C17.4502 6.59547 18.983 7.35503 19.9231 8.67578C18.5362 9.55243 17.6809 11.0357 17.6809 12.6826C17.681 14.539 18.7857 16.2306 20.468 16.9482C20.1404 17.9985 19.6543 18.9693 19.0471 19.8604C18.5939 20.4993 18.134 21.1439 17.6135 21.6289C17.0937 22.1133 16.5175 22.4346 15.8342 22.4346C15.1456 22.4345 14.7008 22.2333 14.217 22.0273C13.7315 21.8206 13.2099 21.6113 12.3772 21.6113C11.5651 21.6114 11.0129 21.8311 10.5022 22.0479C9.99163 22.2646 9.52656 22.4766 8.87915 22.4766C8.23674 22.4765 7.69237 22.185 7.17798 21.7061C6.79149 21.3462 6.42371 20.8828 6.04712 20.3604L5.66626 19.8203C4.31321 17.7689 3.53446 15.3895 3.49341 12.8877L3.50122 12.5137C3.65711 8.70225 6.19068 6.67701 8.71411 6.67676C9.404 6.67676 10.0352 6.89971 10.6057 7.12598C10.8899 7.23867 11.1613 7.35303 11.4143 7.43848C11.6671 7.52385 11.9066 7.58195 12.1301 7.58203C12.3439 7.58203 12.5871 7.52079 12.8518 7.43164C13.1165 7.34251 13.4099 7.22318 13.7219 7.10547C14.3485 6.86913 15.0617 6.63583 15.8342 6.63574ZM16.1272 1.5752C16.1395 1.6239 16.1487 1.67743 16.1526 1.73242L16.1575 1.93555C16.1163 2.99562 15.7496 4.01387 15.0579 4.82812L15.0569 4.8291C14.3651 5.68393 13.3487 6.25221 12.2522 6.33398C12.217 6.33368 12.1715 6.32585 12.1194 6.31543C12.0823 6.308 12.041 6.30258 12.0032 6.29883C11.9733 6.19324 11.9719 6.08667 11.9719 5.97266C12.0126 4.91336 12.4201 3.93545 13.1125 3.16113V3.16016C13.8775 2.27402 14.9614 1.70646 16.1272 1.5752Z" fill="black" stroke="black" stroke-width="0.094626"/>
</svg>
