<svg width="24" height="24" viewBox="0 0 24 24" fill="none" xmlns="http://www.w3.org/2000/svg">
<path d="M22 17.25C22 17.913 21.7364 18.5488 21.2676 19.0176C20.7987 19.4864 20.163 19.75 19.5 19.75H4.5C3.83698 19.75 3.20126 19.4864 2.73242 19.0176C2.2636 18.5488 2.00002 17.913 2 17.25V9.56348L10.166 14.5889C10.7176 14.9282 11.3524 15.1074 12 15.1074C12.6476 15.1074 13.2824 14.9282 13.834 14.5889L22 9.56348V17.25Z" fill="black" stroke="black"/>
<path d="M22.5 6.908V6.75C22.5 5.95435 22.1839 5.19129 21.6213 4.62868C21.0587 4.06607 20.2956 3.75 19.5 3.75H4.5C3.70435 3.75 2.94129 4.06607 2.37868 4.62868C1.81607 5.19129 1.5 5.95435 1.5 6.75V6.908L11.214 12.886C11.4504 13.0314 11.7225 13.1084 12 13.1084C12.2775 13.1084 12.5496 13.0314 12.786 12.886L22.5 6.908Z" fill="black"/>
</svg>
