<svg width="24" height="24" viewBox="0 0 24 24" fill="none" xmlns="http://www.w3.org/2000/svg">
<path d="M12.4766 2.01291C12.5162 2.01299 12.5558 2.01306 12.5967 2.01314C13.1822 2.01499 13.7551 2.03173 14.3308 2.14828C14.3683 2.15572 14.4058 2.16317 14.4445 2.17084C14.7081 2.22444 14.9692 2.28584 15.2298 2.3526C15.2602 2.36027 15.2906 2.36795 15.322 2.37586C16.7211 2.7361 18.0526 3.46286 19.1579 4.38814C19.1796 4.40628 19.2014 4.42442 19.2238 4.44312C19.4095 4.60191 19.5854 4.75635 19.6106 5.01083C19.6112 5.04133 19.6118 5.07183 19.6125 5.10326C19.6135 5.13344 19.6146 5.16362 19.6157 5.19472C19.5835 5.43479 19.4396 5.59545 19.2739 5.76159C19.2535 5.78222 19.2331 5.80285 19.2121 5.82411C19.145 5.89168 19.0776 5.95879 19.0101 6.02589C18.9631 6.07297 18.9161 6.12006 18.8691 6.16717C18.7709 6.26561 18.6724 6.36381 18.5738 6.46187C18.4475 6.5874 18.3219 6.71349 18.1963 6.83974C18.0995 6.937 18.0024 7.03397 17.9052 7.13084C17.8588 7.17722 17.8124 7.22369 17.7661 7.27025C17.7014 7.33529 17.6363 7.39992 17.5711 7.46447C17.5341 7.5013 17.4972 7.53813 17.4592 7.57607C17.3065 7.70593 17.1683 7.75835 16.9691 7.75942C16.9396 7.7601 16.9102 7.76079 16.8799 7.76149C16.6344 7.72402 16.4475 7.5616 16.2565 7.41463C15.5443 6.88199 14.7432 6.52919 13.8813 6.31641C13.8546 6.30966 13.8279 6.30291 13.8003 6.29596C12.3334 5.94328 10.731 6.25367 9.42712 6.97023C9.36319 7.00413 9.36319 7.00413 9.29798 7.03871C7.88257 7.82008 6.88314 9.21395 6.41545 10.7414C6.36242 10.9264 6.31624 11.1126 6.28059 11.3018C6.27343 11.3398 6.26627 11.3778 6.2589 11.4169C6.19889 11.7663 6.18244 12.1098 6.18353 12.4639C6.18359 12.5066 6.18359 12.5066 6.18364 12.5502C6.18804 13.6179 6.45544 14.6186 6.97527 15.5517C6.98949 15.5777 7.00371 15.6037 7.01835 15.6305C7.22212 16.0001 7.4568 16.3224 7.73892 16.6359C7.78917 16.6921 7.83816 16.7494 7.88705 16.8068C8.10561 17.0601 8.34392 17.2698 8.60984 17.4723C8.63116 17.4887 8.65249 17.5052 8.67446 17.5221C10.0203 18.5521 11.7251 18.9603 13.4015 18.7534C14.8721 18.5271 16.3771 17.746 17.3139 16.5733C17.3317 16.551 17.3495 16.5287 17.3678 16.5058C17.6017 16.2105 17.8204 15.9105 18.006 15.5823C18.0199 15.5578 18.0339 15.5333 18.0482 15.508C18.1365 15.3463 18.209 15.1802 18.2794 15.01C18.2976 14.966 18.3158 14.922 18.3346 14.8766C18.3484 14.8432 18.3621 14.8097 18.3763 14.7753C18.3511 14.7754 18.3259 14.7756 18.2999 14.7757C17.6856 14.7793 17.0714 14.782 16.4571 14.7837C16.16 14.7846 15.863 14.7857 15.5659 14.7876C15.3069 14.7892 15.0479 14.7903 14.789 14.7906C14.6519 14.7909 14.5148 14.7914 14.3777 14.7925C14.2245 14.7937 14.0714 14.7939 13.9182 14.7938C13.8503 14.7947 13.8503 14.7947 13.7812 14.7956C13.5188 14.7942 13.3589 14.7685 13.1457 14.6118C12.9645 14.4115 12.9352 14.2873 12.9342 14.024C12.9339 13.9929 12.9337 13.9618 12.9334 13.9298C12.9326 13.8266 12.9321 13.7234 12.9317 13.6202C12.9315 13.585 12.9314 13.5497 12.9312 13.5134C12.9303 13.3269 12.9297 13.1403 12.9294 12.9538C12.9289 12.7612 12.9275 12.5687 12.9259 12.3761C12.9248 12.228 12.9245 12.0798 12.9243 11.9317C12.9241 11.8607 12.9237 11.7897 12.9229 11.7188C12.9219 11.6193 12.9219 11.5199 12.9222 11.4204C12.9214 11.3766 12.9214 11.3766 12.9206 11.332C12.9228 11.1261 12.9769 11.0115 13.1049 10.8523C13.3251 10.6536 13.4959 10.642 13.7831 10.6423C13.8375 10.6421 13.8375 10.6421 13.8931 10.6419C14.0153 10.6415 14.1374 10.6415 14.2596 10.6414C14.347 10.6412 14.4344 10.641 14.5217 10.6408C14.7595 10.6403 14.9972 10.64 15.235 10.6398C15.3835 10.6397 15.5319 10.6395 15.6804 10.6393C16.1447 10.6388 16.609 10.6384 17.0733 10.6382C17.6097 10.638 18.1461 10.6373 18.6824 10.6361C19.0968 10.6353 19.5111 10.6349 19.9254 10.6348C20.173 10.6348 20.4206 10.6345 20.6682 10.6338C20.9011 10.6331 21.1339 10.633 21.3668 10.6334C21.4523 10.6334 21.5378 10.6332 21.6233 10.6328C21.74 10.6323 21.8566 10.6326 21.9733 10.633C22.0072 10.6326 22.041 10.6323 22.0759 10.632C22.3266 10.6341 22.5334 10.6951 22.7156 10.8779C22.8306 11.0275 22.867 11.1786 22.898 11.3612C22.9032 11.3914 22.9084 11.4217 22.9138 11.4529C22.974 11.8387 22.9718 12.225 22.9684 12.6146C22.9681 12.6726 22.9682 12.6726 22.9679 12.7318C22.9645 13.3111 22.9475 13.8792 22.8305 14.4483C22.8183 14.5084 22.8183 14.5084 22.8059 14.5696C22.4743 16.154 21.8387 17.631 20.8282 18.9025C20.7994 18.9391 20.7707 18.9757 20.741 19.0135C20.4983 19.3167 20.2369 19.6013 19.97 19.8833C19.944 19.9111 19.9179 19.9389 19.891 19.9675C19.7235 20.1411 19.5395 20.2919 19.3515 20.4428C19.2774 20.5025 19.2039 20.5632 19.1315 20.625C17.777 21.7756 16.0704 22.5133 14.3308 22.8255C14.2968 22.8321 14.2629 22.8387 14.2279 22.8456C13.0949 23.062 11.7836 23.0462 10.653 22.8255C10.6164 22.8189 10.5797 22.8123 10.542 22.8055C8.06426 22.3572 5.63824 20.919 4.15566 18.8617C4.13583 18.8346 4.116 18.8076 4.09558 18.7797C2.74897 16.9391 2.01077 14.8049 2.0154 12.5175C2.01542 12.4762 2.01545 12.4348 2.01547 12.3922C2.01713 11.7166 2.05456 11.0659 2.19418 10.4028C2.20294 10.3607 2.2117 10.3185 2.22072 10.2751C2.56607 8.66651 3.2946 7.19015 4.31911 5.90777C4.35167 5.86673 4.38422 5.8257 4.41776 5.78342C4.88123 5.21735 5.40593 4.66888 5.99454 4.23234C6.021 4.21247 6.04746 4.1926 6.07473 4.17212C6.48316 3.86633 6.89836 3.58349 7.34305 3.33333C7.36863 3.31862 7.39421 3.3039 7.42057 3.28874C8.48445 2.67962 9.68671 2.28537 10.8982 2.10741C10.9474 2.10017 10.9967 2.09292 11.0474 2.08545C11.5238 2.02011 11.9963 2.01104 12.4766 2.01291Z" fill="#157DE6"/>
<path d="M12.4612 2.00022C12.5008 2.00029 12.5405 2.00037 12.5813 2.00044C13.1668 2.0023 13.7397 2.01904 14.3154 2.13558C14.3529 2.14303 14.3904 2.15047 14.4291 2.15815C14.6927 2.21174 14.9538 2.27315 15.2144 2.3399C15.2448 2.34758 15.2752 2.35526 15.3066 2.36317C16.7058 2.7234 18.0373 3.45017 19.1425 4.37544C19.1642 4.39358 19.186 4.41173 19.2084 4.43042C19.3941 4.58922 19.57 4.74365 19.5952 4.99814C19.5958 5.02864 19.5964 5.05914 19.5971 5.09056C19.5982 5.12074 19.5992 5.15093 19.6003 5.18203C19.5681 5.42209 19.4243 5.58275 19.2586 5.74889C19.2381 5.76952 19.2177 5.79015 19.1967 5.81141C19.1297 5.87898 19.0622 5.9461 18.9947 6.01319C18.9477 6.06027 18.9007 6.10737 18.8537 6.15448C18.7555 6.25291 18.657 6.35112 18.5584 6.44917C18.4322 6.57471 18.3065 6.70079 18.181 6.82705C18.0841 6.92431 17.987 7.02127 17.8898 7.11815C17.8434 7.16452 17.797 7.21099 17.7507 7.25755C17.686 7.32259 17.6209 7.38723 17.5557 7.45178C17.5187 7.4886 17.4818 7.52543 17.4438 7.56338C17.2912 7.69323 17.1529 7.74566 16.9537 7.74672C16.9243 7.74741 16.8948 7.74809 16.8645 7.7488C16.6191 7.71132 16.4321 7.54891 16.2411 7.40193C15.5289 6.8693 14.7279 6.5165 13.8659 6.30371C13.8392 6.29696 13.8125 6.29021 13.7849 6.28326C12.3181 5.93058 10.7156 6.24098 9.41174 6.95754C9.34781 6.99143 9.34781 6.99143 9.2826 7.02602C7.86719 7.80738 6.86776 9.20126 6.40007 10.7287C6.34705 10.9137 6.30086 11.0999 6.26521 11.2891C6.25805 11.3271 6.25089 11.3651 6.24352 11.4042C6.18351 11.7536 6.16706 12.0971 6.16815 12.4512C6.16821 12.4939 6.16821 12.4939 6.16826 12.5375C6.17247 13.5578 6.41363 14.5129 6.89445 15.4142C6.9599 15.539 6.9599 15.539 7.00076 15.6616C6.95647 15.6868 6.95647 15.6868 6.91129 15.7125C6.39497 16.0066 5.87897 16.3012 5.3662 16.6014C4.86182 16.8968 4.35454 17.187 3.84639 17.4758C3.77673 17.5156 3.70726 17.5557 3.63812 17.5964C3.45372 17.7048 3.45372 17.7048 3.36386 17.7048C2.44781 16.1142 1.99632 14.3339 2.00002 12.5048C2.00004 12.4635 2.00007 12.4221 2.00009 12.3795C2.00175 11.7039 2.03918 11.0532 2.1788 10.3901C2.18756 10.348 2.19632 10.3058 2.20534 10.2624C2.55069 8.65381 3.27922 7.17746 4.30373 5.89507C4.33629 5.85404 4.36884 5.813 4.40238 5.77072C4.86585 5.20466 5.39055 4.65618 5.97916 4.21965C6.00562 4.19977 6.03208 4.1799 6.05935 4.15943C6.46778 3.85363 6.88299 3.57079 7.32767 3.32064C7.35325 3.30592 7.37883 3.2912 7.40519 3.27604C8.46907 2.66692 9.67133 2.27267 10.8828 2.09472C10.9321 2.08747 10.9813 2.08022 11.032 2.07276C11.5084 2.00742 11.9809 1.99834 12.4612 2.00022Z" fill="#FF4B25"/>
<path d="M6.91909 15.6616C7.07642 15.722 7.12932 15.8014 7.2128 15.9451C7.36705 16.1968 7.54376 16.4191 7.73637 16.6424C7.76887 16.6804 7.80138 16.7184 7.83486 16.7576C8.06732 17.0221 8.31418 17.247 8.59452 17.4596C8.61579 17.476 8.63705 17.4924 8.65897 17.5093C10.0048 18.5394 11.7097 18.9476 13.3861 18.7408C14.0989 18.6311 14.7815 18.3951 15.4166 18.0563C15.5414 17.9909 15.5414 17.9909 15.664 17.95C16.0894 18.6774 16.5114 19.4066 16.9318 20.1369C16.9872 20.2332 17.0427 20.3295 17.0982 20.4258C17.15 20.5159 17.2019 20.6059 17.2537 20.696C17.2774 20.7372 17.3011 20.7783 17.3255 20.8207C17.3482 20.8601 17.3708 20.8994 17.3942 20.9399C17.4812 21.0884 17.5718 21.2346 17.6635 21.3802C17.7072 21.4643 17.7072 21.4643 17.7072 21.5869C16.5765 22.2203 15.3552 22.665 14.0703 22.8537C14.0211 22.8609 13.9718 22.8682 13.9211 22.8756C13.4448 22.941 12.9722 22.9501 12.4919 22.9482C12.4523 22.9481 12.4127 22.948 12.3718 22.948C11.7854 22.9461 11.2147 22.9255 10.6377 22.8128C10.6011 22.8062 10.5644 22.7997 10.5266 22.7929C8.05086 22.3449 5.62034 20.907 4.14034 18.849C4.11986 18.8209 4.09938 18.7927 4.07828 18.7637C3.83863 18.4336 3.60441 18.102 3.40479 17.7457C3.50669 17.6314 3.61941 17.5646 3.75229 17.4896C3.79805 17.4637 3.8438 17.4378 3.89094 17.411C3.91532 17.3973 3.93969 17.3836 3.9648 17.3695C4.06835 17.3113 4.17165 17.2527 4.27498 17.1941C4.32841 17.1638 4.38187 17.1335 4.43533 17.1032C4.69369 16.957 4.95091 16.8088 5.20791 16.6602C5.29448 16.6102 5.38105 16.5602 5.46762 16.5102C5.51078 16.4852 5.55394 16.4603 5.59841 16.4346C5.743 16.3511 5.88768 16.2678 6.03237 16.1846C6.10583 16.1423 6.17929 16.1 6.25274 16.0577C6.32249 16.0175 6.39226 15.9774 6.46203 15.9373C6.50408 15.9131 6.54614 15.8888 6.58947 15.8639C6.62657 15.8425 6.66368 15.8212 6.70191 15.7992C6.77571 15.7556 6.84779 15.7092 6.91909 15.6616Z" fill="#12B346"/>
<path d="M3.36386 7.24365C3.5087 7.2986 3.64206 7.36266 3.77713 7.43839C3.8175 7.46099 3.85786 7.48358 3.89945 7.50685C3.94268 7.53125 3.98591 7.55565 4.03045 7.58078C4.07582 7.60628 4.12118 7.63178 4.16792 7.65806C4.51105 7.85157 4.8518 8.049 5.19161 8.24827C5.52182 8.44177 5.85361 8.63237 6.18603 8.82203C6.21053 8.836 6.23503 8.84998 6.26027 8.86438C6.37338 8.9289 6.4865 8.99338 6.59964 9.05783C6.73341 9.13406 6.8671 9.21042 7.00076 9.28685C6.97753 9.33295 6.9543 9.37904 6.93036 9.42653C6.13713 11.0301 5.9253 12.7534 6.47974 14.4715C6.59118 14.7999 6.73133 15.1085 6.89445 15.4142C6.9599 15.5391 6.9599 15.5391 7.00076 15.6616C6.95647 15.6869 6.95647 15.6869 6.91129 15.7126C6.39497 16.0067 5.87897 16.3012 5.3662 16.6015C4.86182 16.8968 4.35454 17.187 3.84639 17.4758C3.77673 17.5156 3.70726 17.5557 3.63812 17.5964C3.45372 17.7048 3.45372 17.7048 3.36386 17.7048C2.44781 16.1142 1.99632 14.3339 2.00002 12.5049C2.00004 12.4635 2.00007 12.4222 2.00009 12.3796C2.00175 11.704 2.03918 11.0532 2.1788 10.3902C2.18756 10.348 2.19632 10.3059 2.20534 10.2625C2.43106 9.2111 2.82014 8.1733 3.36386 7.24365Z" fill="#FED400"/>
<path d="M12.4766 2.0127C13.5216 2.0127 13.5216 2.0127 13.8455 2.06122C13.9029 2.06929 13.9029 2.06929 13.9615 2.07752C14.3847 2.1403 14.8002 2.2335 15.2145 2.33961C15.2449 2.34729 15.2753 2.35496 15.3066 2.36287C16.7058 2.72311 18.0373 3.44987 19.1425 4.37515C19.1643 4.39329 19.186 4.41143 19.2085 4.43013C19.3941 4.58893 19.57 4.74336 19.5952 4.99784C19.5962 5.04359 19.5962 5.04359 19.5971 5.09027C19.5987 5.13554 19.5987 5.13554 19.6003 5.18173C19.5682 5.4218 19.4243 5.58246 19.2586 5.7486C19.2382 5.76923 19.2177 5.78986 19.1967 5.81112C19.1297 5.87869 19.0622 5.94581 18.9947 6.0129C18.9477 6.05998 18.9007 6.10707 18.8538 6.15419C18.7555 6.25262 18.657 6.35082 18.5584 6.44888C18.4322 6.57442 18.3065 6.7005 18.181 6.82675C18.0842 6.92401 17.9871 7.02098 17.8899 7.11786C17.8434 7.16423 17.797 7.2107 17.7508 7.25726C17.686 7.3223 17.6209 7.38694 17.5557 7.45148C17.5003 7.50672 17.5003 7.50672 17.4438 7.56308C17.2912 7.69294 17.153 7.74536 16.9537 7.74643C16.9243 7.74711 16.8948 7.7478 16.8645 7.74851C16.6191 7.71103 16.4321 7.54862 16.2412 7.40164C15.4313 6.79601 14.4914 6.40453 13.4956 6.23191C13.4552 6.22481 13.4552 6.22481 13.4141 6.21758C13.1015 6.16834 12.7957 6.15991 12.4766 6.13996C12.4766 4.77796 12.4766 3.41597 12.4766 2.0127Z" fill="#D93F21"/>
<path d="M15.6231 17.9497C15.7373 18.0516 15.8042 18.1643 15.8791 18.2972C15.9051 18.343 15.931 18.3887 15.9578 18.4359C15.9715 18.4602 15.9852 18.4846 15.9993 18.5097C16.0575 18.6133 16.1161 18.7166 16.1747 18.8199C16.205 18.8733 16.2353 18.9268 16.2655 18.9803C16.4118 19.2386 16.5599 19.4958 16.7085 19.7528C16.7586 19.8394 16.8086 19.926 16.8586 20.0125C16.8835 20.0557 16.9085 20.0989 16.9342 20.1433C17.0176 20.2879 17.101 20.4326 17.1842 20.5773C17.2265 20.6508 17.2688 20.7242 17.3111 20.7977C17.3513 20.8674 17.3914 20.9372 17.4315 21.0069C17.4557 21.049 17.48 21.0911 17.5049 21.1344C17.5369 21.19 17.5369 21.19 17.5696 21.2468C17.6132 21.3206 17.6596 21.3927 17.7072 21.464C17.7072 21.5045 17.7072 21.5449 17.7072 21.5866C16.5708 22.2232 15.3575 22.6511 14.0703 22.8534C14.0257 22.8606 14.0257 22.8606 13.9802 22.8679C13.4735 22.9468 12.9963 22.9351 12.4766 22.9351C12.4766 21.5731 12.4766 20.2111 12.4766 18.8079C12.7867 18.7809 13.0969 18.7539 13.4164 18.7261C14.2128 18.5883 14.9116 18.3275 15.6231 17.9497Z" fill="#0F993E"/>
</svg>
