<svg width="56" height="56" viewBox="0 0 56 56" fill="none" xmlns="http://www.w3.org/2000/svg">
<path fill-rule="evenodd" clip-rule="evenodd" d="M5.25 28C5.25 15.435 15.435 5.25 28 5.25C40.565 5.25 50.75 15.435 50.75 28C50.75 40.565 40.565 50.75 28 50.75C15.435 50.75 5.25 40.565 5.25 28ZM36.4233 23.7673C36.5633 23.5808 36.6646 23.3681 36.7213 23.1419C36.7779 22.9156 36.7888 22.6803 36.7532 22.4498C36.7176 22.2193 36.6362 21.9983 36.514 21.7996C36.3917 21.601 36.231 21.4288 36.0413 21.2932C35.8515 21.1576 35.6366 21.0612 35.4091 21.0099C35.1815 20.9585 34.9461 20.9531 34.7164 20.9941C34.4868 21.035 34.2677 21.1215 34.072 21.2483C33.8762 21.3751 33.7078 21.5398 33.5767 21.7327L26.026 32.3027L22.2367 28.5133C21.9049 28.2042 21.4662 28.0359 21.0128 28.0439C20.5594 28.0519 20.1268 28.2356 19.8062 28.5562C19.4856 28.8768 19.3019 29.3094 19.2939 29.7628C19.2859 30.2162 19.4542 30.6549 19.7633 30.9867L25.0133 36.2367C25.193 36.4162 25.4095 36.5544 25.648 36.6418C25.8864 36.7292 26.141 36.7637 26.3941 36.7428C26.6472 36.722 26.8927 36.6463 27.1136 36.521C27.3345 36.3957 27.5255 36.2238 27.6733 36.0173L36.4233 23.7673Z" fill="#16A34A"/>
</svg>
